<?xml version="1.0" standalone="no"?>
<!DOCTYPE svg PUBLIC "-//W3C//DTD SVG 1.1//EN" "http://www.w3.org/Graphics/SVG/1.1/DTD/svg11.dtd" >
<svg>
<metadata>
Created by FontForge 20090914 at Fri Feb 24 04:44:52 2012
 By root
All rights reserved. &#194;&#169;1995, Immortalware (Trademark), Copyright: Julius Benedict Thyssen.
</metadata>
<defs>
<font id="Thyssen-J" horiz-adv-x="1044" >
  <font-face 
    font-family="Thyssen J"
    font-weight="400"
    font-stretch="semi-condensed"
    units-per-em="2048"
    panose-1="0 0 6 3 0 0 0 0 0 0"
    ascent="1638"
    descent="-410"
    x-height="864"
    cap-height="1501"
    bbox="-345 -472 3346 2028"
    underline-thickness="105"
    underline-position="-168"
    unicode-range="U+0020-U+F002"
  />
<missing-glyph horiz-adv-x="1024" 
d="M64 0v2028h896v-2028h-896zM896 64v1900h-768v-1900h768z" />
    <glyph glyph-name=".notdef" horiz-adv-x="1024" 
d="M64 0v2028h896v-2028h-896zM896 64v1900h-768v-1900h768z" />
    <glyph glyph-name=".null" horiz-adv-x="0" 
 />
    <glyph glyph-name="nonmarkingreturn" horiz-adv-x="530" 
 />
    <glyph glyph-name="space" unicode=" " horiz-adv-x="530" 
 />
    <glyph glyph-name="exclam" unicode="!" horiz-adv-x="610" 
d="M458 1330q0 -9 -3 -26l-18 -91q-43 -211 -64.5 -403.5t-21.5 -384.5h-86q0 188 -22.5 374.5t-68.5 405.5q-24 108 -24 134q0 86 45 138q39 49 110 49q36 0 63 -11.5t47 -37.5q43 -53 43 -147zM451 134q0 -56 -45 -98.5t-103 -42.5q-56 0 -102 43q-21 21 -32.5 45
t-11.5 53q0 28 10.5 51.5t32.5 46.5q42 44 103 44q58 0 104 -43q21 -21 32.5 -45.5t11.5 -53.5z" />
    <glyph glyph-name="quotedbl" unicode="&#x22;" horiz-adv-x="708" 
d="M622 1387l-3 -36l-1 -3l-76 -470h-22l-77 467q0 11 -2 17q4 12 4 23q0 26 4.5 43t15.5 31q27 27 66 27q38 0 67 -26q13 -15 18.5 -31t5.5 -42zM266 1385l-1 -24l-1 -16l-76 -467h-22l-77 468q0 10 -2 16q4 12 4 23q0 27 3.5 44t14.5 31q14 13 29.5 19.5t36.5 6.5
q23 0 37.5 -6t29.5 -20q12 -15 18 -31.5t6 -43.5z" />
    <glyph glyph-name="numbersign" unicode="#" horiz-adv-x="1607" 
d="M1531 1033l-52 -146h-303l-102 -289l317 -4l-54 -148h-317l-161 -447h-165l156 445l-298 2l-159 -447h-168l160 445l-312 2l52 148l314 2l102 289l-328 2l56 146l327 2l164 447h162l-159 -445l300 -2l163 447h163l-159 -445zM1013 885l-307 2l-105 -291l308 -2z" />
    <glyph glyph-name="dollar" unicode="$" horiz-adv-x="871" 
d="M794 408q0 -150 -84.5 -254.5t-237.5 -141.5v-254h-95l-2 248q-75 0 -133 22t-104 62q-82 70 -82 182q0 35 6.5 59t23.5 43q34 37 85 37q23 0 40 -6t33 -21q32 -32 32 -76q0 -32 -13 -55.5t-50 -58.5q15 -24 29 -39.5t33 -24.5q15 -9 39.5 -14.5t60.5 -10.5v563
q-154 89 -225 195q-36 50 -55.5 105.5t-19.5 113.5q0 129 81 234q41 50 94.5 83t124.5 50l2 96h95v-91q138 -17 211 -80q37 -34 55 -71t18 -87q0 -26 -7.5 -46t-23.5 -39q-31 -33 -73 -33q-37 0 -68 28q-26 29 -26 68q0 26 9 44q5 15 13 27.5t24 29.5q-40 29 -60.5 40
t-71.5 19v-492q87 -50 148.5 -103.5t97.5 -108.5q76 -106 76 -242zM389 1351q-79 -24 -116 -75q-34 -54 -34 -123q0 -74 30 -127q24 -44 118 -116zM630 340q0 73 -34 132q-17 30 -46.5 59.5t-81.5 71.5v-492q47 21 75.5 42.5t50.5 51.5q36 56 36 135z" />
    <glyph glyph-name="percent" unicode="%" horiz-adv-x="1368" 
d="M1331 380q0 -178 -82 -286q-76 -112 -196 -112t-195 111q-40 55 -58.5 125t-18.5 162q0 95 17.5 163t59.5 122q75 112 195 112q122 0 197 -112q81 -106 81 -285zM1022 1478l-576 -1496h-103l578 1496h101zM588 1082q0 -178 -82 -287q-75 -113 -195 -113q-118 0 -196 114
q-41 54 -59 124t-18 162q0 93 17.5 161t59.5 124q78 111 196 111q119 0 196 -111q81 -108 81 -285zM1163 315v127q0 62 -6.5 105t-19.5 77q-24 56 -82 56t-82 -59t-24 -179v-127q0 -124 23.5 -180.5t82.5 -56.5q58 0 82 56q13 32 19.5 75t6.5 106zM419 1018v128
q0 63 -6.5 106t-20.5 76q-23 56 -81 56q-30 0 -49.5 -13.5t-33.5 -44.5q-23 -60 -23 -180v-128q0 -121 23 -180q26 -57 83 -57q56 0 81 56q12 29 19.5 75.5t7.5 105.5z" />
    <glyph glyph-name="ampersand" unicode="&#x26;" horiz-adv-x="1238" 
d="M1204 59q-22 -19 -41.5 -31.5t-49.5 -23.5q-52 -22 -114 -22q-81 0 -141 30q-34 18 -60 39q-34 28 -60 63q-39 -37 -73 -59.5t-76 -41.5q-36 -15 -76 -23t-87 -8q-163 0 -269.5 108t-106.5 279q0 70 16.5 130.5t55 121.5t91.5 112.5t132 101.5q-22 48 -38.5 95t-27.5 92
q-7 34 -10.5 74.5t-3.5 76.5q0 162 82 256q87 99 217 99q124 0 198.5 -72.5t74.5 -191.5q0 -61 -15 -112t-50 -104q-31 -48 -79.5 -94.5t-115.5 -89.5q46 -113 102 -221t129 -225q23 38 39.5 70.5t25.5 60.5q20 58 20 100q0 34 -11 52q-6 7 -17 13t-29 10l-26 6
q-36 8 -36 41v44h410v-38q0 -19 -5.5 -30.5t-9.5 -14.5l-36 -7q-42 -6 -68 -31q-10 -10 -30 -49.5t-46 -103.5q-29 -76 -53 -127q-27 -58 -63 -116q77 -104 123 -143q51 -38 98 -38q21 0 40 5q6 3 19 6t21 6zM700 1252q0 77 -35 127q-31 49 -91 49q-63 0 -94 -38
q-28 -39 -28 -110q0 -60 18 -137q10 -38 27 -84.5t40 -98.5q45 32 73.5 61t49.5 67q20 42 30 81t10 83zM662 211q-70 99 -134 217l-64 129l-75 163q-37 -25 -62 -50t-39 -53q-27 -60 -27 -136q0 -148 69.5 -251.5t171.5 -103.5q18 0 37.5 5t46.5 16q36 16 76 64z" />
    <glyph glyph-name="quotesingle" unicode="'" horiz-adv-x="365" 
d="M277 1385l-1 -24l-1 -16l-80 -467h-25l-81 468q0 10 -2 16q4 12 4 23q0 29 3.5 44.5t16.5 30.5q28 26 70 26q43 0 71 -26q25 -28 25 -75z" />
    <glyph glyph-name="parenleft" unicode="(" horiz-adv-x="640" 
d="M606 -275q-115 66 -203.5 156.5t-155 208t-97.5 251t-31 291.5t30.5 290.5t95.5 250t153 207t208 159.5v-38q-63 -64 -112 -156t-85 -206q-66 -224 -66 -507q0 -284 67.5 -508.5t195.5 -358.5v-40z" />
    <glyph glyph-name="parenright" unicode=")" horiz-adv-x="640" 
d="M520 632q0 -304 -129 -544q-65 -115 -152.5 -204t-203.5 -157l-1 38q62 67 108.5 156.5t80.5 202.5t53.5 242.5t19.5 265.5q0 142 -18.5 266t-52.5 240.5t-80.5 205.5t-110.5 156l1 37q227 -132 356 -361q64 -117 96.5 -254t32.5 -290z" />
    <glyph glyph-name="asterisk" unicode="*" horiz-adv-x="901" 
d="M837 934q0 -16 -6.5 -31t-21.5 -32q-29 -31 -59 -31q-29 0 -56.5 23.5t-60.5 73.5l-13 21q-33 41 -63 67q-22 20 -52 38.5t-49 28.5l-2 -22q0 -45 10 -90.5t34 -99.5q42 -93 42 -115q0 -37 -26 -63q-23 -25 -65 -25t-68 24q-12 12 -18 27t-6 37q0 15 16.5 54l25.5 60
q22 52 33 96.5t11 87.5l-3 30l-38 -21q-74 -55 -121 -114q-7 -7 -11 -16q-36 -52 -66 -77t-57 -25q-28 0 -58 33q-13 16 -19 34t-6 37t5 31.5t22 26t34 20.5t38 7q6 -1 11 -1t14 3q73 0 132 19t118 56q-64 35 -118 51q-62 19 -129 19l-20 1q-23 0 -42 7.5t-38 23.5
q-31 26 -31 58q0 36 28 68q13 16 27.5 22t33.5 6q29 0 59 -23t63 -72l10 -14q19 -25 33.5 -42t32 -33.5t38.5 -30t60 -33.5l3 22q0 42 -11.5 87.5t-35.5 101.5q-42 90 -42 116q0 37 26 63q13 12 28.5 18t37.5 6q41 0 66 -23q12 -13 18.5 -28t6.5 -36q0 -12 -16.5 -52.5
l-25.5 -62.5q-44 -98 -44 -184l2 -32q27 16 38 23q36 27 67 57q26 25 53 59q2 3 5.5 7.5t5.5 8.5q34 51 64.5 74t60.5 23q16 0 30 -6.5t28 -23.5q27 -33 27 -69q0 -31 -30 -58q-18 -14 -35 -22t-38 -8q-15 0 -25 -2q-72 0 -132 -19t-113 -52q54 -33 110.5 -52t116.5 -19
q21 0 29 -2q27 0 48 -7.5t41 -21.5q28 -23 28 -66z" />
    <glyph glyph-name="plus" unicode="+" horiz-adv-x="1740" 
d="M1479 549h-532v-544h-151l-2 544h-531v147l531 2l2 540h151v-540l532 -2v-147z" />
    <glyph glyph-name="comma" unicode="," horiz-adv-x="435" 
d="M365 101q0 -83 -70 -193t-192 -239l-57 44q41 38 68.5 71t47.5 68.5t31.5 75t16.5 79.5q-37 5 -62.5 15t-43 26t-24.5 37.5t-7 52.5q0 35 7 58.5t26.5 44t43 31t53.5 10.5q40 0 67.5 -11.5t51.5 -37.5q43 -46 43 -132z" />
    <glyph glyph-name="hyphen" unicode="-" horiz-adv-x="504" 
d="M453 352h-401v191h401v-191z" />
    <glyph glyph-name="period" unicode="." horiz-adv-x="435" 
d="M363 138q0 -60 -45 -102q-21 -21 -46.5 -32t-56.5 -11q-57 0 -101.5 44t-44.5 101q0 28 10.5 53t32.5 49q22 21 47.5 32.5t55.5 11.5q58 0 103 -42.5t45 -103.5z" />
    <glyph glyph-name="slash" unicode="/" horiz-adv-x="441" 
d="M422 1526l-315 -1715h-128l313 1715h130z" />
    <glyph glyph-name="zero" unicode="0" horiz-adv-x="871" 
d="M811 733q0 -362 -99.5 -557.5t-279.5 -195.5q-176 0 -274 192q-49 98 -72.5 236.5t-23.5 324.5q0 187 22.5 322.5t71.5 231.5t118.5 143.5t157.5 47.5q91 0 160.5 -46.5t118.5 -141.5q100 -196 100 -557zM562 594v275q0 147 -7.5 246.5t-21.5 152.5q-26 106 -101 106
q-71 0 -97 -101t-26 -404v-275q0 -302 25.5 -404t97.5 -102q38 0 62.5 24.5t38.5 79.5t21.5 154t7.5 248z" />
    <glyph glyph-name="one" unicode="1" horiz-adv-x="871" 
d="M688 5h-471v46q0 15 8.5 27t28.5 21l35 16q16 11 25.5 23.5t14.5 32.5q12 35 12 98l2 984h-168v88l270 115l115 -2v-1185q0 -64 10 -98t42 -56l33 -16q43 -16 43 -48v-46z" />
    <glyph glyph-name="two" unicode="2" horiz-adv-x="871" 
d="M756 5h-710l-2 135q23 67 77 166.5t133 220.5l49 75q117 183 166 311q23 63 35 121t12 115q0 112 -35 170.5t-109 58.5q-31 0 -63 -12q-24 -11 -56 -48q18 -9 30 -22q8 -9 17 -24q13 -24 13 -56q0 -59 -35 -95.5t-83 -36.5q-54 0 -88 37q-16 16 -23 40t-7 57
q0 112 91 190q46 37 105 53.5t136 16.5q80 0 141.5 -21.5t110 -68t72 -104t23.5 -135.5q0 -108 -59.5 -226.5t-226.5 -322.5l-24 -31.5t-25 -28.5q-81 -102 -134.5 -184t-81.5 -149l288 -4q23 0 45.5 4.5t42.5 11.5q39 14 60 44q5 9 8.5 19.5t6.5 23.5q13 37 46 37h54v-338z
" />
    <glyph glyph-name="three" unicode="3" horiz-adv-x="871" 
d="M761 409q0 -192 -111.5 -310.5t-292.5 -118.5q-128 0 -216 67q-44 34 -65.5 72t-21.5 88q0 63 31.5 98.5t85.5 35.5q28 0 49 -6.5t37 -21.5q36 -30 36 -78q0 -22 -5.5 -38.5t-10.5 -26.5q-8 -16 -18 -30q8 -16 18 -26.5t24 -20.5q20 -11 52 -11q83 0 127.5 84.5
t44.5 240.5q0 182 -52 264q-27 43 -67 64.5t-97 21.5v92q56 0 94.5 17t67.5 52q48 70 48 217q0 129 -31.5 186.5t-109.5 57.5q-23 0 -52 -10q-21 -9 -49 -40q11 -10 17.5 -18.5t18.5 -29.5q5 -10 8 -22t3 -29q0 -44 -32 -76q-17 -16 -36 -24t-45 -8q-53 0 -84 33.5t-31 94.5
q0 97 85 163t220 66q148 0 240 -89t92 -236q0 -114 -61 -201q-27 -43 -73.5 -80t-117.5 -72q151 -58 215.5 -152.5t64.5 -239.5z" />
    <glyph glyph-name="four" unicode="4" horiz-adv-x="871" 
d="M817 367h-142v-150v-36.5t4.5 -38.5t19.5 -36q9 -9 22 -16q31 -20 31 -41v-44h-361v44q0 21 25 38q9 4 14 8t12 11q14 11 18 39q5 25 5 72l1 150h-408l-2 136l468 951h151v-959l142 -2v-126zM467 495v543l-20 4l-266 -545z" />
    <glyph glyph-name="five" unicode="5" horiz-adv-x="871" 
d="M792 457q0 -218 -115.5 -347.5t-304.5 -129.5q-128 0 -214 70q-43 37 -64 78t-21 93q0 63 34 105q21 22 41 32t47 10q55 0 91 -34q19 -18 27.5 -39t8.5 -50q0 -28 -13 -50q-11 -23 -45 -54q14 -18 24 -28t23 -16q22 -8 32.5 -10.5t28.5 -2.5q45 0 77 20.5t56 62.5
q21 40 32.5 100.5t11.5 137.5q0 89 -14 153.5t-41 107.5t-68.5 64t-102.5 21q-12 0 -30 -1.5t-41 -5.5l-70 -18l-61 53l23 675h380q16 0 33 4.5t23 5.5q27 6 41 24l7 10q11 20 38 20h32l-10 -265h-418l-13 -398q30 8 52 13q4 1 44 8q21 3 40 5t42 2q152 0 257 -118
q50 -61 75 -136.5t25 -171.5z" />
    <glyph glyph-name="six" unicode="6" horiz-adv-x="871" 
d="M800 509q0 -226 -109 -378q-54 -75 -118.5 -113t-144.5 -38q-169 0 -264 172q-47 88 -69 214t-22 292q0 200 28.5 349.5t89 258t144 160.5t191.5 52q55 0 96.5 -12.5t74.5 -40.5q33 -30 50.5 -65.5t17.5 -79.5q0 -31 -9.5 -56t-27.5 -44t-42 -29.5t-52 -10.5
q-49 0 -80 31q-15 16 -23 36t-8 49q0 15 6 36q3 9 8.5 20.5t15.5 27.5q-1 1 -16.5 9.5t-27 12.5t-17.5 4h-10q-82 0 -125 -106t-43 -294l2 -169q38 35 64.5 54t55.5 33q49 28 94 28q58 0 104 -28.5t86 -85.5q80 -115 80 -289zM562 457q0 90 -6 144.5t-18 90.5q-21 70 -85 70
q-41 0 -76 -23q-17 -15 -31.5 -32.5t-29.5 -40.5v-311q0 -136 25 -202q29 -63 96 -63t96 78q14 39 21.5 110.5t7.5 178.5z" />
    <glyph glyph-name="seven" unicode="7" horiz-adv-x="871" 
d="M781 1362q-74 -173 -126 -317t-82 -261q-59 -228 -59 -438l2 -89l2 -90q0 -94 -39 -140q-33 -47 -103 -47q-63 0 -101 40q-18 23 -27.5 51t-9.5 67q0 134 90 391q46 131 119 306l183 419l-291 2q-57 0 -83 -14q-32 -13 -43 -53l-7 -29q-6 -27 -29 -27h-60l13 339l32 -8
l78 -4l541 -4v-94z" />
    <glyph glyph-name="eight" unicode="8" horiz-adv-x="871" 
d="M802 393q0 -184 -108 -298.5t-282 -114.5q-154 0 -254 101q-49 49 -72.5 112.5t-23.5 145.5q0 56 11.5 105t40 98t67.5 94q43 50 105 101q-107 98 -149 182q-21 38 -31 85.5t-10 100.5q0 85 23.5 151.5t73.5 118.5q94 103 250 103q68 0 122.5 -20.5t98 -63.5t65 -95.5
t21.5 -122.5q0 -85 -47 -159q-26 -38 -63 -72q-42 -39 -104 -80q71 -52 122 -110q47 -53 80 -113q64 -116 64 -249zM601 1170q0 44 -13 81.5t-36 66.5q-45 54 -124 54q-63 0 -110 -48q-42 -50 -42 -128q0 -70 43.5 -134.5t156.5 -151.5q66 59 93 122q16 41 24 72t8 66z
M616 295q0 43 -16 88.5t-44 87.5q-54 78 -210 202q-66 -63 -99 -144q-15 -42 -22.5 -85t-7.5 -91q0 -124 54 -195.5t149 -71.5q43 0 78 13.5t61.5 43.5t41.5 68t15 84z" />
    <glyph glyph-name="nine" unicode="9" horiz-adv-x="871" 
d="M790 804q0 -384 -126 -608q-122 -216 -331 -216q-103 0 -169 56.5t-66 145.5q0 65 34.5 102.5t90.5 37.5q52 0 82 -32.5t30 -82.5q0 -21 -4.5 -36t-8.5 -24t-12 -24q12 -9 20.5 -14t15.5 -8l32 -4q81 0 125 104q22 56 33.5 129t11.5 166l-3 173q-38 -34 -68.5 -56.5
t-55.5 -36.5q-46 -26 -93 -26q-58 0 -103.5 27.5t-86 85.5t-58.5 128.5t-18 162.5q0 116 25 209t80 168q106 147 263 147q171 0 265.5 -174.5t94.5 -499.5zM547 1107q0 69 -7.5 117.5t-22.5 85.5q-30 62 -99 62q-62 0 -93 -80q-22 -75 -22 -286q0 -176 19 -236
q11 -37 31.5 -53.5t51.5 -16.5q42 0 74 22q31 28 64 76z" />
    <glyph glyph-name="colon" unicode=":" horiz-adv-x="482" 
d="M389 737q0 -55 -45 -100q-48 -43 -103 -43q-56 0 -101.5 44t-45.5 99q0 57 44 98t103 41q57 0 104 -41q21 -20 32.5 -45t11.5 -53zM389 134q0 -55 -45 -99q-47 -42 -103 -42q-58 0 -102.5 42.5t-44.5 98.5t44 100q21 21 46.5 32t56.5 11q57 0 104 -42q21 -21 32.5 -46
t11.5 -55z" />
    <glyph glyph-name="semicolon" unicode=";" horiz-adv-x="482" 
d="M389 737q0 -56 -45 -100q-47 -42 -105 -42q-57 0 -102 43t-45 99q0 57 44 98t103 41t106 -41q21 -20 32.5 -45t11.5 -53zM389 97q0 -81 -71 -193q-64 -100 -193 -235l-57 43q40 37 70.5 72.5t49.5 69.5q39 67 48 150q-72 7 -108 40t-36 89q0 63 38 102q19 19 43 29.5
t54 10.5q39 0 67 -11.5t52 -35.5q43 -49 43 -131z" />
    <glyph glyph-name="less" unicode="&#x3c;" horiz-adv-x="1740" 
d="M1469 56l-1196 492v149l1196 494v-167l-981 -402l981 -400v-166z" />
    <glyph glyph-name="equal" unicode="=" horiz-adv-x="1740" 
d="M1479 761h-1216v151h1216v-151zM1479 334h-1216v147h1216v-147z" />
    <glyph glyph-name="greater" unicode="&#x3e;" horiz-adv-x="1740" 
d="M1469 548l-1196 -491v162l980 403l-980 403v165l1196 -491v-151z" />
    <glyph glyph-name="question" unicode="?" horiz-adv-x="744" 
d="M646 1234q0 -130 -123 -318l-40 -66q-65 -106 -93 -210.5t-28 -227.5l-81 -3l-4 27q0 4 2 22t2 34q0 58 1.5 96t6.5 79t11 78.5t17 83.5l32 116q29 98 44.5 175.5t15.5 128.5q0 41 -8 72.5t-23 53.5q-26 43 -87 43q-22 0 -32.5 -4t-17 -9.5t-17.5 -19.5q14 -11 25 -26
q7 -9 16.5 -25.5t9.5 -50.5q0 -47 -32 -79q-32 -30 -82 -30q-51 0 -86 34q-27 30 -27 91q0 52 18 91t60 73t95.5 48.5t125.5 14.5q70 0 122.5 -18t94.5 -59q82 -80 82 -215zM464 134q0 -57 -44 -99t-101 -42q-54 0 -98 42.5t-44 98.5q0 54 42.5 98t99.5 44q60 0 102.5 -42.5
t42.5 -99.5z" />
    <glyph glyph-name="at" unicode="@" horiz-adv-x="2059" 
d="M1920 783q0 -163 -61 -301t-171 -239q-64 -55 -129.5 -83t-133.5 -28q-94 0 -148 51q-30 30 -45 68q-18 46 -18 113q-43 -72 -79 -113t-77 -67q-77 -50 -163 -50q-132 0 -212 92q-38 44 -56.5 105t-18.5 141q0 62 11 115.5t37 104.5q46 105 142 197q41 36 72 57
q36 24 78 42q75 36 161 36q85 0 140.5 -48t74.5 -142h16l51 169h155l-171 -617l-2 -7q-15 -59 -15 -93q0 -55 22 -87q13 -16 31 -25t43 -9q14 0 36.5 7t53.5 20t53 26t46 34q114 92 175 229q31 73 47 149t16 162q0 292 -200.5 470t-527.5 178q-181 0 -346 -67
q-82 -34 -150 -80q-74 -50 -133 -113q-128 -129 -191 -295q-32 -88 -47.5 -179t-15.5 -194q0 -175 61 -321q30 -68 76.5 -128t110.5 -115q111 -91 260 -140q76 -25 153.5 -37.5t160.5 -12.5q84 0 167.5 14t163.5 40t155 63.5t156 89.5l22 -27q-144 -108 -308 -163
q-174 -59 -356 -59q-188 0 -351.5 47t-280.5 139q-75 54 -135 126t-101 153.5t-59.5 172t-18.5 194.5q0 108 19.5 203t63.5 182q48 95 109.5 172t148.5 149q134 110 298 170q79 27 170.5 40.5t184.5 13.5q179 0 319.5 -46t247 -142t160 -221.5t53.5 -285.5zM1286 789
q0 93 -40 145t-112 52q-69 0 -129 -48q-29 -24 -56 -61.5t-54 -91.5q-33 -61 -54 -110t-37 -110q-31 -102 -31 -192t37 -143q42 -55 109 -55q68 0 127 43q29 24 57.5 58.5t55.5 81.5q53 95 93 219q16 58 25 113t9 99z" />
    <glyph glyph-name="A" unicode="A" 
d="M1070 5h-440v52q0 15 5.5 24.5t22.5 20.5q42 26 42 53q0 6 -3 17.5l-4 15.5l-11 44l-38 139h-379l-34 -122l-11 -39l-3 -28q0 -28 9 -44.5t39 -36.5l12 -6q24 -13 24 -38v-52h-325v52q0 22 28 39l24 13q23 17 41.5 49t31.5 84l10 36l282 936l-24 81l-5 23l-1 23
q0 7 21 30q25 26 32 35l41 44q5 7 14 18t19 22q24 34 36 34q2 -1 4 -3l399 -1244l11 -39q24 -98 73 -129l22 -12q35 -19 35 -40v-52zM604 499l-155 510l-146 -510h301z" />
    <glyph glyph-name="B" unicode="B" horiz-adv-x="1074" 
d="M1013 393q0 -86 -29 -154q-13 -33 -33.5 -62.5t-49.5 -59.5q-71 -60 -162 -86t-296 -26h-355v44q0 33 29 52l16 10q9 6 13 10q17 16 24 48q3 15 5 42t2 68l4 951q0 41 -2.5 63t-8.5 45q-6 38 -24 53l-22 19q-30 22 -30 51l1 40h292q152 0 257 -20t172 -65
q133 -87 133 -278q0 -128 -70 -217q-34 -45 -89.5 -82t-141.5 -68q102 -29 169 -64.5t110 -81.5t64.5 -103t21.5 -129zM701 1103q0 72 -15 125t-49 91q-56 72 -181 72q-10 2 -18 -1q-14 0 -24 -3v-572h27q4 0 16 -2t17 -2q61 0 103 17.5t70 52.5q26 36 40 91t14 131z
M751 409q0 142 -71.5 217.5t-213.5 75.5q-6 2 -11 2q-3 0 -11 -3q-19 0 -30 -3v-579q16 1 22 1q7 0 11 -1q2 0 15 -2t23 -2q137 0 201.5 71.5t64.5 222.5z" />
    <glyph glyph-name="C" unicode="C" horiz-adv-x="986" 
d="M971 261q-77 -146 -171 -211q-98 -70 -230 -70q-226 0 -369 204q-71 100 -106 235.5t-35 305.5q0 182 35.5 324.5t110.5 257.5q145 219 364 219q42 0 77.5 -7.5t71.5 -26.5q79 -40 87 -40q5 0 13.5 4.5t18.5 10.5q16 9 33 11l44 -1v-360h-44q-22 0 -36 14.5t-25 45.5
l-12 42q-32 100 -85.5 147.5t-130.5 47.5q-70 0 -118.5 -37.5t-79.5 -116.5q-62 -158 -62 -471q0 -160 18.5 -283.5t54.5 -210.5q76 -170 225 -170q85 0 151 48q59 49 108 145z" />
    <glyph glyph-name="D" unicode="D" horiz-adv-x="1153" 
d="M1092 754q0 -380 -164.5 -564.5t-501.5 -184.5h-338v44q0 33 29 52l29 20q17 16 24 48q3 15 5 42t2 68l4 951q0 41 -2.5 63t-8.5 45q-6 38 -24 53l-22 19q-30 22 -30 51l1 40h312q102 0 151 -2.5t93 -13.5q85 -18 153 -64q140 -86 214 -253t74 -414zM833 754
q0 178 -18.5 304t-54.5 192q-70 139 -252 139h-94v-1270l94 -2q178 0 252 142q36 68 54.5 192t18.5 303z" />
    <glyph glyph-name="E" unicode="E" horiz-adv-x="997" 
d="M938 5h-850v44q0 33 29 52l16 10q9 6 13 10q17 16 24 49.5t7 107.5l4 952q0 40 -2.5 62t-8.5 45q-6 38 -24 53l-22 19q-30 22 -30 51l1 40h529q32 0 79 4.5l68 6.5q47 5 64 7.5t40 8.5v-324h-54q-39 0 -58 51q-11 38 -28 63q-31 41 -68 56q-33 15 -143 15h-108v-557
l73 -2q58 0 87 18q28 13 50 56l8 23q12 31 47 31h38v-370h-38q-32 0 -46 35q-3 14 -9.5 28.5t-18.5 27.5t-30 24q-26 14 -88 14h-73v-597l106 -2q57 0 102.5 6.5t72.5 16t49.5 27.5t42.5 42q20 28 38 98q15 52 38 52h73v-354z" />
    <glyph glyph-name="F" unicode="F" horiz-adv-x="927" 
d="M907 1180h-55q-37 0 -56 54q-14 47 -31 73.5t-31 41.5t-31 23q-40 16 -121 16h-26h-140v-558l106 -2q28 0 49 5t37 14q31 15 48 55l8 22q13 37 50 37l36 -1v-373h-36q-36 0 -50 37q-4 16 -8 23q-7 19 -18.5 31.5t-28.5 23.5q-26 14 -87 14h-106v-438q0 -77 6 -109.5
t26 -49.5l24 -18q18 -11 28 -24t10 -28v-44h-422v44q0 33 29 52l16 10q9 6 13 10q17 16 24 49.5t7 107.5l4 952q0 40 -2.5 62t-8.5 45q-6 38 -24 53l-22 19q-30 22 -30 51l1 40h529q24 0 80 5.5t71 5.5q32 3 54.5 5.5t77.5 10.5v-347z" />
    <glyph glyph-name="G" unicode="G" horiz-adv-x="1103" 
d="M1051 80q-115 -51 -212 -75q-50 -11 -106.5 -18t-106.5 -7q-261 0 -415.5 183.5t-154.5 504.5q0 116 14.5 215.5t47.5 189.5t81 170t110 146q38 37 71 61.5t73 42.5q70 35 155 35q40 0 77.5 -9t73.5 -29l64 -31l23 -10q5 0 13 5q13 8 19 11q13 11 31 11l46 -1v-360h-46
q-21 0 -35.5 14.5t-23.5 44.5l-13 44q-16 52 -36.5 88t-48.5 60q-54 46 -136 46q-145 0 -224 -195q-37 -102 -55.5 -241.5t-18.5 -328.5q0 -139 17 -245t49 -173q66 -136 214 -136q104 0 151 62q21 30 35 97.5t14 136.5q0 36 -6 78t-14 56q-7 17 -22 31t-38 27l-32 13
q-20 8 -22 12q-6 11 -8 32l1 40h350l-18 -85q-5 -47 -5 -80v-211q0 -56 7 -92.5t27 -53.5q8 -8 20.5 -14t12.5 -21v-41z" />
    <glyph glyph-name="H" unicode="H" horiz-adv-x="1232" 
d="M1147 5h-421v44q0 16 7.5 29t24.5 23l27 19q18 15 25 49q4 18 7 53.5t3 56.5l-2 437h-404v-437q0 -78 6 -110.5t26 -49.5l24 -18q18 -11 28 -24t10 -28v-44h-420v44q0 33 29 52l29 20q17 16 24 48q3 15 5 42t2 68l4 951q0 41 -2.5 63t-8.5 45q-6 39 -24 54q-5 2 -9 6
q-8 8 -13 12q-30 22 -30 51l1 40h403v-40q0 -16 -7.5 -27t-25.5 -24l-19 -19q-17 -14 -24.5 -48t-7.5 -113v-383h404l2 383q0 41 -2.5 63t-8.5 45q-6 38 -24 53l-20 19q-15 12 -23.5 24t-8.5 27l1 40h402v-40q0 -19 -11 -33q-7 -8 -18 -18l-23 -19q-16 -13 -23.5 -47.5
t-7.5 -113.5v-951q0 -78 6 -111t25 -49l27 -18q18 -12 27 -24t9 -28v-44z" />
    <glyph glyph-name="I" unicode="I" horiz-adv-x="614" 
d="M524 5h-432v44q0 16 7.5 28.5t24.5 23.5q12 6 17 10t11 10q11 9 16.5 18.5t9.5 27t6 43t2 69.5l4 951q0 37 -2.5 58.5t-9.5 46.5q-6 40 -28 56l-19 19q-33 21 -33 51l1 40h415v-40q0 -29 -34 -51q-7 -4 -11.5 -9.5t-8.5 -9.5q-18 -14 -26 -47t-8 -114v-951q0 -81 7 -110
q3 -17 9 -29t18 -21q5 -4 14 -9.5l14 -8.5q36 -22 36 -52v-44z" />
    <glyph glyph-name="J" unicode="J" horiz-adv-x="787" 
d="M696 1461q0 -15 -7.5 -27t-23.5 -24l-21 -19q-17 -13 -24.5 -47.5t-7.5 -112.5v-1120q0 -236 -91 -352t-270 -116q-127 0 -201 55q-36 26 -52.5 61.5t-16.5 81.5q0 34 6 55.5t24 43.5q35 38 87 38q32 0 51 -6.5t40 -24.5q34 -32 34 -83l-3 -28l-3 -29q0 -12 3.5 -21.5
t12.5 -16.5q14 -14 44 -14q52 0 76 53q9 26 15.5 74.5t6.5 107.5v1241q0 41 -2.5 63.5t-9.5 44.5q-6 38 -29 54l-23 17q-34 23 -34 51l1 40h418v-40z" />
    <glyph glyph-name="K" unicode="K" horiz-adv-x="1107" 
d="M1154 5h-482v52q0 29 29 47q46 28 46 57q0 5 -2 9l-10 21q-2 9 -5 15t-10 17l-303 515l-17 -4v-455q0 -78 6 -110t24 -49l26 -19q18 -12 27 -24t9 -28v-44h-404v44q0 33 29 52l29 20q17 16 24 48q3 15 5 42t2 68l4 951q0 41 -2.5 63t-8.5 45q-6 39 -24 54q-5 2 -9 6
q-8 8 -13 12q-30 22 -30 51l1 40h385v-40q0 -19 -11 -33q-7 -8 -18 -18l-21 -19q-16 -14 -23 -48t-7 -113l2 -360l316 434l14 28q1 4 2.5 11.5t2.5 14.5q0 12 -8.5 24.5t-29.5 25.5q-31 18 -31 44l1 49h390v-44q0 -25 -9 -36q-4 -4 -10 -7t-41 -17q-21 -4 -37.5 -11.5
t-34.5 -18.5q-26 -23 -64 -71l-284 -377l378 -650l11 -20q24 -43 58.5 -77t82.5 -63l3 -3q42 -26 42 -57v-44z" />
    <glyph glyph-name="L" unicode="L" horiz-adv-x="953" 
d="M919 5h-831v44q0 33 29 52l16 10q9 6 13 10q17 16 24 48q3 15 5 42t2 68l4 951q0 41 -2.5 63t-8.5 45q-6 38 -24 53l-22 19q-30 22 -30 51l1 40h404v-40q0 -28 -32 -51l-19 -19q-17 -14 -24.5 -48t-7.5 -113v-1110l88 -2q63 0 104.5 5.5t70 15.5t50 27t41.5 43
q10 15 20.5 41.5t18 53.5t12.5 36q12 24 27 24l71 -1v-358z" />
    <glyph glyph-name="M" unicode="M" horiz-adv-x="1419" 
d="M1329 5h-396v44q0 17 6.5 29t23.5 23l27 20q11 9 16.5 18.5t9 27t5.5 44.5t2 68l3 1045l-22 2l-319 -1321h-55l-315 1321l-18 -2v-1045q0 -75 7 -107q6 -35 27 -52l24 -19q18 -12 27 -24t9 -28v-44h-307v44q0 33 29 52l14.5 10t12.5 10q11 9 16.5 18.5t9 27t5.5 44.5
t2 68l4 951q0 41 -2.5 63t-8.5 45q-6 38 -26 53l-20 19q-30 22 -30 51l1 40h394l208 -924h18l218 924h389v-40q0 -27 -30 -51l-20 -19q-20 -16 -28 -54.5t-8 -106.5v-951q0 -78 5.5 -109.5t28.5 -48.5q6 -6 12 -10.5t15 -9.5q36 -22 36 -52v-44z" />
    <glyph glyph-name="N" unicode="N" horiz-adv-x="1140" 
d="M1053 1461q0 -16 -7.5 -27t-24.5 -24l-21 -20q-19 -13 -26 -47t-7 -113v-1225h-115l-530 1144l-17 -4v-866q0 -78 6 -111t26 -49l24 -18q38 -23 38 -52v-44h-309v44q0 33 29 52l16.5 10.5t12.5 9.5q17 16 24 48q3 15 5 42t2 68l5 951q0 39 -3.5 64.5t-9.5 45.5
q-7 35 -29 52q-4 3 -15 9.5l-18 10.5q-14 9 -24 22.5t-10 26.5l1 40h328l421 -905l21 5l2 629q0 32 -3 56.5t-9 48.5q-6 39 -26 56l-20 19q-30 22 -30 51l1 40h292v-40z" />
    <glyph glyph-name="O" unicode="O" horiz-adv-x="1140" 
d="M1082 754q0 -356 -141 -565t-373 -209q-228 0 -369 208q-70 106 -103.5 245.5t-33.5 320.5q0 185 32.5 323t104.5 246q69 103 161.5 153t207.5 50q117 0 209 -49.5t162 -154.5q143 -209 143 -568zM820 754q0 182 -15.5 312.5t-42.5 204.5q-55 143 -194 143
q-136 0 -192 -145q-26 -73 -40 -201.5t-14 -313.5q0 -183 14 -311.5t40 -201.5q56 -148 192 -148q137 0 194 148q27 74 42.5 203.5t15.5 309.5z" />
    <glyph glyph-name="P" unicode="P" horiz-adv-x="1005" 
d="M969 1107q0 -195 -125 -304t-359 -109h-37l-34 3v-418q0 -81 7 -110q5 -32 27 -50l24 -18q36 -23 36 -52v-44h-420v44q0 33 29 52l16 10q9 6 13 10q17 16 24 48q3 15 5 42t2 68l4 951q0 41 -2.5 63t-8.5 45q-6 38 -24 53l-22 19q-30 22 -30 51l1 40h342q56 0 108.5 -0.5
t86.5 -5.5q65 -9 112 -31q102 -46 161 -141q64 -100 64 -216zM713 1103q0 73 -15 126.5t-49 92.5q-63 73 -191 73q-15 0 -18 -1q-15 0 -26 -3v-580h29q2 0 12 -2t19 -2q123 0 183 72q56 75 56 224z" />
    <glyph glyph-name="Q" unicode="Q" horiz-adv-x="1140" 
d="M1118 -193q-46 -37 -98 -58t-117 -21q-30 0 -59 4t-50 13q-47 17 -116 66q-13 10 -32.5 26.5t-54.5 50.5q-58 58 -109 86l-60 32q-70 38 -113 69q-48 35 -76 71q-42 51 -73.5 114t-57.5 144q-22 77 -31 162t-9 190q0 184 32.5 321.5t104.5 245.5q69 103 161.5 153
t207.5 50q118 0 209 -49.5t160 -153.5q145 -211 145 -567q0 -299 -104 -498q-50 -98 -122.5 -162.5t-168.5 -100.5v-17q79 -13 189 -69q63 -27 106 -40t73 -13q15 0 23 2l31 4zM818 756q0 182 -14.5 312t-41.5 205q-55 141 -194 141q-136 0 -191 -145t-55 -513t55 -514.5
t191 -146.5t194 147q27 73 41.5 202t14.5 312z" />
    <glyph glyph-name="R" unicode="R" horiz-adv-x="1078" 
d="M1103 5h-299l-259 599q0 7 -5 14q-41 88 -118 88h-16v-427q0 -75 7 -107q6 -36 26 -52l25 -19q38 -23 38 -52v-44h-414v44q0 33 29 52l29 20q17 16 24 48q3 15 5 42t2 68l4 951q0 41 -2.5 63t-8.5 45q-6 39 -24 54q-5 2 -9 6q-8 8 -13 12q-30 22 -30 51l1 40h329
q68 0 131 -0.5t98 -6.5q68 -10 118 -36q96 -52 148 -139.5t52 -209.5q0 -144 -76.5 -233t-241.5 -136v-16q63 -16 110 -63q42 -44 90 -154l104 -247q1 -7 3 -9q22 -55 41 -87t35 -45q3 -2 7 -3q11 -5 19 -10q41 -25 41 -57v-44zM715 1103q0 69 -17.5 125t-50.5 95
q-60 72 -196 72q-11 2 -18 -1q-17 0 -27 -3v-580h28q2 0 13 -2t19 -2q129 0 187 72q31 37 46.5 92t15.5 132z" />
    <glyph glyph-name="S" unicode="S" horiz-adv-x="938" 
d="M873 429q0 -189 -112 -319q-55 -64 -121.5 -97t-144.5 -33q-69 0 -155 27q-32 13 -52 19q-29 9 -41 9q-26 0 -58 -23q-15 -12 -21.5 -16.5t-10.5 -4.5h-47v447h36q50 0 66 -62q8 -36 9 -41q5 -19 12 -34q43 -107 98 -156q28 -25 64.5 -38.5t80.5 -13.5q90 0 142 64.5
t52 179.5q0 94 -45 161q-40 70 -162 164l-58 43q-144 104 -211 180q-45 54 -70 121q-10 31 -16 65.5t-6 70.5q0 164 101 276q98 108 250 108q30 0 49.5 -2.5t51.5 -12.5q28 -12 47 -17.5t27 -5.5q10 0 26 7t24 10q20 12 31 13l41 -1v-364h-36q-39 0 -59 58q-4 16 -7.5 27
t-7.5 20q-29 79 -74.5 117.5t-107.5 38.5q-76 0 -114 -47q-43 -46 -43 -129q0 -73 39 -131q18 -30 58 -67q35 -32 102 -84q19 -18 62 -49q69 -50 119.5 -93t85.5 -79q27 -30 45.5 -60t33.5 -70q27 -80 27 -176z" />
    <glyph glyph-name="T" unicode="T" horiz-adv-x="986" 
d="M953 1203h-55q-33 0 -56 58l-15 39q-9 22 -24 39q-11 13 -31 29q-31 20 -87 20h-75v-1110q0 -77 6 -110t26 -49l25 -18q19 -12 29 -24.5t10 -27.5v-44h-425v44q0 32 32 52l28 19q8 8 14.5 20.5t10 30t5.5 44t2 63.5l2 1110h-76q-56 0 -87 -20q-17 -12 -31 -28t-24 -40
l-16 -40q-21 -57 -55 -57h-50v321l73 -13q37 -6 58 -8.5t34 -2.5h582q17 0 42.5 3.5t47 7l40 6.5t40.5 10v-324z" />
    <glyph glyph-name="U" unicode="U" horiz-adv-x="1174" 
d="M1092 1461q0 -15 -7.5 -27t-23.5 -24l-22 -20q-18 -13 -25 -47t-7 -113v-723q0 -268 -107.5 -397.5t-327.5 -129.5q-108 0 -189 36.5t-132 108.5q-42 54 -61 134q-9 34 -12 97.5t-3 160.5v713q0 41 -2.5 63t-8.5 45q-3 21 -8.5 32.5t-16.5 19.5l-22 20q-27 19 -27 51v40
h402v-40q0 -28 -33 -51l-20 -19q-17 -14 -25 -53.5t-8 -107.5v-707q0 -229 46 -314q52 -86 176 -86q134 0 193 98q55 101 55 344l3 665q0 41 -2.5 63t-8.5 45q-6 38 -24 53l-20 19q-15 10 -23.5 23.5t-9.5 27.5l2 40h299v-40z" />
    <glyph glyph-name="V" unicode="V" horiz-adv-x="1011" 
d="M1030 1461q0 -19 -7 -30.5t-30 -25.5q-28 -13 -43 -30q-11 -18 -21 -55l-377 -1327h-93l-378 1325q0 6 -2 9q-8 31 -22 47.5t-41 30.5q-22 13 -28 22t-7.5 15t-1.5 19l1 40h424v-40q0 -30 -36 -54q-20 -13 -29 -28t-11 -32v-14t3 -20l8 -37l202 -811h16l226 812l7 34
l8 36q0 13 -11.5 28.5t-32.5 31.5q-30 19 -30 54v40h306v-40z" />
    <glyph glyph-name="W" unicode="W" horiz-adv-x="1401" 
d="M1397 1461q0 -20 -6.5 -31t-28.5 -25q-27 -15 -42 -33q-4 -6 -10.5 -22t-9.5 -30l-324 -1327h-76l-191 911h-16l-210 -911h-76l-271 1239q-9 40 -16 64.5t-17 43.5t-23 34q-8 9 -24 23l-19 11q-35 16 -35 53l1 40h401v-40q0 -30 -36 -54q-20 -13 -29 -28t-11 -32
q0 -17 3 -31l8 -40l158 -751h16l143 613l-39 159q-9 42 -26 69q-11 13 -21.5 22t-26.5 17q-21 12 -28 22q-5 11 -8 35l1 39h393v-40q0 -16 -9 -28.5t-28.5 -26t-29 -28.5t-9.5 -31q0 -12 0.5 -22.5t6.5 -27.5l3 -20l148 -752h17l161 751l4 29l2 32q0 21 -9.5 38t-32.5 33
q-31 21 -31 53v40h303v-40z" />
    <glyph glyph-name="X" unicode="X" horiz-adv-x="1040" 
d="M1057 5h-429v44q0 15 4.5 27t16.5 23q35 29 35 54q0 3 -3 11t-5 14.5t-3.5 13.5t-6.5 17l-179 381l-173 -361l-13 -30l-4 -32q0 -17 9.5 -34t29.5 -31q32 -22 32 -53v-44h-338v44v14q0 13 4 19t11 10q13 7 22 11q35 11 52 32q12 11 20 21.5t16 27.5l260 543l-277 585
q-33 74 -78 96q-21 12 -28 22q-2 4 -2 12v19v40h400v-40q0 -25 -28 -50.5t-28 -50.5q0 -14 13 -47l4 -8l148 -334l145 309l14 41l7 19t3 11q0 28 -44 57q-34 22 -34 53l1 40h320v-40q0 -19 -7 -32q-9 -9 -13 -12t-15 -9t-22.5 -13.5t-18.5 -15t-14 -21.5l-16 -32l-235 -493
l307 -634q19 -39 41 -60q21 -25 55 -36q27 -12 35.5 -22t8.5 -32v-44z" />
    <glyph glyph-name="Y" unicode="Y" horiz-adv-x="901" 
d="M917 1461q0 -28 -41 -58q-45 -36 -63 -79l-237 -585v-460q0 -78 5 -103.5t10 -36t17 -20.5l28 -18q35 -23 35 -52v-44h-420v44q0 16 7.5 29t24.5 23l26 20q17 15 25 48q3 15 5 42t2 68v435l-253 583l-6 15q-27 67 -74 96q-12 6 -17 11t-10.5 14t-7 14t-1.5 14l1 40h426
v-40q0 -29 -38 -57q-39 -33 -39 -74l3 -33q2 -12 4.5 -18.5t7.5 -16.5l175 -386l158 396l11 37q1 4 4 12t3 11q0 40 -44 75q-38 24 -38 54l1 40h310v-40z" />
    <glyph glyph-name="Z" unicode="Z" horiz-adv-x="885" 
d="M833 5h-797l-2 104l532 1278l-98 2q-99 0 -148 -17.5t-83 -60.5q-13 -22 -27 -60q-9 -26 -21.5 -40t-31.5 -14h-6h-47v328l67 -14q53 -5 124 -5l31 -1l507 -3v-63l-556 -1318l149 -3q54 0 94 6.5t79 20.5q55 22 101 89q13 20 28 67q19 53 53 53l52 -1v-348z" />
    <glyph glyph-name="bracketleft" unicode="[" horiz-adv-x="640" 
d="M608 -252h-405v1753h405v-72h-217v-1605l217 -2v-74z" />
    <glyph glyph-name="backslash" unicode="\" horiz-adv-x="441" 
d="M462 -189h-128l-316 1715h129z" />
    <glyph glyph-name="bracketright" unicode="]" horiz-adv-x="640" 
d="M437 -250h-405v70l214 2v1605h-214v74h405v-1751z" />
    <glyph glyph-name="asciicircum" unicode="^" horiz-adv-x="2089" 
d="M1659 920h-76l-541 419l-538 -419h-78l505 564h224z" />
    <glyph glyph-name="underscore" unicode="_" 
d="M1042 -467h-1038v164h1038v-164z" />
    <glyph glyph-name="grave" unicode="`" 
d="M715 1014h-64l-338 172q-34 19 -48 28q-21 14 -30 25q-20 20 -20 51q0 36 26 59q23 25 60 25q29 0 60.5 -19.5t77.5 -64.5z" />
    <glyph glyph-name="a" unicode="a" horiz-adv-x="783" 
d="M782 33q-14 -12 -28.5 -20.5t-35.5 -16.5q-35 -16 -76 -16q-53 0 -85 26q-17 11 -31.5 34t-34.5 68q-23 -36 -46.5 -58t-53.5 -40q-53 -28 -122 -28q-99 0 -159 66t-60 177q0 139 107 220q57 46 128 70q82 28 183 28l-4 85q0 53 -6.5 85.5t-19.5 50.5q-26 30 -82 30
l-26 -4l-14 -3.5t-14 -5.5q0 -16 2 -20.5t4 -10t2 -8.5q0 -61 -29 -96q-31 -33 -81 -33q-42 0 -70 31q-28 27 -28 73q0 71 72.5 121.5t187.5 50.5q153 0 229.5 -81t76.5 -245l2 -336q0 -137 72 -137l15 3zM476 314v129q-57 0 -96 -16t-73 -48q-54 -56 -54 -152
q-2 -14 -2 -20q0 -20 6 -37.5t17 -34.5q30 -38 77 -38q59 0 95 54q29 50 29 145z" />
    <glyph glyph-name="b" unicode="b" horiz-adv-x="817" 
d="M761 431q0 -207 -85.5 -325.5t-220.5 -118.5q-40 0 -68 4t-58 16q-52 21 -104 73l-97 -89l-34 12v1285q0 21 -2.5 39.5t-5.5 33.5q-3 27 -17 37q-3 3 -8 9.5t-9 9.5q-13 10 -20 19.5t-7 20.5l1 44h269l2 -711q25 25 49 41.5t46 25.5q19 10 41.5 15t48.5 5
q59 0 108.5 -30.5t88.5 -90.5q82 -128 82 -325zM531 429q0 155 -32 239q-35 81 -108 81q-24 0 -51 -12q-13 -6 -23.5 -13.5t-21.5 -19.5v-547l18 -20q12 -11 25 -18q30 -10 53 -10q37 0 63.5 19.5t44.5 60.5q15 42 23.5 103.5t8.5 136.5z" />
    <glyph glyph-name="c" unicode="c" horiz-adv-x="702" 
d="M690 125q-52 -64 -128.5 -104.5t-170.5 -40.5q-154 0 -246.5 113.5t-92.5 313.5q0 117 24.5 201.5t76.5 150t122 97t157 31.5q53 0 90 -9.5t68 -33.5q62 -47 62 -113q0 -51 -30 -86q-17 -17 -35 -24.5t-46 -7.5q-42 0 -71 30q-11 14 -16 34t-5 48l-2 28q1 9 1.5 16.5
t4.5 26.5l-15 1q-5 2 -10.5 2.5t-11.5 0.5q-72 0 -106 -87t-34 -247q0 -175 43 -260q23 -46 57.5 -69.5t82.5 -23.5q21 0 42 7t50 20q37 18 78 60z" />
    <glyph glyph-name="d" unicode="d" horiz-adv-x="851" 
d="M790 5l-267 -10l-3 71q-62 -50 -97.5 -65.5t-75.5 -15.5q-130 0 -210 119q-41 59 -60 137.5t-19 180.5q0 109 17.5 188t59.5 143q39 60 88.5 91.5t109.5 31.5q54 0 92 -19q24 -10 44 -24.5t51 -48.5l4 502q0 19 -2.5 36.5t-7.5 40t-19 35.5q-6 6 -10 8.5t-17 10t-18 12.5
q-13 12 -13 26l1 44l289 5v-1287v-35t4 -34q3 -26 13 -41q5 -2 10.5 -7.5t9.5 -8.5q13 -10 19.5 -20t6.5 -22v-44zM520 163v541q-21 21 -44.5 31.5t-47.5 10.5q-73 0 -113 -79q-16 -41 -24 -98t-8 -139q0 -156 32 -236q39 -79 113 -79q22 0 46 10q10 4 22 15q7 6 24 23z" />
    <glyph glyph-name="e" unicode="e" horiz-adv-x="740" 
d="M690 449h-415v-15q0 -6 -2 -16v-29q0 -131 42 -202q22 -37 55 -57.5t76 -20.5q22 0 43.5 9t46.5 26q37 24 82 83l68 -56q-27 -45 -58.5 -79.5t-69.5 -58.5q-75 -53 -162 -53q-161 0 -252.5 119t-91.5 338q0 109 21 188.5t67.5 141t107.5 91t138 29.5q70 0 123.5 -26.5
t95.5 -86.5q85 -115 85 -314v-11zM489 549q0 76 -5 119.5t-17 77.5q-22 54 -81 54q-56 0 -81 -51q-14 -28 -23 -78.5t-9 -121.5h216z" />
    <glyph glyph-name="f" unicode="f" horiz-adv-x="512" 
d="M592 1372q0 -40 -25 -67q-13 -12 -29.5 -18.5t-38.5 -6.5q-34 0 -58 24q-22 24 -22 62l2 13q0 4 0.5 11t5.5 24q-58 0 -73 -57q-15 -45 -15 -144v-353l191 -2v-98h-191v-543v-36.5t3.5 -32.5t7 -26t11.5 -15q4 -3 12 -9.5t18 -11.5q15 -10 22 -18t7 -19v-44h-352v44
q0 25 26 43l16 15q7 11 9.5 17t5.5 21l5 72l2 543h-90v59q0 14 6.5 26.5t20.5 20.5q7 3 25 14q20 16 28 37q5 14 9.5 31.5t6.5 40.5q0 124 28 226q24 87 70 161q78 128 209 128q63 0 105 -38t42 -94z" />
    <glyph glyph-name="g" unicode="g" horiz-adv-x="769" 
d="M798 808q0 -28 -21 -51q-11 -11 -22 -16.5t-26 -5.5q-11 0 -20.5 4t-25.5 20q-11 15 -25 24q-2 1 -6 4q-14 0 -21 -6.5t-10 -21.5q8 -12 17.5 -34t23.5 -62q13 -57 13 -121q0 -121 -82 -201q-42 -39 -93 -59.5t-115 -20.5q-18 0 -35.5 3.5t-29.5 7.5t-27 12l-64 -137h23
q7 0 10 1h59q12 -1 24 -1q92 0 157.5 -14.5t112.5 -48.5q97 -64 97 -176q0 -125 -95 -195.5t-266 -70.5q-130 0 -210 43q-71 36 -71 108q0 24 5.5 39.5t20.5 30.5t32 22t41 7q43 0 68.5 -26.5t25.5 -68.5l-1 -19q-3 -11 -3 -26q16 -4 33.5 -9.5t25.5 -6.5q28 -5 60 -5
q80 0 125.5 28.5t45.5 83.5q0 66 -80 98q-73 25 -235 25q-14 0 -43.5 -1t-43.5 -1l-48 -2q-28 0 -38.5 5.5t-12.5 16.5q0 10 10 26l4 9l145 302q-32 19 -53.5 45t-38.5 62q-31 59 -31 146q0 68 20.5 125t61.5 102q79 86 206 86q39 0 65.5 -3.5t50.5 -13t49 -26.5t52 -41
q21 26 42 45q16 14 30 23.5t28 12.5t29 3q20 0 33 -4.5t24 -15.5q23 -21 23 -59zM478 574q0 65 -5 105t-16 70q-21 51 -74 51q-56 0 -78 -51q-18 -51 -18 -175q0 -118 18 -171q22 -54 78 -54q53 0 74 52q10 27 15.5 69.5t5.5 103.5z" />
    <glyph glyph-name="h" unicode="h" horiz-adv-x="863" 
d="M805 5h-331v44q0 14 4.5 23.5t18.5 19.5l17 15q10 15 15 40.5t5 69.5l4 378q0 40 -5.5 71.5t-15.5 45.5q-19 32 -74 32q-30 0 -65 -18q-23 -19 -47 -56v-453v-35t4 -34q3 -27 12 -40l19 -18q29 -20 29 -41v-44h-331v44q0 14 4.5 23t17.5 20l16 14q12 10 17 39l4 72
l4 1069q0 21 -2.5 39.5t-5.5 33.5q-3 27 -16 37l-16 17q-15 14 -21 22t-6 20l1 44l270 5l2 -737q22 25 46 46q28 24 63 44q43 23 99 23q101 0 150 -65q24 -30 36.5 -81t12.5 -121v-396v-35t4 -34q3 -27 15 -42l18 -14q28 -20 28 -43v-44z" />
    <glyph glyph-name="i" unicode="i" horiz-adv-x="470" 
d="M361 1322q0 -53 -42 -94q-22 -20 -44.5 -30.5t-51.5 -10.5q-26 0 -50 10.5t-48 31.5q-21 22 -31 43.5t-10 49.5q0 51 40 94q21 19 46 29.5t53 10.5q55 0 96.5 -39t41.5 -95zM409 5h-339v44q0 13 5.5 23.5t20.5 19.5l16 15q7 11 9.5 17t5 18.5t4.5 32.5t2 42l5 433
q0 19 -3 36t-8 34q-3 20 -15 39l-16 15q-30 21 -30 43l1 45l278 4v-649v-35t4 -34q3 -27 13 -42l19 -14q28 -20 28 -43v-44z" />
    <glyph glyph-name="j" unicode="j" horiz-adv-x="435" 
d="M359 1324q0 -53 -41 -93.5t-96 -40.5q-53 0 -96 41q-38 37 -38 93q0 28 8.5 50.5t28.5 42.5q38 37 97 37q30 0 52.5 -8t42.5 -28q42 -38 42 -94zM343 94q0 -216 -85.5 -334t-236.5 -118q-73 0 -117 37q-22 17 -32 41.5t-10 54.5q0 24 4.5 39.5t17.5 28.5q24 21 70 21
q21 0 36 -4.5t26 -15.5q24 -26 24 -65l-1 -18v-26q56 0 75 49q8 24 13 63.5t5 93.5l4 711q0 23 -2.5 40.5t-7.5 31.5q-4 28 -23 41l-31 17q-19 10 -28.5 18.5t-9.5 19.5l1 44l308 4v-774z" />
    <glyph glyph-name="k" unicode="k" horiz-adv-x="873" 
d="M879 5h-370v46q0 11 4 17t17 15q36 22 36 42l-7 17l-10 23l-133 277l-85 -100v-125v-35t4 -34q3 -27 12 -40l19 -17q27 -22 27 -42v-44h-329v44q0 14 4.5 23t17.5 20l16 14q6 7 10.5 16t6.5 23l4 72l4 1069q0 21 -2.5 39.5t-5.5 33.5q-3 27 -16 37l-16 17q-15 14 -21 22
t-6 20l1 44l270 5l2 -1037l187 212q19 18 26 31q2 3 4 14t3 16q0 10 -8 20t-29 20t-23 27l1 51h337v-35q0 -9 -2.5 -14t-9.5 -13q-5 -10 -24 -17l-17 -4q-75 -16 -116 -65l-106 -125l213 -412q11 -23 29.5 -44.5t41.5 -37.5q39 -27 39 -42v-44z" />
    <glyph glyph-name="l" unicode="l" horiz-adv-x="462" 
d="M403 5h-339v44q0 14 4.5 23t19.5 20l16 14q11 12 15 39l4 72l5 1069q0 23 -3 43q-5 23 -7 38.5t-13 28.5l-16 17q-17 13 -23 21t-6 21l1 44l278 5v-1287v-35t4 -34q3 -27 12 -40l19 -18q29 -20 29 -41v-44z" />
    <glyph glyph-name="m" unicode="m" horiz-adv-x="1262" 
d="M1204 5h-317v44q0 15 4.5 24t17.5 19l16 15q11 8 13.5 29t3.5 37t1 45l5 379q0 40 -6.5 71.5t-16.5 47.5q-21 34 -79 34q-33 0 -62 -19q-13 -10 -25 -24t-26 -34v-455q0 -21 1 -39.5t4 -30.5q3 -27 13 -42l18 -14q13 -11 19 -20.5t6 -22.5v-44h-316v44q0 27 23 42l17 16
q11 13 13.5 31.5t3.5 34.5t1 45l5 379q0 40 -6.5 71.5t-16.5 47.5q-21 34 -77 34q-35 0 -64 -19q-13 -10 -25 -24t-26 -34v-455q0 -21 1 -39.5t4 -30.5q3 -27 12 -40l18 -17q14 -10 20 -19t6 -23v-44h-317v44q0 15 4.5 24t19.5 19l16 15q7 11 9.5 17t5.5 21l5 73l4 434
q0 22 -2 33.5l-6 35t-16 42.5l-16 14q-14 11 -21 21t-7 23l1 45l259 4l2 -109q32 36 63 61q24 20 52 36q46 26 91 26q70 0 118 -36q27 -19 44 -43.5t29 -68.5q27 42 56 71q23 23 53 43q28 16 55.5 25t55.5 9q100 0 144 -65q51 -65 51 -203v-398q0 -46 3.5 -65.5t6 -28.5
t8.5 -18l19 -15q27 -20 27 -42v-44z" />
    <glyph glyph-name="n" unicode="n" horiz-adv-x="871" 
d="M811 5h-331v44q0 12 5.5 23t19.5 19l17 16q11 13 14 38q5 22 5 73l4 379q0 44 -6 73.5t-16 44.5q-19 33 -74 33q-16 0 -31.5 -4.5t-30 -14t-25.5 -22t-25 -34.5v-455q0 -20 0.5 -35.5t3.5 -38.5t13 -38l18 -14q29 -18 29 -43v-44h-331v44q0 15 4.5 24t19.5 19l16 14
q6 7 10.5 16.5t8 27.5t3.5 68l4 434q0 20 -2.5 39t-6.5 32q-1 11 -5.5 21.5t-11.5 18.5l-16 14q-14 11 -21 21t-7 23l1 45l270 4l2 -109q26 37 56 63q23 20 50 35q47 25 105 25q98 0 147 -64.5t49 -203.5v-398q0 -46 4 -69q3 -28 15 -43l19 -15q27 -19 27 -42v-44z" />
    <glyph glyph-name="o" unicode="o" horiz-adv-x="769" 
d="M719 437q0 -213 -91.5 -335t-244.5 -122q-150 0 -242 123q-47 62 -68 143t-21 191q0 109 20.5 188.5t67 141.5t107 91t136.5 29q77 0 136.5 -28.5t105.5 -90.5q94 -122 94 -331zM492 437q0 230 -22 293q-10 37 -31 53.5t-56 16.5q-33 0 -54 -17.5t-33 -58.5
q-20 -72 -20 -287q0 -227 21 -297.5t86 -70.5t87 76q10 32 16 104t6 188z" />
    <glyph glyph-name="p" unicode="p" horiz-adv-x="851" 
d="M794 436q0 -207 -83 -330q-79 -118 -212 -118q-33 0 -75 13q-22 8 -38 16q-22 11 -53 32l-2 -193q0 -43 3 -69.5t13 -42.5l18 -16q28 -19 28 -42v-44h-329v44q0 14 4.5 23.5t18.5 19.5l15 14q13 10 17 38.5t4 74.5l4 798q0 21 -2.5 40t-5.5 32q-3 26 -17 39l-15 13
q-27 22 -27 46l1 44l259 4l2 -89q26 29 54 50q23 17 44.5 27.5t43.5 14t52 3.5q122 0 197 -118q81 -125 81 -324zM568 436q0 76 -9 134.5t-26 99.5q-32 82 -109 82q-22 0 -51 -10q-12 -6 -21.5 -13t-20.5 -19v-543l20 -21q13 -12 22 -17l25.5 -9.5t25.5 -4.5q72 0 109 83
q17 43 26 100.5t9 137.5z" />
    <glyph glyph-name="q" unicode="q" horiz-adv-x="817" 
d="M785 -358h-330v44q0 14 4.5 23t17.5 19l17 15q7 7 11.5 16t7.5 30t3 67l1 194q-31 -19 -57 -32q-20 -10 -39 -17q-42 -13 -74 -13q-66 0 -118.5 29.5t-95 87.5t-62 136t-19.5 178q0 110 21 192t69 146q90 121 243 121q32 0 52.5 -2.5t44.5 -12t51 -24t63 -40.5l110 76
l15 -5v-1014q0 -43 3 -70.5t14 -42.5l21 -16q26 -21 26 -41v-44zM516 167v557q-23 20 -48 31q-24 9 -46 9q-72 0 -112 -82q-15 -43 -23 -101t-8 -139q0 -161 31 -242q20 -42 47 -63.5t65 -21.5q12 0 24 4l24.5 10.5t21.5 14.5t24 23z" />
    <glyph glyph-name="r" unicode="r" horiz-adv-x="648" 
d="M646 769q0 -52 -30 -84.5t-76 -32.5q-25 0 -44 11q-25 11 -59 44q-29 -36 -48 -72t-30 -79q-20 -85 -20 -208v-130q0 -21 1 -39t5 -40t15.5 -32.5t24.5 -16.5q31 -19 31 -41v-44h-346v44q0 15 4.5 24t19.5 19l18 15q7 11 9.5 17t6.5 25t4 69l4 434q0 20 -2.5 39t-6.5 32
q-3 21 -15 40l-18 15q-14 11 -21 21t-7 22l1 45l240 4v-186l19 -4q25 59 49.5 99t48.5 66q46 44 102 44q54 0 88 -32q15 -17 23.5 -38.5t8.5 -49.5z" />
    <glyph glyph-name="s" unicode="s" horiz-adv-x="618" 
d="M576 253q0 -116 -83 -194.5t-210 -78.5q-106 0 -174.5 54.5t-68.5 135.5q0 26 5.5 45t18.5 34q29 29 78 29q23 0 39.5 -5.5t29.5 -19.5q29 -27 29 -68q0 -13 -6 -34q-2 -11 -5.5 -20t-13.5 -26q27 -20 44 -27q10 -4 21.5 -7.5t20.5 -3.5q23 0 42 8t43 24q33 26 33 67
q0 70 -133 168l-3 3q-145 97 -185 158q-19 30 -29.5 63.5t-10.5 71.5q0 58 19 103.5t56 82.5q70 73 186 73q95 0 154 -50q64 -47 64 -112q0 -21 -7 -37.5t-19.5 -29.5t-30.5 -20.5t-39 -7.5q-16 0 -29.5 4t-31.5 19q-23 23 -23 60q0 12 3 24.5t7 20.5t12 21q-22 6 -30.5 9
t-16.5 7l-29 3q-41 0 -71 -24q-25 -24 -25 -65q0 -54 109 -134l35 -24q70 -47 114.5 -86.5t66.5 -72t33 -67t11 -74.5z" />
    <glyph glyph-name="t" unicode="t" horiz-adv-x="532" 
d="M530 58q-49 -34 -105 -56t-120 -22q-100 0 -140 59t-40 233l-2 489h-73v49q0 18 7.5 31t26.5 21t22 11q16 13 22 41q8 26 8 62l2 169q0 67 16.5 90.5t60.5 23.5l120 -2v-396l158 -2v-98h-158v-487q0 -90 17.5 -122.5t67.5 -32.5q18 0 39 7l34 13z" />
    <glyph glyph-name="u" unicode="u" horiz-adv-x="863" 
d="M805 5l-268 -4l-3 114q-29 -41 -58 -67q-21 -19 -50 -36q-47 -25 -105 -25q-98 0 -149 64q-23 30 -34 81t-11 123v397q0 20 -2.5 39t-5.5 33q-3 26 -17 39l-15 13q-27 22 -27 45l1 45l270 6v-600q0 -89 15 -118q10 -17 27 -27t43 -10q14 0 27.5 4t35.5 18q28 19 55 61
l4 452q0 19 -2.5 35.5t-6.5 33.5q-1 11 -4 21.5t-12 20.5l-15 13q-13 10 -18.5 20.5t-5.5 24.5v45l266 6v-653q0 -49 4 -70q3 -28 15 -43l18 -14q28 -19 28 -42v-45z" />
    <glyph glyph-name="v" unicode="v" horiz-adv-x="702" 
d="M719 823q0 -25 -34 -42q-9 -2 -12 -5q-32 -15 -50 -76l-3 -6l-235 -701h-72l-233 697q1 4 -3 9q-8 30 -20.5 47t-33.5 31l-12 6q-25 14 -25 40v41h365v-41q0 -11 -7 -20t-24 -23q-31 -27 -31 -53v-14q0 -6 2 -9l112 -356l116 359l3 4l2 16q0 12 -9 25.5t-27 29.5
q-13 9 -19 19.5t-6 21.5v41h256v-41z" />
    <glyph glyph-name="w" unicode="w" horiz-adv-x="1103" 
d="M1120 823q0 -25 -34 -42l-10 -5q-35 -15 -52 -76l-2 -6l-235 -701h-61l-176 520l-169 -520h-70l-231 697q1 4 -3 9q-8 32 -20 48t-35 30l-11 6q-25 14 -25 40v41h353v-41q0 -11 -6 -19.5t-23 -23.5q-34 -27 -34 -53v-14q0 -5 3 -9l116 -376l165 536h75l174 -516l112 358
l1 7q2 3 3 6t1 8q0 25 -36 55q-24 19 -24 41v41h254v-41z" />
    <glyph glyph-name="x" unicode="x" horiz-adv-x="706" 
d="M729 5h-352v45q0 12 3 20.5t15 17.5q30 27 30 48l-5 14q0 8 -3 13l-106 180l-106 -172l-8 -19l-3 -18q0 -19 31 -46q28 -18 28 -38v-45h-257v45q0 22 42 45q23 13 44.5 35t40.5 48l148 231l-163 283q-11 20 -28.5 41t-40.5 40q-39 32 -39 50v41h353v-41q0 -15 -26 -40.5
t-26 -45.5q-2 -7 2 -13q1 -9 4 -13l86 -144l75 134l7 20q1 4 4 11t3 10q0 14 -37 42q-14 10 -21 19t-7 20l1 41h261v-41q0 -21 -47 -48q-25 -13 -46 -34t-38 -47l-122 -193l190 -319q12 -23 29.5 -43.5t41.5 -39.5q42 -30 42 -49v-45z" />
    <glyph glyph-name="y" unicode="y" horiz-adv-x="710" 
d="M729 824q0 -22 -33 -42l-11 -6q-20 -11 -32 -25t-20 -43l-5 -13l-237 -690q-39 -111 -73 -182.5t-65 -110.5q-31 -35 -66 -52.5t-78 -17.5q-54 0 -92 30q-33 31 -33 77q0 44 27 77q32 32 71 32q27 0 50 -15t45 -54q9 8 18 15q14 13 20 25q11 16 21 50l54 168l-198 645
q2 4 -1 8q-8 29 -21.5 47t-31.5 29q-10 3 -12 5q-34 18 -34 43l1 40h369v-40q0 -11 -6.5 -20t-21.5 -23q-35 -29 -35 -54v-12q0 -6 2 -9l112 -358l115 360l1 7q2 3 3 6t1 6q0 24 -36 53q-27 24 -27 44l1 40h258v-40z" />
    <glyph glyph-name="z" unicode="z" horiz-adv-x="696" 
d="M646 5h-611l-1 84l350 683l-63 2q-76 0 -110 -14q-17 -6 -31 -20.5t-27 -37.5q-5 -10 -12 -40q-10 -35 -43 -35h-40v237h575v-37l-368 -720l58 -3q47 0 81.5 5.5t59.5 16t41.5 26t35.5 45.5q4 7 8.5 18t9.5 29q8 22 19 34t26 12l42 -1v-284z" />
    <glyph glyph-name="braceleft" unicode="{" 
d="M865 -244q-226 0 -309.5 74t-83.5 272v206q0 87 -16.5 144t-50.5 93q-58 63 -219 79v52q164 18 220 79q31 31 48.5 90.5t17.5 145.5v205q0 102 19.5 169t62.5 105q82 69 311 69v-34q-131 0 -182 -59q-52 -53 -52 -224v-140q0 -228 -60 -308q-52 -80 -215 -115v-18
q162 -35 215 -118q60 -78 60 -308v-140q0 -168 52 -223q24 -27 70 -42.5t112 -15.5v-38z" />
    <glyph glyph-name="bar" unicode="|" 
d="M612 -468h-176v2077h176v-2077z" />
    <glyph glyph-name="braceright" unicode="}" 
d="M863 624q-163 -15 -223 -78q-30 -30 -47 -90.5t-17 -147.5v-206q0 -193 -86 -269.5t-309 -76.5v38q65 0 109.5 15t68.5 43q53 52 53 223l2 140q0 121 12.5 194t43.5 114q55 82 217 118v18q-80 17 -134 44.5t-82 69.5q-30 38 -43 115t-13 194v140q0 87 -14 141t-43 83
q-23 28 -67.5 43.5t-109.5 15.5v34q227 0 311 -73t84 -270v-205q0 -86 16 -144t46.5 -90.5t85.5 -52t139 -29.5v-51z" />
    <glyph glyph-name="asciitilde" unicode="~" horiz-adv-x="1740" 
d="M1559 618q-50 -36 -102.5 -66t-97.5 -47q-93 -39 -185 -39q-34 0 -47.5 1t-45.5 8q-52 10 -102 30l-75 28q-226 81 -334 81q-86 0 -187 -41q-42 -19 -92.5 -49t-104.5 -68v172q48 35 99.5 63.5t98 47.5t94 27.5t94.5 8.5q41 0 68 -1.5t58 -7.5q57 -10 176 -52l39 -16
q177 -64 263 -64q87 0 191 40q48 21 90 46q52 30 102 69v-171z" />
    <glyph glyph-name="DEL" horiz-adv-x="61" 
 />
    <glyph glyph-name="c128" horiz-adv-x="1881" 
d="M1853 1014q0 -138 -81 -249q-54 -74 -187 -178q-157 -123 -208 -176l-52 -54l-110 -117q-72 -78 -101 -114q-59 -74 -82 -109q-31 -46 -106 -174q-64 119 -95 166q-11 17 -58 81q-85 117 -169 206q-80 85 -155 142q-184 139 -210 161q-100 86 -147 169q-55 98 -55 226
q0 205 151 341q137 124 308 124q155 0 258 -33q85 -27 132 -76q13 -12 44 -62q21 -33 42 -33q14 0 55 59q26 37 53 57q57 42 146.5 70.5t168.5 28.5q98 0 199 -49q113 -55 180 -150q79 -112 79 -257zM1723 1020q0 134 -99 226t-240 92q-97 0 -173 -39q-67 -35 -128 -106
q-48 -56 -106 -155l-10 -17l-10 17q-81 146 -154 209q-95 82 -228 82q-164 0 -277.5 -94.5t-113.5 -235.5q0 -106 48 -185q37 -62 124 -132l165 -126l96.5 -80.5t81.5 -73.5q40 -41 84 -96l59 -75q62 -76 89 -124q85 136 225 276q127 126 347 301q85 68 113 95q53 50 78 103
q29 60 29 138z" />
    <glyph glyph-name="c129" horiz-adv-x="3328" 
d="M3346 -332q0 -26 -24 -41.5t-54 -15.5q-24 0 -34 27q-3 8 -12 55q-16 65 -30.5 130t-22 143.5t-57.5 146.5q-36 49 -123 122q-151 127 -416 250l-189 85l-28 16.5t-31 4.5q-19 -2 -21 -25.5t-3 -47.5q-7 -66 -21 -137l-27 -139q-10 -70 -24 -137q-28 -131 -29 -137
q-5 -35 -9 -70q-8 -37 -40 -37q-35 0 -57 11q-30 15 -30 44q0 47 20 105q26 77 32 107l42 199t31.5 188.5t10.5 190.5q0 91 4 165t9 158.5t5 163.5l4 219q0 80 5 100q11 45 55 45q21 0 41.5 -16.5t20.5 -35.5q0 -53 -2 -91q-7 -132 -7 -143q0 -23 1 -50t4.5 -62.5
t46.5 -65.5q7 -5 52 -32l94 -62q88 -59 156 -97l364 -175h34l-28 719q0 42 11 69q15 36 48 36q21 0 38.5 -14.5t21.5 -39.5q0 -131 6.5 -269.5l13.5 -277t7 -270.5q0 -84 5 -150q1 -13 28 -244q12 -87 31 -191t32 -202l23 -152zM1832 1492q1 -4 1 -15q0 -21 -6 -55
q-15 -84 -15 -106q0 -26 -6.5 -118.5t-6.5 -160.5q-38 0 -61 93q-15 59 -31 82q-36 56 -72 72.5t-125 26.5q-53 6 -98 6q-79 0 -173 -19q-118 -24 -152.5 -27.5t-88.5 -10.5q-116 -15 -157 -15l-175 6q-43 0 -138 40q-79 34 -99 48q-19 0 -38 -42q-4 -8 -33 -88
q-3 -10 -29 -61q-12 -25 -18 -39q-10 -32 -27.5 -44.5t-59.5 -12.5q40 103 52 152q17 69 17 152l-3 179q20 -18 50 -36t40 -20q29 -13 70 -37q32 -19 71 -35q76 -32 133.5 -43.5t160.5 -11.5q125 0 239 15.5l227.5 31t237.5 15.5q34 0 112 -18q44 -10 71 -10q33 0 77 52
q32 37 53 54zM1942 403q0 -86 -26.5 -154.5t-71 -116t-112.5 -84.5q-59 -32 -91 -36q-38 -3 -58 -3h-27t-29 1h-10h-75q-95 0 -136 -7q-63 -11 -106 -45q-46 -39 -77 -81l-39 -62l-74 -20q0 15 11 38l12 23q16 24 29 48l23 44l28 54q18 30 45 60q18 22 78 43t116 21l186 -9
q87 0 164 58q106 80 106 229q0 117 -91 202t-210 85q-113 0 -223 -37l-160 -65l2 115l-6 104q26 -24 60 -34q24 -7 58 -7h17.5t16.5 1q143 0 211 45q79 52 79 177q0 62 -36.5 109.5t-84 55t-78.5 7.5q-54 0 -98 -16l-110 -46q-26 -5 -49.5 -7t-64.5 -2q0 14 4.5 31.5
l8.5 32.5q2 13 9 36q2 7 5 16q30 2 56 4q50 5 64 10q64 20 107.5 26.5t90.5 6.5q21 0 45.5 -0.5t51.5 -0.5q89 0 149 -77q57 -73 57 -172q0 -79 -24 -131l-52 -72q1 -8 24.5 -17.5t53.5 -20.5q69 -34 92 -51q30 -22 69 -69q30 -38 45 -66q45 -84 45 -174zM1136 1061l-28 -79
q-8 -22 -13.5 -91t-5.5 -190q0 -124 8 -304q2 -62 9 -165q0 -61 -9 -111t-26 -110q-7 -21 -15 -37q-4 -9 -36 -62q-16 -26 -32 -56q-22 -40 -38 -81q-18 -6 -32 -10l-92 -28l-5 21q79 72 132 163.5t53 166.5l17 267l-26 425q0 76 2.5 113.5t15.5 94.5q6 23 12.5 45.5
t8.5 22.5zM1033 1204q-10 -49 -38 -149q-21 -76 -26.5 -119.5t-6.5 -63.5t-1 -43q0 -6 5 -108q2 -41 2 -91q0 -52 8.5 -122t8.5 -109q3 -33 3 -60q0 -32 -4 -76q-9 -100 -9 -136q0 -167 -124 -293q-115 -117 -261 -131q-33 -6 -82 -9t-83 -3q-175 0 -285 112t-110 288
q0 52 38.5 128t38.5 154q0 29 -13.5 62l-20.5 50l15 23l29 -5q87 -49 115 -88q25 -34 25 -78q0 -56 -37 -111q-80 -118 -80 -189q0 -90 83.5 -160.5t191.5 -70.5q15 0 44 -1t43 -1q62 0 102 10q55 14 108 53q81 58 121 140q46 94 46 236q0 93 -7 187l-14 196t-7 183
q0 40 19 148q10 57 10 95q0 16 -2 16q-35 0 -81.5 1.5t-51.5 1.5q-65 0 -101 5.5t-86 28.5q-27 15 -39 20q-21 10 -42 10q-29 0 -51 -30q-61 -82 -88 -94l1 57q42 56 67 115q14 34 37 97q92 -55 163 -76t166 -21q73 0 119.5 3.5t141.5 17.5zM2816 726l-278 143
q-65 34 -110.5 65.5t-99.5 80.5l6 -4q1 -4 1 -16q0 -16 -2.5 -53.5t-2.5 -45.5v-25q0 -46 -1 -61.5t-8 -70.5q34 -13 50 -16t49 -3q49 0 192 3t204 3zM3114 263l-18 367q-28 0 -56.5 -0.5t-58.5 -0.5l-442 -1q145 -65 213 -100q96 -50 181 -111q91 -65 181 -154z" />
    <glyph glyph-name="quotesinglbase" unicode="&#x201a;" horiz-adv-x="435" 
d="M365 101q0 -83 -70 -193t-192 -239l-57 44q41 38 68.5 71t47.5 68.5t31.5 75t16.5 79.5q-37 5 -62.5 15t-43 26t-24.5 37.5t-7 52.5q0 35 7 58.5t26.5 44t43 31t53.5 10.5q40 0 67.5 -11.5t51.5 -37.5q43 -46 43 -132z" />
    <glyph glyph-name="florin" unicode="&#x192;" horiz-adv-x="871" 
d="M853 1389q0 -45 -29 -74q-26 -29 -74 -29q-38 0 -62 23t-24 57q0 11 4 26q1 6 3.5 16t12.5 30l-16 2q-61 0 -93 -78q-15 -44 -25 -108.5t-10 -148.5l-14 -233l220 -2l-11 -98h-211l-26 -476q0 -156 -29.5 -277t-81.5 -207q-91 -156 -257 -156q-79 0 -125.5 38.5
t-46.5 100.5q0 27 5.5 43.5t20.5 30.5q24 25 75 25q21 0 34.5 -3.5t24.5 -13.5q25 -23 25 -52q0 -18 -3 -30l-5.5 -21.5t-7.5 -20.5l7 -9q62 0 104 150q47 168 47 457l1 40l13 381h-198l13 98l195 2q0 159 33 292q29 116 81 205q44 78 108 116.5t148 38.5q44 0 73 -7.5
t54 -26.5q24 -21 35.5 -44.5t11.5 -56.5z" />
    <glyph glyph-name="quotedblbase" unicode="&#x201e;" horiz-adv-x="846" 
d="M775 101q0 -43 -16.5 -90t-51.5 -102.5t-81.5 -116t-103.5 -123.5l-55 44q38 38 66.5 73t46.5 70q19 31 31 70.5t17 80.5q-37 5 -61 15t-44 27q-16 16 -22 36.5t-6 52.5q0 34 7.5 58.5t24.5 44.5q20 21 42 31t51 10q69 0 112 -47t43 -134zM353 101q0 -41 -16.5 -90
t-50 -103.5t-79 -113t-106.5 -125.5l-55 44q72 71 113 142q18 32 29 71t16 81q-35 4 -60 15t-43 27q-30 30 -30 89q0 62 33 103q19 20 41.5 30.5t51.5 10.5q38 0 64.5 -11.5t50.5 -37.5q41 -47 41 -132z" />
    <glyph glyph-name="ellipsis" unicode="&#x2026;" horiz-adv-x="2089" 
d="M492 138q0 -60 -45 -102q-21 -21 -46.5 -32t-56.5 -11q-57 0 -101.5 44t-44.5 101q0 28 10.5 53t32.5 49q22 21 47.5 32.5t55.5 11.5q58 0 103 -42.5t45 -103.5zM1174 138q0 -60 -45 -102q-21 -21 -46.5 -32t-56.5 -11q-57 0 -101.5 44t-44.5 101q0 28 10.5 53t32.5 49
q22 21 47.5 32.5t55.5 11.5q58 0 103 -42.5t45 -103.5zM1858 138q0 -60 -45 -102q-21 -21 -46.5 -32t-56.5 -11q-57 0 -101.5 44t-44.5 101q0 28 10.5 53t32.5 49q22 21 47.5 32.5t55.5 11.5q58 0 103 -42.5t45 -103.5z" />
    <glyph glyph-name="dagger" unicode="&#x2020;" horiz-adv-x="901" 
d="M861 1033q0 -49 -26.5 -78t-72.5 -29q-47 0 -126 43q-40 20 -81 33.5t-79 19.5v-22q0 -50 7 -99t22 -94q12 -43 32 -87q17 -36 44 -80q-24 -93 -43.5 -194.5t-32.5 -212t-20 -222.5t-7 -244h-47q0 121 -8 232.5t-23 221.5t-35 215.5t-46 202.5q27 44 44 82t31 87
q27 90 27 192v24q-76 -12 -161 -55q-77 -43 -120 -43q-45 0 -74 30q-13 14 -19.5 33t-6.5 44q0 43 31 77q17 15 36 23.5t40 8.5q40 0 118 -39q41 -18 81 -29.5t79 -18.5l2 33q0 49 -13 101t-38 112q-21 49 -33 82.5t-12 43.5q0 44 32 74q14 13 36 19t50 6q30 0 50.5 -5.5
t36.5 -19.5q32 -30 32 -74q0 -10 -12 -42q-20 -49 -33 -84q-23 -57 -35 -110t-12 -103v-33q43 6 80 17t86 32q78 38 108 38q46 0 78.5 -30t32.5 -79z" />
    <glyph glyph-name="daggerdbl" unicode="&#x2021;" horiz-adv-x="901" 
d="M867 1033q0 -48 -26 -77q-14 -14 -31.5 -22t-40.5 -8q-48 0 -124 43q-39 20 -81 33.5t-78 19.5l-3 -21q0 -57 6.5 -102.5t21.5 -91.5q22 -80 73 -161q-23 -42 -41.5 -84t-31.5 -88q-28 -88 -28 -186v-21q38 6 77.5 18t84.5 33q35 20 66 29.5t53 9.5q25 0 41.5 -5.5
t30.5 -20.5q29 -29 29 -77q0 -45 -32 -79q-34 -31 -77 -31q-35 0 -112 40q-86 37 -158 52l-3 -35q0 -51 11 -103.5t35 -111.5q45 -105 45 -126q0 -45 -32.5 -74.5t-83.5 -29.5q-53 0 -88 29q-27 26 -27 75q0 18 40 126q47 115 47 215v35q-41 -7 -77.5 -18.5t-85.5 -33.5
q-74 -40 -106 -40q-23 0 -42.5 8t-37.5 23q-16 17 -23.5 35.5t-7.5 45.5q0 46 26 77q25 24 73 24q26 0 54.5 -8.5t68.5 -31.5q86 -40 159 -50l2 21q0 91 -32 189q-26 88 -75 169q46 71 74 161.5t28 194.5v22q-81 -12 -166 -55q-36 -21 -67.5 -32t-50.5 -11q-44 0 -73 30
q-27 30 -27 77q0 45 30 78q28 27 77 27q19 0 47.5 -7.5t65.5 -26.5q41 -17 83 -29t82 -19l2 32q0 95 -50 213q-44 105 -44 126q0 23 7.5 41t22.5 32t37.5 20t50.5 6q30 0 50.5 -5.5t36.5 -19.5q32 -30 32 -74q0 -10 -12 -42q-20 -49 -33 -84q-46 -114 -46 -213v-33
q42 7 82 18.5t85 30.5q78 38 106 38q46 0 78.5 -30t32.5 -79z" />
    <glyph glyph-name="circumflex" unicode="&#x2c6;" 
d="M823 1014h-63l-236 193l-239 -193h-64l226 343h151z" />
    <glyph glyph-name="perthousand" unicode="&#x2030;" horiz-adv-x="2022" 
d="M1985 380q0 -175 -80 -286.5t-196 -111.5q-118 0 -196 109.5t-78 288.5q0 91 18.5 160t58.5 125q76 112 197 112q118 0 197 -110.5t79 -286.5zM1325 380q0 -91 -19.5 -160t-61.5 -126q-79 -112 -195 -112q-120 0 -196 109.5t-76 288.5q0 92 18 161t59 124q75 112 195 112
q118 0 197 -109.5t79 -287.5zM1018 1478l-574 -1496h-103l576 1496h101zM586 1082q0 -88 -20.5 -159.5t-61.5 -127.5q-75 -113 -195 -113q-115 0 -196 114q-39 53 -57 124t-18 162t17.5 160t57.5 125q81 111 196 111q119 0 196 -111q40 -55 60.5 -125.5t20.5 -159.5z
M1815 442q0 58 -6.5 104t-18.5 77q-23 57 -81 57q-59 0 -83 -58q-21 -59 -21 -180v-127q0 -121 21 -180q23 -57 83 -57q57 0 81 56q11 31 17 74.5t6 106.5zM1157 315v127q0 62 -6.5 103t-19.5 79q-23 56 -80 56q-60 0 -84 -58q-10 -29 -16 -74.5t-6 -105.5v-127
q0 -121 22.5 -179t83.5 -58q57 0 80 56q11 30 18.5 76.5t7.5 104.5zM417 1018v128q0 61 -6.5 105t-18.5 77q-23 56 -83 56q-57 0 -80.5 -59t-23.5 -179v-128q0 -121 23.5 -179t80.5 -58q58 0 83 56q12 34 18.5 76.5t6.5 104.5z" />
    <glyph glyph-name="Scaron" unicode="&#x160;" horiz-adv-x="938" 
d="M873 429q0 -189 -112 -319q-55 -64 -121.5 -97t-144.5 -33q-69 0 -155 27q-32 13 -52 19q-29 9 -41 9q-26 0 -58 -23q-15 -12 -21.5 -16.5t-10.5 -4.5h-47v447h36q50 0 66 -62q8 -36 9 -41q5 -19 12 -34q43 -107 98 -156q28 -25 64.5 -38.5t80.5 -13.5q90 0 142 64.5
t52 179.5q0 94 -45 161q-40 70 -162 164l-58 43q-144 104 -211 180q-45 54 -70 121q-10 31 -16 65.5t-6 70.5q0 164 101 276q98 108 250 108q30 0 49.5 -2.5t51.5 -12.5q28 -12 47 -17.5t27 -5.5q10 0 26 7t24 10q20 12 31 13l41 -1v-364h-36q-39 0 -59 58q-4 16 -7.5 27
t-7.5 20q-29 79 -74.5 117.5t-107.5 38.5q-76 0 -114 -47q-43 -46 -43 -129q0 -73 39 -131q18 -30 58 -67q35 -32 102 -84q19 -18 62 -49q69 -50 119.5 -93t85.5 -79q27 -30 45.5 -60t33.5 -70q27 -80 27 -176zM771 1984l-228 -343h-143l-229 343l63 1l237 -188l237 188z
" />
    <glyph glyph-name="guilsinglleft" unicode="&#x2039;" horiz-adv-x="493" 
d="M420 112q-2 -5 -3 -6l-9 -3q-12 4 -127 119q-54 60 -111 112q-51 47 -118 101q121 95 232 214t124 119q4 0 9 -3l3 -8q0 -19 -8 -44.5t-28 -70.5t-43 -91.5t-60 -115.5q64 -121 104 -212q35 -74 35 -111z" />
    <glyph glyph-name="OE" unicode="&#x152;" horiz-adv-x="1567" 
d="M1507 5h-598q-23 0 -86 -4.5t-97 -4.5q-46 0 -102 -4.5t-58 -4.5q-232 0 -369 204q-69 101 -102 241t-33 322q0 184 32.5 324t101 241t161 150.5t209.5 49.5l154 -5q39 0 81 -4q105 -10 108 -10h285q31 0 77 4.5l67 6.5q57 6 107 16v-324h-54q-38 0 -58 53q-4 16 -9.5 29
t-17.5 32q-33 41 -67.5 56t-144.5 15h-106v-557l73 -2q58 0 87 18q30 14 48 55l9 22q13 37 49 37l37 -1v-373h-37q-35 0 -49 38q-3 12 -9 23q-7 17 -18.5 30.5t-27.5 23.5q-28 14 -89 14h-73v-597l104 -2q58 0 103 6.5t72.5 16t49 26.5t43.5 43q17 28 35 98q9 27 17.5 39.5
t22.5 12.5h72v-354zM758 325v859q0 56 -12.5 99t-35.5 75q-46 55 -144 55q-136 0 -192 -144q-26 -73 -39 -199.5t-13 -315.5q0 -366 54 -513.5t190 -147.5q96 0 143 58q23 29 36 73t13 101z" />
    <glyph glyph-name="c141" horiz-adv-x="1600" 
d="M1571 381l-113 -376h-508q52 101 94 213.5t71 221t46 221t17 216.5q0 146 -24 253t-72 183q-91 148 -280 148q-190 0 -282 -146t-92 -436q0 -213 61 -435q28 -112 68.5 -220.5t97.5 -218.5h-511l-112 376h46l54 -172h332v42q-81 66 -144 139t-107 153q-40 75 -59.5 159
t-19.5 175q0 142 45.5 256t141.5 206t215 136.5t266 44.5q148 0 266 -43.5t214 -136.5q191 -183 191 -463q0 -179 -84 -335q-43 -78 -105 -151t-144 -138v-44h328l57 172h46z" />
    <glyph glyph-name="c142" horiz-adv-x="1456" 
d="M1429 896l-48 -216h-355q-12 -64 -14 -82q-6 -42 -6 -80q0 -32 -2.5 -88t-2.5 -69v-152q0 -125 -32.5 -186.5t-97.5 -61.5q-41 0 -70 29q-24 27 -24 81q0 30 21 96q18 58 57 160q35 93 65 188q25 80 47 165h-413q-5 -27 -12 -79t-10 -77q0 -35 -3 -95t-3 -62q-1 -2 -2 -7
t3 -14l1 -135q0 -126 -34.5 -188t-96.5 -62q-42 0 -69 28q-12 14 -17.5 33t-5.5 47q0 53 77 257q34 89 65 188q28 89 46 166h-154q-4 1 -9 1.5t-11 -2.5l-14 -1q-115 0 -163.5 -39t-72.5 -138h-39q20 108 52.5 185.5t75.5 122.5q86 87 268 87h1003z" />
    <glyph glyph-name="c143" horiz-adv-x="1377" 
d="M1369 5h-1359l668 1515h33zM998 241l-408 962l-420 -962h828z" />
    <glyph glyph-name="c144" horiz-adv-x="1349" 
d="M1350 1613h-111l-614 -1650h-69l-329 901l-134 -50l-24 74l295 104l264 -718l537 1427h185v-88z" />
    <glyph glyph-name="quoteleft" unicode="&#x2018;" horiz-adv-x="435" 
d="M387 1482q-40 -39 -69.5 -74t-51.5 -72t-34.5 -72t-12.5 -72q38 -7 65 -18.5t47 -30.5q32 -32 32 -94q0 -58 -39 -97.5t-97 -39.5q-73 0 -117 47q-21 22 -32.5 53.5t-11.5 70.5q0 90 70 204q34 53 82.5 113t110.5 125z" />
    <glyph glyph-name="quoteright" unicode="&#x2019;" horiz-adv-x="435" 
d="M378 1346q0 -84 -71 -197q-36 -55 -83.5 -112t-108.5 -122l-57 43q42 39 69 72t48 70q39 69 48 152q-37 4 -62 13.5t-46 27.5q-16 16 -22.5 37t-6.5 53q0 35 7.5 60t24.5 44q39 41 97 41q74 0 120 -49q21 -23 32 -56t11 -77z" />
    <glyph glyph-name="quotedblleft" unicode="&#x201c;" horiz-adv-x="846" 
d="M798 1480q-39 -37 -66.5 -72t-49.5 -73t-33 -72.5t-11 -72.5q71 -13 105 -49q15 -17 23.5 -40t8.5 -54q0 -57 -39 -96q-35 -39 -90 -39q-69 0 -115 47q-19 22 -27.5 51t-8.5 73q0 48 14.5 99t47.5 104q60 102 187 237zM374 1480q-38 -38 -66 -74t-49 -72.5t-33.5 -71.5
t-12.5 -72q37 -6 63.5 -18.5t45.5 -30.5q31 -33 31 -94q0 -59 -40 -96q-35 -39 -92 -39q-68 0 -111 47q-21 22 -32.5 53.5t-11.5 70.5q0 93 67 203q30 52 79 114q43 54 107 123z" />
    <glyph glyph-name="quotedblright" unicode="&#x201d;" horiz-adv-x="846" 
d="M787 1346q0 -87 -69.5 -197.5t-183.5 -233.5l-54 43q75 75 113 144q20 32 31.5 71t16.5 79q-37 4 -61.5 14t-44.5 27q-28 29 -28 90q0 35 7 60t26 44q36 41 92 41q70 0 112.5 -48t42.5 -134zM366 1346q0 -87 -69 -197q-33 -54 -80 -113q-43 -54 -104 -121l-55 43
q37 35 65 70.5t48 71.5t30.5 72t15.5 80q-35 4 -60 14t-44 27q-29 30 -29 90q0 66 32 104q38 41 93 41q70 0 113.5 -48.5t43.5 -133.5z" />
    <glyph glyph-name="bullet" unicode="&#x2022;" horiz-adv-x="1232" 
d="M915 777q0 -121 -90 -210q-45 -44 -96.5 -66t-114.5 -22q-121 0 -210 88t-89 210t89 209q45 44 97 65.5t115 21.5q120 0 209.5 -87t89.5 -209z" />
    <glyph glyph-name="endash" unicode="&#x2013;" 
d="M1042 374h-1038v143h1038v-143z" />
    <glyph glyph-name="emdash" unicode="&#x2014;" horiz-adv-x="2089" 
d="M2087 374h-2083v143h2083v-143z" />
    <glyph glyph-name="tilde" unicode="&#x2dc;" 
d="M815 1330q-7 -54 -24 -95.5t-44 -76.5q-31 -34 -63 -51t-73 -17q-11 0 -24.5 2t-29.5 8l-114 31l-34 6l-29 2q-37 0 -64 -24q-14 -11 -26 -37q-6 -13 -14 -33h-49q9 60 26 103t43 76q29 31 63.5 47t79.5 16q21 0 32 -2l29 -9l116 -27q3 -1 11 -3l12 -3l19 -1
q21 0 37.5 5.5t29.5 18.5q23 20 41 64h49z" />
    <glyph glyph-name="trademark" unicode="&#x2122;" horiz-adv-x="1717" 
d="M1457 928h-231v10l18 4q14 0 23.5 5.5t18 17.5t8.5 42l3 398l-21 3l-168 -482h-13l-177 490l-17 -5v-404q0 -29 10 -45q6 -10 15 -15t25 -5l27 -5v-9h-178v12l19 2q24 0 38 16t14 47l4 390q0 13 -3.5 23.5t-11.5 22.5q-14 17 -41 20l-19 2v7h182l149 -411l149 411h177
l-21 -5q-25 -3 -39 -21q-10 -15 -10 -45v-392q0 -29 10 -45q14 -14 40 -20l20 -4v-10zM704 1298h-10q-12 84 -43 120q-35 41 -105 41h-22v-452q0 -30 12.5 -46t35.5 -19l24 -5v-9h-243v11l18 3q13 0 22.5 5.5t18 17.5t8.5 42l2 452h-27q-67 0 -102 -40t-44 -121h-9l11 172
h443z" />
    <glyph glyph-name="scaron" unicode="&#x161;" horiz-adv-x="618" 
d="M576 253q0 -116 -83 -194.5t-210 -78.5q-106 0 -174.5 54.5t-68.5 135.5q0 26 5.5 45t18.5 34q29 29 78 29q23 0 39.5 -5.5t29.5 -19.5q29 -27 29 -68q0 -13 -6 -34q-2 -11 -5.5 -20t-13.5 -26q27 -20 44 -27q10 -4 21.5 -7.5t20.5 -3.5q23 0 42 8t43 24q33 26 33 67
q0 70 -133 168l-3 3q-145 97 -185 158q-19 30 -29.5 63.5t-10.5 71.5q0 58 19 103.5t56 82.5q70 73 186 73q95 0 154 -50q64 -47 64 -112q0 -21 -7 -37.5t-19.5 -29.5t-30.5 -20.5t-39 -7.5q-16 0 -29.5 4t-31.5 19q-23 23 -23 60q0 12 3 24.5t7 20.5t12 21q-22 6 -30.5 9
t-16.5 7l-29 3q-41 0 -71 -24q-25 -24 -25 -65q0 -54 109 -134l35 -24q70 -47 114.5 -86.5t66.5 -72t33 -67t11 -74.5zM613 1357l-228 -343h-143l-229 343l63 1l237 -188l237 188z" />
    <glyph glyph-name="guilsinglright" unicode="&#x203a;" horiz-adv-x="493" 
d="M441 435q-68 -55 -118 -100q-57 -52 -113 -113q-111 -119 -128 -119l-6 2l-3 12q0 17 14.5 53.5l22.5 56.5q24 54 44 94q29 57 63 114q-32 54 -61 112l-46 96q-37 83 -37 112l2 10l9 3q8 0 125 -120q105 -114 232 -213z" />
    <glyph glyph-name="oe" unicode="&#x153;" horiz-adv-x="1170" 
d="M1122 447h-407v-14q0 -5 -2 -15v-29q0 -133 40 -203q46 -77 129 -77q21 0 43 8.5t44 23.5t41 35q15 16 41 48l69 -55q-54 -91 -132 -140t-173 -49q-60 0 -105 22q-32 13 -66 37q-14 10 -44 35q-25 -22 -53 -41t-52 -30q-51 -23 -115 -23q-147 0 -237.5 120.5t-90.5 334.5
q0 108 20.5 188.5t68.5 142.5q89 119 239 119q49 0 70.5 -4t46.5 -15t52 -29q21 -14 55 -42q50 52 103 72q47 22 114 22q136 0 216 -117q85 -111 85 -314v-11zM924 547q0 139 -21 198q-25 53 -82 53q-55 0 -79 -50q-13 -30 -21 -79t-8 -122h211zM504 435q0 230 -25 296
q-10 36 -32.5 51.5t-59.5 15.5q-64 0 -88.5 -68.5t-24.5 -315.5q0 -208 24 -274t89 -66q71 0 91 70q12 35 19 107.5t7 183.5z" />
    <glyph glyph-name="c157" horiz-adv-x="1740" 
d="M1523 624q0 -179 -86 -290.5t-219 -111.5q-89 0 -164 60q-77 53 -175 220q-44 -82 -83.5 -135t-80.5 -82q-39 -32 -80 -48.5t-89 -16.5q-136 0 -230.5 113t-94.5 289q0 92 20 163.5t65 127.5q80 108 216 108q48 0 89 -13.5t77 -43.5q76 -56 173 -218q82 158 161 217
q77 64 184 64q124 0 219 -117q49 -60 73.5 -130.5t24.5 -155.5zM1449 626q0 103 -61 171.5t-154 68.5q-43 0 -81.5 -16.5t-73.5 -52t-69 -88.5q-38 -59 -76 -140q24 -45 54 -79.5t64 -56t75 -32.5t85 -11q53 0 95.5 15.5t76.5 49.5q65 66 65 171zM808 678
q-52 88 -120.5 133.5t-159.5 45.5q-107 0 -172 -66t-65 -173q0 -50 14 -92.5t45 -77t69.5 -50.5t84.5 -16q45 0 83.5 15.5t73.5 50.5t71.5 91t75.5 139z" />
    <glyph glyph-name="c158" horiz-adv-x="1740" 
d="M1559 825q-109 -78 -201 -113t-192 -35q-90 0 -286.5 71.5t-309.5 71.5q-84 0 -183 -37q-44 -19 -91 -45.5t-110 -68.5v163q106 71 203 110q49 19 94 29t89 10q65 0 140.5 -17t173.5 -55q204 -72 282 -72q90 0 195 37q42 17 88.5 44t107.5 69v-162zM1559 415
q-57 -38 -105.5 -65t-96.5 -46q-102 -35 -191 -35q-88 0 -286.5 70.5t-309.5 70.5q-89 0 -187 -38q-80 -33 -197 -113v162q50 36 105 66q48 26 99 47q93 36 182 36q62 0 138.5 -17t174.5 -54q198 -71 291 -71q81 0 186 37q83 37 197 114v-164z" />
    <glyph glyph-name="Ydieresis" unicode="&#x178;" horiz-adv-x="901" 
d="M917 1462q0 -28 -41 -58q-45 -36 -63 -79l-237 -585v-461q0 -78 5 -103.5t10 -36t17 -20.5l28 -18q35 -23 35 -52v-44h-420v44q0 16 7.5 29t24.5 23l26 20q17 15 25 48q3 15 5 42t2 68v436l-253 583l-6 15q-27 67 -74 96q-12 6 -17 11t-10.5 14t-7 14t-1.5 14l1 41h426
v-41q0 -29 -38 -57q-39 -33 -39 -74l3 -33q2 -12 4.5 -18.5t7.5 -16.5l175 -386l158 396l11 37q1 4 4 12t3 11q0 40 -44 75q-38 24 -38 54l1 41h310v-41zM772 1843q0 -28 -7.5 -49.5t-24.5 -41.5q-20 -17 -38.5 -25.5t-46.5 -8.5q-24 0 -44 8.5t-40 26.5q-16 20 -24.5 41.5
t-8.5 48.5q0 43 34 83q35 31 83 31q27 0 45.5 -6t37.5 -24q17 -19 25.5 -39t8.5 -45zM384 1843q0 -51 -34 -91q-19 -17 -37.5 -25.5t-44.5 -8.5q-48 0 -85 35q-35 40 -35 90q0 44 36 83q32 31 84 31q25 0 43.5 -6t37.5 -24q35 -40 35 -84z" />
    <glyph glyph-name="nonbreakingspace" unicode="&#xa0;" horiz-adv-x="918" 
 />
    <glyph glyph-name="exclamdown" unicode="&#xa1;" horiz-adv-x="610" 
d="M453 1374q0 -52 -45 -97q-22 -21 -47.5 -32.5t-55.5 -11.5q-31 0 -57 10.5t-48 31.5t-33.5 45t-11.5 54q0 53 44 99q23 22 47.5 32.5t58.5 10.5q53 0 102 -44q23 -22 34.5 -45t11.5 -53zM458 182q0 -97 -44 -148q-42 -54 -109 -54q-68 0 -113 52q-21 23 -30.5 57.5
t-9.5 81.5q0 23 19 134q43 205 65.5 400t22.5 375h90q0 -379 88 -784q21 -95 21 -114z" />
    <glyph glyph-name="cent" unicode="&#xa2;" horiz-adv-x="871" 
d="M748 154q-53 -67 -129.5 -105.5t-177.5 -38.5h-19l-73 -266h-86l78 278q-119 43 -176 147q-28 52 -41.5 118.5t-13.5 149.5q0 220 104 347t277 127l25 2l58 -4l58 224h89l-71 -268q17 -11 27.5 -24.5t18.5 -28.5q14 -28 14 -65q0 -48 -30 -78q-17 -16 -33.5 -23t-42.5 -7
h-16l-130 -489l41 -10l21 -1q49 0 89 22q33 17 78 66zM513 683l-8 31l-2 29l1 26q1 10 1.5 21.5t3.5 27.5q-14 0 -17 2q-10 3 -24 3q-79 0 -117 -87t-38 -247q0 -101 15 -175q9 -41 22 -65.5t39 -44.5z" />
    <glyph glyph-name="sterling" unicode="&#xa3;" horiz-adv-x="871" 
d="M865 305q-12 -81 -33.5 -139t-57.5 -101q-64 -85 -164 -85q-58 0 -126 31q-35 16 -75 41q-45 28 -92 64q-23 -29 -47.5 -50.5t-48.5 -36.5q-43 -28 -83 -28q-65 0 -107 39q-20 21 -29.5 45.5t-9.5 58.5q0 77 50 124q43 46 123 46q17 1 26 1q5 0 18 -2.5l29 -5.5t35 -12
l1 21q0 15 5 42q2 11 2 18q0 27 -4 56.5t-14 83.5q-14 84 -48 186h-185v99l162 2q-7 35 -12.5 74t-9 70t-5.5 56t-2 51q0 196 103 311q53 58 119 85.5t154 27.5q58 0 102 -12.5t81 -41.5q37 -32 54.5 -67t17.5 -81q0 -31 -7 -52t-22 -40q-31 -33 -75 -33q-42 0 -73 26
q-13 13 -19.5 30.5t-6.5 41.5q0 23 11 41q7 12 14.5 18.5t27.5 15.5q-17 17 -31 26t-28 15q-26 9 -61 9q-36 0 -63 -10.5t-48 -34.5q-39 -47 -39 -127q0 -27 6 -70.5t20.5 -110t19.5 -92.5q19 -93 25 -126l211 -2v-99h-198l4 -63l2 -49q0 -93 -17 -171q-7 -36 -21.5 -74
t-36.5 -82l99 -48.5t72 -31.5q65 -24 94 -24q27 0 51 10.5t42 32.5q31 37 57 125zM253 172l-61 35q-13 5 -23 7.5t-20 2.5q-39 0 -57.5 -18.5t-18.5 -52.5t18.5 -53t54.5 -19q16 0 31 5.5t26 16.5q22 21 50 76z" />
    <glyph glyph-name="currency" unicode="&#xa4;" horiz-adv-x="1266" 
d="M1188 434l-81 -79l-211 212q-30 -24 -66 -42q-30 -15 -63 -27q-56 -23 -132 -23q-38 0 -73 5t-64 18q-36 12 -62 26q-32 17 -63 42l-212 -211l-79 79l211 214q-24 28 -39.5 56.5t-28.5 65.5q-22 63 -22 133q0 36 5 69.5t17 62.5q12 36 27.5 65t40.5 60l-211 211l79 79
l213 -208q30 23 60 38.5t60 27t65 16t74 4.5q44 0 74 -3.5t63.5 -15.5t63.5 -27.5t62 -39.5l211 208l81 -79l-210 -211q21 -28 37.5 -61.5t26.5 -63.5q23 -58 23 -132q0 -36 -5 -69t-18 -64q-12 -38 -24 -61q-15 -30 -40 -61zM948 903q0 64 -22.5 119t-69.5 101
q-88 91 -221 91q-132 0 -222.5 -90.5t-90.5 -220.5q0 -64 22.5 -120t67.5 -101q90 -92 223 -92q130 0 221.5 91t91.5 222z" />
    <glyph glyph-name="yen" unicode="&#xa5;" horiz-adv-x="871" 
d="M879 1413q0 -27 -38 -54q-43 -34 -62 -77l-123 -312l201 -4v-79h-233l-82 -206l315 -4v-77h-309v-329q0 -76 6 -107t22 -46l25 -18q17 -12 28 -24.5t11 -26.5v-44h-383v44q0 17 6.5 28.5t24.5 23.5q14 7 26.5 18.5t25.5 45.5q3 15 5 40t2 66l2 329h-309v77l311 4
l-100 206h-211v80l177 3l-123 286l-5 11q-27 65 -73 95q-10 6 -16.5 11.5t-9 9.5t-2.5 13v17v41h384v-41q0 -24 -34 -52q-41 -34 -41 -66v-14t4 -21l10 -40l176 -392l153 404q2 5 5 14t6 20.5t7 24.5q0 38 -48 71q-36 23 -36 51l1 41h304v-41z" />
    <glyph glyph-name="brokenbar" unicode="&#xa6;" 
d="M612 700h-176v754h176v-754zM612 -352h-176v754h176v-754z" />
    <glyph glyph-name="section" unicode="&#xa7;" horiz-adv-x="901" 
d="M846 596q0 -98 -68 -163q-34 -32 -85 -52.5t-118 -20.5q44 -37 80 -80q29 -35 52 -72q20 -36 29.5 -71.5t9.5 -76.5q0 -111 -92 -189q-45 -36 -103.5 -54.5t-132.5 -18.5q-126 0 -200 59q-37 28 -54.5 63.5t-17.5 81.5q0 30 4.5 47t18.5 34q30 30 76 30q45 0 70 -23
q12 -13 19 -28.5t7 -35.5q0 -26 -22 -54q-6 -10 -12.5 -24.5t-7.5 -18.5q0 -13 7 -24.5t24 -20.5q30 -15 75 -15q82 0 126 33q41 34 41 102q0 57 -37 113q-16 27 -49 60.5t-84 77.5l-170 151q-45 38 -80 80q-31 37 -57 79q-45 78 -45 156q0 93 66 156q34 32 82.5 53.5
t118.5 33.5q-44 37 -77 77q-23 28 -49 69q-18 31 -25.5 63t-7.5 69q0 68 19.5 116.5t64.5 90.5q81 77 224 77q61 0 104 -12.5t80 -42.5q73 -61 73 -149q0 -51 -30 -84q-15 -14 -34.5 -21.5t-44.5 -7.5q-42 0 -66 24t-24 66q0 15 3.5 25t17.5 30q25 37 25 47q0 24 -34 41
q-25 14 -68 14q-67 0 -104.5 -36t-37.5 -100q0 -57 34 -111t138 -145l168 -154q41 -36 78 -80q32 -38 57 -80q45 -79 45 -154zM674 534q0 20 -8.5 44t-24.5 57q-31 58 -90 119q-65 71 -119.5 105.5t-98.5 34.5q-22 0 -43.5 -7t-36.5 -22q-30 -33 -30 -80q0 -22 6.5 -44
t22.5 -55q29 -55 91 -121t114 -104q27 -17 54 -27.5t49 -10.5t43.5 8.5t37.5 25t24.5 35.5t8.5 42z" />
    <glyph glyph-name="dieresis" unicode="&#xa8;" 
d="M827 1178q0 -51 -32 -89q-18 -16 -37.5 -24.5t-45.5 -8.5q-45 0 -82 34q-16 19 -24.5 40.5t-8.5 47.5q0 42 34 81q34 31 81 31q26 0 44.5 -6t37.5 -24q16 -18 24.5 -38t8.5 -44zM446 1178q0 -51 -33 -89q-17 -16 -36.5 -24.5t-43.5 -8.5q-49 0 -84 34q-17 19 -25.5 40
t-8.5 48q0 43 35 81q18 17 37.5 24t45.5 7q25 0 43 -6t36 -24q34 -37 34 -82z" />
    <glyph glyph-name="copyright" unicode="&#xa9;" horiz-adv-x="1717" 
d="M1592 692q0 -76 -13.5 -141.5t-42.5 -132t-68.5 -126.5t-92.5 -117q-54 -51 -111.5 -90t-126.5 -68q-128 -54 -280 -54q-148 0 -277 54q-65 27 -123.5 66t-115.5 92q-52 55 -92.5 114t-70.5 126q-26 61 -38.5 131t-12.5 146q0 74 12 143.5t40 134.5t67.5 124t92.5 116
q109 103 241 159q64 28 133 40.5t148 12.5q78 0 143 -11.5t130 -41.5q133 -55 241 -157q50 -54 90 -114.5t70 -127.5q57 -129 57 -278zM1514 692q0 63 -13 123t-40 128.5t-60 118t-83 97.5q-43 47 -94 80t-114 59q-122 49 -249 49q-134 0 -256 -49q-60 -24 -112.5 -59.5
t-97.5 -82t-81 -100.5t-61 -113q-48 -120 -48 -251q0 -134 48 -252q25 -59 60 -111t84 -98q46 -49 98 -85q48 -33 111 -59q59 -23 121.5 -35t129.5 -12q135 0 253 48q60 25 111.5 59.5t96.5 83.5q45 43 81 96.5t62 114.5q24 63 38.5 126.5t14.5 123.5zM1196 457
q-65 -102 -145 -151q-94 -53 -202 -53q-178 0 -298 125q-61 61 -90 136.5t-29 168.5q0 96 28.5 172t89.5 139q116 122 296 122q45 0 81.5 -6.5t70.5 -22.5t76 -33l12 -5q16 0 28 5t21 14t13.5 18t8.5 26h23l3 -304h-30q-33 137 -104 206q-75 74 -186 74q-128 0 -194 -101
q-61 -94 -61 -287q0 -98 16 -172.5t50 -124.5q74 -105 207 -105q87 0 159.5 45t127.5 128z" />
    <glyph glyph-name="ordfeminine" unicode="&#xaa;" horiz-adv-x="587" 
d="M586 923q-16 -14 -42 -24q-15 -5 -30 -8t-31 -3q-34 0 -64 19q-21 13 -51 72q-18 -28 -34.5 -42.5t-40.5 -27.5q-40 -21 -90 -21q-75 0 -120 47q-23 23 -35 53t-12 69q0 97 77 152q43 33 95 49q61 19 142 19l-6 65q0 75 -24 96q-17 22 -63 22q-13 0 -19 -2q-14 0 -26 -7
q3 -19 6 -25l1 -7q0 -38 -19 -63q-20 -22 -58 -22q-31 0 -52.5 20.5t-21.5 47.5q0 26 12 46t38 38q59 36 143 36q116 0 171 -56q29 -29 44.5 -71.5t15.5 -100.5l8 -235v-4q0 -50 15 -73t44 -23l13 3zM357 1121v90q-48 0 -78.5 -11t-54.5 -33q-39 -39 -39 -108q0 -41 17 -67
q10 -13 24.5 -20.5t34.5 -7.5q24 0 41.5 10.5t32.5 29.5q21 30 21 102z" />
    <glyph glyph-name="guillemotleft" unicode="&#xab;" horiz-adv-x="842" 
d="M769 112q-3 -4 -5 -5l-7 -4q-13 3 -122 119q-49 55 -108.5 110.5t-115.5 101.5q58 47 114 100t111 114q109 120 120 120q7 0 10 -3l3 -6q0 -19 -8 -44.5t-28 -65.5q-21 -54 -40 -94q-22 -46 -62 -118q70 -137 102 -217q36 -72 36 -108zM409 112q-3 -5 -4 -6l-8 -3
q-10 5 -42 36q-27 26 -80.5 84.5t-108.5 110.5q-45 43 -114 101q60 50 114.5 101.5t108.5 111.5q111 120 122 120q3 0 8 -3l4 -10q0 -34 -35 -110q-19 -46 -43 -96.5t-59 -113.5q65 -120 101 -205t36 -118z" />
    <glyph glyph-name="logicalnot" unicode="&#xac;" horiz-adv-x="1740" 
d="M1479 372h-147l-2 351h-1067v149h1216v-500z" />
    <glyph glyph-name="minus" unicode="&#xad;" horiz-adv-x="504" 
d="M453 352h-401v191h401v-191z" />
    <glyph glyph-name="registered" unicode="&#xae;" horiz-adv-x="1717" 
d="M1592 683q0 -142 -61 -273q-32 -70 -71.5 -127t-97.5 -118q-56 -52 -111.5 -88t-123.5 -64q-61 -24 -133.5 -37t-151.5 -13q-138 0 -266 55q-66 28 -123 66.5t-112 90.5q-54 56 -93.5 114t-69.5 126q-26 61 -38.5 130.5t-12.5 146.5q0 74 12 143.5t40 135t67 124
t93 115.5q109 103 241 159q64 28 133 40.5t148 12.5q76 0 145.5 -12.5t137.5 -42t126 -68.5t113 -93q48 -54 87 -114.5t67 -127.5q55 -128 55 -281zM1514 692q0 64 -13 122.5t-41 130.5q-52 125 -142 214q-43 47 -94 80t-114 59q-122 49 -249 49q-134 0 -256 -49
q-60 -24 -112.5 -59.5t-97.5 -83.5q-47 -46 -82 -97.5t-61 -113.5q-47 -121 -47 -252q0 -134 48 -252q25 -59 60 -111t84 -98q46 -49 98 -85q48 -33 111 -59q59 -23 121.5 -35t129.5 -12q135 0 253 48q60 25 111.5 59.5t96.5 83.5q46 44 83 99q34 51 59.5 112.5t39.5 125
t14 124.5zM1312 450q0 -40 -11 -72t-31 -54q-22 -21 -51.5 -32t-72.5 -11q-45 0 -75 15q-17 9 -28 17q-14 11 -24 26q-13 21 -20.5 47t-7.5 59q0 40 -2 60.5t-6 38.5q-15 80 -63 118.5t-135 38.5h-34v-263q0 -56 24 -81q21 -20 88 -29v-27h-379v26q62 8 86 27q28 22 28 84
l4 534q0 59 -31 83q-19 19 -87 27v26h399q74 0 131 -12.5t102 -39.5q88 -56 88 -136q0 -38 -17.5 -70t-50.5 -56q-30 -24 -86.5 -44t-135.5 -35v-16q50 -16 87 -34.5t64 -43.5q50 -48 69 -124q3 -12 5.5 -32l4.5 -35q10 -104 68 -104q36 0 55 40q8 19 12.5 42.5t4.5 50.5h28
v-9zM1042 912q0 76 -49.5 124t-135.5 48q-52 0 -81 -18q-13 -10 -19 -24t-6 -38v-277q10 0 20.5 0.5t14.5 -0.5q4 0 14 -2t15 -2q53 0 94 12.5t73 38.5q60 48 60 138z" />
    <glyph glyph-name="macron" unicode="&#xaf;" 
d="M773 1104h-500v138h500v-138z" />
    <glyph glyph-name="degree" unicode="&#xb0;" horiz-adv-x="687" 
d="M644 1186q0 -119 -89 -208q-45 -44 -97 -66t-115 -22q-122 0 -209.5 86t-87.5 210q0 126 87.5 212t211.5 86q123 0 211 -88t88 -210zM553 1188q0 40 -16.5 75.5t-46.5 68.5q-59 59 -145 59q-85 0 -147 -59q-59 -61 -59 -144q0 -81 61 -142.5t145 -61.5q83 0 145 60
q31 32 47 67t16 77z" />
    <glyph glyph-name="plusminus" unicode="&#xb1;" horiz-adv-x="1740" 
d="M1479 733h-532v-343h-151l-2 343h-531v145l531 2l2 343h151v-343l532 -2v-145zM1479 19h-1216v148h1216v-148z" />
    <glyph glyph-name="twosuperior" unicode="&#xb2;" horiz-adv-x="574" 
d="M500 588h-469l-1 71q30 81 132 225l40 55q77 111 111 185q32 81 32 149q0 69 -23 105t-77 36q-23 0 -44 -7q-15 -8 -40 -35q14 -7 21.5 -14.5t11.5 -14.5q9 -14 9 -29q0 -32 -21 -55q-12 -11 -24.5 -17t-29.5 -6q-36 0 -58 22.5t-22 57.5q0 33 15.5 58.5t47.5 48.5
q64 47 158 47q99 0 166 -56q32 -29 48.5 -63.5t16.5 -77.5q0 -34 -9 -64.5t-32 -66.5q-16 -31 -56.5 -82.5t-95.5 -113.5q-6 -10 -11.5 -16t-19.5 -20q-107 -119 -148 -208l197 -4q20 0 29 2t25.5 7.5t22.5 8.5q16 9 25 21l11 24q9 23 28 23l34 -1v-195z" />
    <glyph glyph-name="threesuperior" unicode="&#xb3;" horiz-adv-x="574" 
d="M502 827q0 -111 -74 -182q-38 -36 -84.5 -54t-107.5 -18q-84 0 -141 39.5t-57 93.5q0 35 19 57q24 21 54 21q33 0 54 -18q24 -15 24 -45q0 -13 -5 -22q-6 -15 -18 -30q4 -14 11 -22t17 -12q13 -8 38 -8q57 0 91 53q15 25 23.5 63t8.5 84q0 56 -10 96.5t-28 66.5
q-38 50 -109 50l-2 51l-5 -2q78 0 113 41q33 44 33 135q0 83 -21 114q-22 37 -77 37q-18 0 -36 -6q-8 -6 -14 -10q-11 -8 -29 -19q15 -9 22 -16t10 -16q7 -14 7 -27q0 -23 -20 -41q-13 -9 -24 -13.5t-27 -4.5q-33 0 -55.5 20t-22.5 52q0 28 14.5 50t43.5 43q59 42 147 42
q95 0 157 -53q30 -29 45.5 -62.5t15.5 -77.5q0 -66 -41 -120q-32 -49 -132 -94q59 -21 92.5 -43t54.5 -53q45 -55 45 -140z" />
    <glyph glyph-name="acute" unicode="&#xb4;" 
d="M829 1290q0 -18 -8 -33q-4 -8 -13 -18q-7 -11 -25.5 -23t-51.5 -30l-335 -172h-67l277 276q20 20 41 38q17 14 35 27q33 19 62 19q35 0 60 -25q25 -23 25 -59z" />
    <glyph glyph-name="mu" unicode="&#xb5;" horiz-adv-x="1208" 
d="M1136 313q0 -27 -17 -88q-9 -27 -18.5 -51.5t-22.5 -46.5q-44 -74 -97 -108.5t-120 -34.5q-76 0 -127 54q-22 26 -35 66.5t-13 91.5l-16 3q-24 -57 -50.5 -95.5t-63.5 -65.5q-66 -54 -153 -54q-94 0 -154 57q-57 60 -69 170l-18 2q-7 -39 -24 -148l-28 -181
q-40 -307 -126 -307q-24 0 -39.5 5.5t-29.5 19.5q-24 24 -24 69q0 22 19 97l51 192q71 227 112 420l111 516h192l-101 -465l-17 -84l-5 -60q0 -37 9.5 -64.5t32.5 -49.5q39 -39 112 -39q97 0 152 56q27 26 47.5 71.5t34.5 107.5l112 527h196l-116 -533l-3 -15
q-15 -71 -15 -116q0 -51 25 -76q14 -15 31 -22.5t44 -7.5q22 0 40.5 6.5t37.5 18.5q32 24 64 74l25 52q20 54 42 54q5 0 6 -2q6 -6 6 -16z" />
    <glyph glyph-name="paragraph" unicode="&#xb6;" 
d="M986 1424h-121v-1419h-109l-2 1419h-198v-1419h-111l-2 807q-90 0 -161 26t-124 75q-98 92 -98 244q0 81 25 142t79.5 109t125.5 70.5t163 22.5h533v-77z" />
    <glyph glyph-name="periodcentered" unicode="&#x2219;" horiz-adv-x="435" 
d="M353 729q0 -51 -42 -93q-20 -19 -43.5 -29t-52.5 -10q-51 0 -94 40q-41 43 -41 92q0 53 40.5 94t94.5 41q57 0 97.5 -39t40.5 -96z" />
    <glyph glyph-name="cedilla" unicode="&#xb8;" 
d="M794 -282q0 -78 -62 -128.5t-166 -50.5q-76 0 -158 22q-43 14 -74 27q-43 18 -77 38l30 64q68 -33 127 -51q31 -9 62.5 -15.5t55.5 -6.5q28 0 49 7t36.5 20t24 32.5t8.5 46.5q0 20 -9 39.5t-25 33.5q-35 22 -88 22q-6 1 -12 1q-9 0 -29 -6l-9 -1v181h48v-111h21
q11 0 25 2l36 2q81 0 135 -46q26 -24 38.5 -53t12.5 -69z" />
    <glyph glyph-name="onesuperior" unicode="&#xb9;" horiz-adv-x="574" 
d="M453 588h-307v23q0 9 3 14t15 12q15 3 26.5 9.5t18.5 14.5t10.5 20t5.5 26.5t2 36.5l2 596h-110v45l179 69l70 -1v-709q0 -38 7 -60q6 -24 30 -38l20 -9q26 -12 28 -26v-23z" />
    <glyph glyph-name="ordmasculine" unicode="&#xba;" horiz-adv-x="576" 
d="M539 1206q0 -149 -69.5 -233.5t-182.5 -84.5q-112 0 -181 86q-34 40 -50 98.5t-16 133.5t15.5 131.5t50.5 97.5q70 87 181 87q109 0 180 -87q37 -44 54.5 -99t17.5 -130zM375 1206q0 82 -5 131.5t-14 78.5q-20 48 -69 48q-45 0 -69 -50q-15 -47 -15 -208q0 -159 16 -209
t68 -50q48 0 69 50q8 23 13.5 79t5.5 130z" />
    <glyph glyph-name="guillemotright" unicode="&#xbb;" horiz-adv-x="842" 
d="M788 436q-63 -53 -113 -100q-55 -52 -110 -114q-110 -118 -122 -119l-6 2l-5 12q0 15 15 53.5t22 58.5q36 88 102 208q-34 57 -58.5 106.5t-43.5 97.5l-21 53q-16 42 -16 61q0 6 4 10l9 3q3 0 120 -120q104 -116 223 -212zM431 435q-59 -48 -116 -101.5t-109 -111.5
q-108 -119 -124 -119l-6 2l-3 12q0 17 14.5 53.5l22.5 56.5q22 55 41 94q26 53 62 114q-32 55 -60 112q-18 38 -43 96q-37 83 -37 112l2 10l9 3q7 0 121 -120q54 -61 107.5 -111.5t118.5 -101.5z" />
    <glyph glyph-name="onequarter" unicode="&#xbc;" horiz-adv-x="1445" 
d="M1412 207h-90v-88q0 -25 3 -41t11 -23l18 -13q10 -6 12 -7q6 -5 7 -8v-22h-218v22q0 6 12 15q8 4 16.5 11.5t11.5 24.5q3 10 5.5 21t2.5 20l-2 88h-254l-1 75l286 523h90v-534l90 -2v-62zM1229 1478l-905 -1498h-111l904 1498h112zM418 652h-280v20q0 15 19 23l21 10
q13 6 19 13t9 23q3 9 5 22.5t2 32.5l2 555h-103v42l162 63l67 -1v-659q0 -35 6 -55q5 -23 26 -36l22 -10q23 -8 23 -23v-20zM1202 270v311l-22 4l-170 -313z" />
    <glyph glyph-name="onehalf" unicode="&#xbd;" horiz-adv-x="1445" 
d="M1375 5h-437l-1 67q31 78 128 211l34 50q37 55 62 96q29 47 42 76q29 75 29 137q0 31 -5 55.5t-17 42.5t-30.5 26.5t-43.5 8.5q-18 0 -39 -7q-9 -3 -18 -10.5t-20 -22.5q14 -10 19 -15t9.5 -12t7 -14t2.5 -15q0 -16 -5 -27.5t-15 -22.5q-19 -19 -50 -19t-53 19
q-15 16 -15 50q0 32 12 56.5t40.5 44.5t65.5 29.5t83 9.5q52 0 88 -10.5t67 -36.5q31 -28 45.5 -58t14.5 -72q0 -60 -37 -122q-16 -30 -53 -77q-28 -36 -87 -106l-37 -39q-48 -54 -80.5 -100.5t-52.5 -88.5l186 -4q12 0 23 2t28.5 7.5t26 12t16.5 16.5l12 22q7 19 26 22
l29 -1v-181zM1229 1478l-905 -1498h-111l904 1498h112zM418 652h-280v20q0 15 19 23l22 10q12 6 18 13.5t9 22.5q3 9 5 22.5t2 32.5l2 555h-103v42l162 63l67 -1v-659q0 -35 6 -55q5 -23 26 -36l22 -10q23 -8 23 -23v-20z" />
    <glyph glyph-name="threequarters" unicode="&#xbe;" horiz-adv-x="1445" 
d="M1412 207h-90v-88q0 -25 3 -40q6 -17 13 -24l16 -13q10 -6 12 -7q6 -5 7 -8v-22h-218v22q0 5 14 15q8 4 16.5 11.5t11 20t5 23t2.5 22.5l-2 88h-255l-1 75l286 523h90v-534l90 -2v-62zM1229 1478l-903 -1498h-111l902 1498h112zM468 873q0 -52 -17.5 -94t-52.5 -77
q-69 -66 -179 -66q-77 0 -130 38t-53 88q0 30 19.5 50.5t49.5 20.5t50 -17.5t20 -38.5q0 -12 -5 -21q-2 -8 -4.5 -14.5t-10.5 -18.5q8 -14 13.5 -21t15.5 -11l17.5 -7t15.5 -3q28 0 47 13t38 43q25 48 25 136q0 106 -32 150t-102 50l-2 47l-3 -2q71 0 102 38q33 36 33 126
q0 76 -18 106q-22 35 -73 35q-14 0 -32 -6q-8 -3 -38 -30q9 -6 17 -15q3 -3 9 -13t7 -24q0 -23 -19.5 -40t-45.5 -17q-33 0 -53 18q-15 16 -15 49q0 27 11.5 48t37.5 38q56 39 136 39q92 0 147 -49q27 -26 41.5 -57.5t14.5 -70.5q0 -63 -37 -112q-31 -46 -125 -89
q100 -36 137 -90q21 -27 32 -57.5t11 -71.5zM1203 270v311l-21 4l-170 -313z" />
    <glyph glyph-name="questiondown" unicode="&#xbf;" horiz-adv-x="744" 
d="M550 1374q0 -54 -42 -98q-24 -22 -46.5 -32.5t-54.5 -10.5q-29 0 -53 10.5t-46 31.5t-33.5 45t-11.5 54t11 53t33.5 45.5t46 33t53.5 10.5q28 0 52 -10.5t46.5 -32t33.5 -45.5t11 -54zM683 211q0 -95 -83.5 -163t-216.5 -68q-135 0 -217 80.5t-82 213.5t122 320l41 66
q30 50 52 103t38 111q30 102 30 225l78 -1l1 -22v-29.5t1 -28.5q0 -86 -9 -171.5t-30 -165.5l-29 -110q-57 -206 -57 -312q0 -83 28 -123q29 -48 89 -48q6 0 16.5 3.5l16.5 5.5q11 5 34 32q-17 10 -29 24q-7 8 -15 21q-11 20 -11 47q0 52 30 82q19 16 37.5 24.5t43.5 8.5
q28 0 49 -8.5t40 -26.5q15 -16 23.5 -38.5t8.5 -51.5z" />
    <glyph glyph-name="Agrave" unicode="&#xc0;" 
d="M1070 5h-440v52q0 15 5.5 24.5t22.5 20.5q42 26 42 53q0 6 -3 17.5l-4 15.5l-11 44l-38 139h-379l-34 -122l-11 -39l-3 -28q0 -28 9 -44.5t39 -36.5l12 -6q24 -13 24 -38v-52h-325v52q0 22 28 39l24 13q23 17 41.5 49t31.5 84l10 36l282 936l-24 81l-5 23l-1 23
q0 7 21 30q25 26 32 35l41 44q5 7 14 18t19 22q24 34 36 34q2 -1 4 -3l399 -1244l11 -39q24 -98 73 -129l22 -12q35 -19 35 -40v-52zM604 499l-155 510l-146 -510h301zM715 1641h-64l-338 172q-34 19 -48 28q-21 14 -30 25q-20 20 -20 51q0 36 26 59q23 25 60 25
q29 0 60.5 -19.5t77.5 -64.5z" />
    <glyph glyph-name="Aacute" unicode="&#xc1;" 
d="M1070 5h-440v52q0 15 5.5 24.5t22.5 20.5q42 26 42 53q0 6 -3 17.5l-4 15.5l-11 44l-38 139h-379l-34 -122l-11 -39l-3 -28q0 -28 9 -44.5t39 -36.5l12 -6q24 -13 24 -38v-52h-325v52q0 22 28 39l24 13q23 17 41.5 49t31.5 84l10 36l282 936l-24 81l-5 23l-1 23
q0 7 21 30q25 26 32 35l41 44q5 7 14 18t19 22q24 34 36 34q2 -1 4 -3l399 -1244l11 -39q24 -98 73 -129l22 -12q35 -19 35 -40v-52zM604 499l-155 510l-146 -510h301zM829 1917q0 -18 -8 -33q-4 -8 -13 -18q-7 -11 -25.5 -23t-51.5 -30l-335 -172h-67l277 276q20 20 41 38
q17 14 35 27q33 19 62 19q35 0 60 -25q25 -23 25 -59z" />
    <glyph glyph-name="Acircumflex" unicode="&#xc2;" 
d="M1070 5h-440v52q0 15 5.5 24.5t22.5 20.5q42 26 42 53q0 6 -3 17.5l-4 15.5l-11 44l-38 139h-379l-34 -122l-11 -39l-3 -28q0 -28 9 -44.5t39 -36.5l12 -6q24 -13 24 -38v-52h-325v52q0 22 28 39l24 13q23 17 41.5 49t31.5 84l10 36l282 936l-24 81l-5 23l-1 23
q0 7 21 30q25 26 32 35l41 44q5 7 14 18t19 22q24 34 36 34q2 -1 4 -3l399 -1244l11 -39q24 -98 73 -129l22 -12q35 -19 35 -40v-52zM604 499l-155 510l-146 -510h301zM823 1641h-63l-236 193l-239 -193h-64l226 343h151z" />
    <glyph glyph-name="Atilde" unicode="&#xc3;" 
d="M1070 5h-440v52q0 15 5.5 24.5t22.5 20.5q42 26 42 53q0 6 -3 17.5l-4 15.5l-11 44l-38 139h-379l-34 -122l-11 -39l-3 -28q0 -28 9 -44.5t39 -36.5l12 -6q24 -13 24 -38v-52h-325v52q0 22 28 39l24 13q23 17 41.5 49t31.5 84l10 36l282 936l-24 81l-5 23l-1 23
q0 7 21 30q25 26 32 35l41 44q5 7 14 18t19 22q24 34 36 34q2 -1 4 -3l399 -1244l11 -39q24 -98 73 -129l22 -12q35 -19 35 -40v-52zM604 499l-155 510l-146 -510h301zM815 1957q-7 -54 -24 -95.5t-44 -76.5q-31 -34 -63 -51t-73 -17q-11 0 -24.5 2t-29.5 8l-114 31l-34 6
l-29 2q-37 0 -64 -24q-14 -11 -26 -37q-6 -13 -14 -33h-49q9 60 26 103t43 76q29 31 63.5 47t79.5 16q21 0 32 -2l29 -9l116 -27q3 -1 11 -3l12 -3l19 -1q21 0 37.5 5.5t29.5 18.5q23 20 41 64h49z" />
    <glyph glyph-name="Adieresis" unicode="&#xc4;" 
d="M1070 5h-440v52q0 15 5.5 24.5t22.5 20.5q42 26 42 53q0 6 -3 17.5l-4 15.5l-11 44l-38 139h-379l-34 -122l-11 -39l-3 -28q0 -28 9 -44.5t39 -36.5l12 -6q24 -13 24 -38v-52h-325v52q0 22 28 39l24 13q23 17 41.5 49t31.5 84l10 36l282 936l-24 81l-5 23l-1 23
q0 7 21 30q25 26 32 35l41 44q5 7 14 18t19 22q24 34 36 34q2 -1 4 -3l399 -1244l11 -39q24 -98 73 -129l22 -12q35 -19 35 -40v-52zM604 499l-155 510l-146 -510h301zM827 1805q0 -51 -32 -89q-18 -16 -37.5 -24.5t-45.5 -8.5q-45 0 -82 34q-16 19 -24.5 40.5t-8.5 47.5
q0 42 34 81q34 31 81 31q26 0 44.5 -6t37.5 -24q16 -18 24.5 -38t8.5 -44zM446 1805q0 -51 -33 -89q-17 -16 -36.5 -24.5t-43.5 -8.5q-49 0 -84 34q-17 19 -25.5 40t-8.5 48q0 43 35 81q18 17 37.5 24t45.5 7q25 0 43 -6t36 -24q34 -37 34 -82z" />
    <glyph glyph-name="Aring" unicode="&#xc5;" 
d="M735 1772q0 -97 -69 -168q-35 -33 -77 -50.5t-92 -17.5q-97 0 -168 68q-66 69 -66 168q0 96 67.5 165t166.5 69q95 0 166.5 -69t71.5 -165zM1070 5h-440v52q0 14 5.5 24t22.5 20q42 26 42 54q0 6 -3 17.5l-4 15.5l-11 44l-38 137h-379l-34 -120l-11 -39l-3 -28
q0 -28 9.5 -45t38.5 -37l12 -6q24 -13 24 -37v-52h-325v52q0 21 28 38l24 13q23 18 41.5 50t31.5 84l10 34l282 935l-23 77l-2 8l-7 31q0 20 41 47l17 15l45 37q54 45 66 45q6 0 15 -12t25 -58l359 -1126l11 -37q24 -96 73 -130l22 -12q35 -19 35 -39v-52zM643 1772
q0 53 -43 101q-40 41 -100 41q-31 0 -56 -9.5t-47 -31.5q-42 -41 -42 -101q0 -32 9.5 -56t32.5 -46q43 -41 103 -41q59 0 100 41q20 21 31.5 47t11.5 55zM604 497l-155 509l-146 -509h301z" />
    <glyph glyph-name="AE" unicode="&#xc6;" horiz-adv-x="1541" 
d="M1483 5h-840v44q0 17 6.5 29t23.5 23l14.5 10t12.5 10q17 15 25 47.5t8 109.5l1 96h-437l-14 -37q-42 -120 -42 -151q0 -46 44 -84l8 -7q23 -16 23 -46v-44h-358v44q0 19 9.5 34t33.5 27q86 50 131 161l8 21l401 942l4 9q12 27 19.5 49.5t7.5 34.5q0 8 -3.5 18.5t-6 22
t-16.5 20.5l-22 13q-16 11 -23 19q-17 19 -17 40l1 40h687q32 0 78.5 4.5l67.5 6.5q45 5 62.5 7.5t42.5 8.5v-324h-55q-38 0 -57 53q-12 28 -14 33q-7 16 -15 28q-32 42 -68.5 56.5t-139.5 14.5h-109v-557l75 -2q58 0 86 18q29 15 47 55l9 25q12 34 48 34l38 -1v-373h-38
q-34 0 -48 36q-4 17 -8 24q-7 19 -18.5 31.5t-28.5 23.5q-25 14 -87 14h-75v-597l107 -2q58 0 101.5 6.5t73.5 16.5q51 18 89 68q11 17 20.5 41.5t16.5 59.5l10 38q4 -1 6 0q10 -1 23 -1h71v-341zM735 505v878l-22 4l-366 -880z" />
    <glyph glyph-name="Ccedilla" unicode="&#xc7;" horiz-adv-x="986" 
d="M971 261q-77 -146 -171 -211q-98 -70 -230 -70q-226 0 -369 204q-71 100 -106 235.5t-35 305.5q0 182 35.5 324.5t110.5 257.5q145 219 364 219q42 0 77.5 -7.5t71.5 -26.5q79 -40 87 -40q5 0 13.5 4.5t18.5 10.5q16 9 33 11l44 -1v-360h-44q-22 0 -36 14.5t-25 45.5
l-12 42q-32 100 -85.5 147.5t-130.5 47.5q-70 0 -118.5 -37.5t-79.5 -116.5q-62 -158 -62 -471q0 -160 18.5 -283.5t54.5 -210.5q76 -170 225 -170q85 0 151 48q59 49 108 145zM821 -282q0 -78 -62 -128.5t-166 -50.5q-76 0 -158 22q-43 14 -74 27q-43 18 -77 38l30 64
q68 -33 127 -51q31 -9 62.5 -15.5t55.5 -6.5q28 0 49 7t36.5 20t24 32.5t8.5 46.5q0 20 -9 39.5t-25 33.5q-35 22 -88 22q-6 1 -12 1q-9 0 -29 -6l-9 -1v181h48v-111h21q11 0 25 2l36 2q81 0 135 -46q26 -24 38.5 -53t12.5 -69z" />
    <glyph glyph-name="Egrave" unicode="&#xc8;" horiz-adv-x="997" 
d="M938 5h-850v44q0 33 29 52l16 10q9 6 13 10q17 16 24 49.5t7 107.5l4 952q0 40 -2.5 62t-8.5 45q-6 38 -24 53l-22 19q-30 22 -30 51l1 40h529q32 0 79 4.5l68 6.5q47 5 64 7.5t40 8.5v-324h-54q-39 0 -58 51q-11 38 -28 63q-31 41 -68 56q-33 15 -143 15h-108v-557
l73 -2q58 0 87 18q28 13 50 56l8 23q12 31 47 31h38v-370h-38q-32 0 -46 35q-3 14 -9.5 28.5t-18.5 27.5t-30 24q-26 14 -88 14h-73v-597l106 -2q57 0 102.5 6.5t72.5 16t49.5 27.5t42.5 42q20 28 38 98q15 52 38 52h73v-354zM692 1641h-64l-338 172q-34 19 -48 28
q-21 14 -30 25q-20 20 -20 51q0 36 26 59q23 25 60 25q29 0 60.5 -19.5t77.5 -64.5z" />
    <glyph glyph-name="Eacute" unicode="&#xc9;" horiz-adv-x="997" 
d="M938 5h-850v44q0 33 29 52l16 10q9 6 13 10q17 16 24 49.5t7 107.5l4 952q0 40 -2.5 62t-8.5 45q-6 38 -24 53l-22 19q-30 22 -30 51l1 40h529q32 0 79 4.5l68 6.5q47 5 64 7.5t40 8.5v-324h-54q-39 0 -58 51q-11 38 -28 63q-31 41 -68 56q-33 15 -143 15h-108v-557
l73 -2q58 0 87 18q28 13 50 56l8 23q12 31 47 31h38v-370h-38q-32 0 -46 35q-3 14 -9.5 28.5t-18.5 27.5t-30 24q-26 14 -88 14h-73v-597l106 -2q57 0 102.5 6.5t72.5 16t49.5 27.5t42.5 42q20 28 38 98q15 52 38 52h73v-354zM806 1917q0 -18 -8 -33q-4 -8 -13 -18
q-7 -11 -25.5 -23t-51.5 -30l-335 -172h-67l277 276q20 20 41 38q17 14 35 27q33 19 62 19q35 0 60 -25q25 -23 25 -59z" />
    <glyph glyph-name="Ecircumflex" unicode="&#xca;" horiz-adv-x="997" 
d="M938 5h-850v44q0 33 29 52l16 10q9 6 13 10q17 16 24 49.5t7 107.5l4 952q0 40 -2.5 62t-8.5 45q-6 38 -24 53l-22 19q-30 22 -30 51l1 40h529q32 0 79 4.5l68 6.5q47 5 64 7.5t40 8.5v-324h-54q-39 0 -58 51q-11 38 -28 63q-31 41 -68 56q-33 15 -143 15h-108v-557
l73 -2q58 0 87 18q28 13 50 56l8 23q12 31 47 31h38v-370h-38q-32 0 -46 35q-3 14 -9.5 28.5t-18.5 27.5t-30 24q-26 14 -88 14h-73v-597l106 -2q57 0 102.5 6.5t72.5 16t49.5 27.5t42.5 42q20 28 38 98q15 52 38 52h73v-354zM800 1641h-63l-236 193l-239 -193h-64l226 343
h151z" />
    <glyph glyph-name="Edieresis" unicode="&#xcb;" horiz-adv-x="997" 
d="M938 5h-850v44q0 33 29 52l16 10q9 6 13 10q17 16 24 49.5t7 107.5l4 952q0 40 -2.5 62t-8.5 45q-6 38 -24 53l-22 19q-30 22 -30 51l1 40h529q32 0 79 4.5l68 6.5q47 5 64 7.5t40 8.5v-324h-54q-39 0 -58 51q-11 38 -28 63q-31 41 -68 56q-33 15 -143 15h-108v-557
l73 -2q58 0 87 18q28 13 50 56l8 23q12 31 47 31h38v-370h-38q-32 0 -46 35q-3 14 -9.5 28.5t-18.5 27.5t-30 24q-26 14 -88 14h-73v-597l106 -2q57 0 102.5 6.5t72.5 16t49.5 27.5t42.5 42q20 28 38 98q15 52 38 52h73v-354zM804 1805q0 -51 -32 -89q-18 -16 -37.5 -24.5
t-45.5 -8.5q-45 0 -82 34q-16 19 -24.5 40.5t-8.5 47.5q0 42 34 81q34 31 81 31q26 0 44.5 -6t37.5 -24q16 -18 24.5 -38t8.5 -44zM423 1805q0 -51 -33 -89q-17 -16 -36.5 -24.5t-43.5 -8.5q-49 0 -84 34q-17 19 -25.5 40t-8.5 48q0 43 35 81q18 17 37.5 24t45.5 7
q25 0 43 -6t36 -24q34 -37 34 -82z" />
    <glyph glyph-name="Igrave" unicode="&#xcc;" horiz-adv-x="614" 
d="M524 5h-432v44q0 16 7.5 28.5t24.5 23.5q12 6 17 10t11 10q11 9 16.5 18.5t9.5 27t6 43t2 69.5l4 951q0 37 -2.5 58.5t-9.5 46.5q-6 40 -28 56l-19 19q-33 21 -33 51l1 40h415v-40q0 -29 -34 -51q-7 -4 -11.5 -9.5t-8.5 -9.5q-18 -14 -26 -47t-8 -114v-951q0 -81 7 -110
q3 -17 9 -29t18 -21q5 -4 14 -9.5l14 -8.5q36 -22 36 -52v-44zM504 1641h-64l-338 172q-34 19 -48 28q-21 14 -30 25q-20 20 -20 51q0 36 26 59q23 25 60 25q29 0 60.5 -19.5t77.5 -64.5z" />
    <glyph glyph-name="Iacute" unicode="&#xcd;" horiz-adv-x="614" 
d="M524 5h-432v44q0 16 7.5 28.5t24.5 23.5q12 6 17 10t11 10q11 9 16.5 18.5t9.5 27t6 43t2 69.5l4 951q0 37 -2.5 58.5t-9.5 46.5q-6 40 -28 56l-19 19q-33 21 -33 51l1 40h415v-40q0 -29 -34 -51q-7 -4 -11.5 -9.5t-8.5 -9.5q-18 -14 -26 -47t-8 -114v-951q0 -81 7 -110
q3 -17 9 -29t18 -21q5 -4 14 -9.5l14 -8.5q36 -22 36 -52v-44zM618 1917q0 -18 -8 -33q-4 -8 -13 -18q-7 -11 -25.5 -23t-51.5 -30l-335 -172h-67l277 276q20 20 41 38q17 14 35 27q33 19 62 19q35 0 60 -25q25 -23 25 -59z" />
    <glyph glyph-name="Icircumflex" unicode="&#xce;" horiz-adv-x="614" 
d="M524 5h-432v44q0 16 7.5 28.5t24.5 23.5q12 6 17 10t11 10q11 9 16.5 18.5t9.5 27t6 43t2 69.5l4 951q0 37 -2.5 58.5t-9.5 46.5q-6 40 -28 56l-19 19q-33 21 -33 51l1 40h415v-40q0 -29 -34 -51q-7 -4 -11.5 -9.5t-8.5 -9.5q-18 -14 -26 -47t-8 -114v-951q0 -81 7 -110
q3 -17 9 -29t18 -21q5 -4 14 -9.5l14 -8.5q36 -22 36 -52v-44zM612 1641h-63l-236 193l-239 -193h-64l226 343h151z" />
    <glyph glyph-name="Idieresis" unicode="&#xcf;" horiz-adv-x="614" 
d="M524 5h-432v44q0 16 7.5 28.5t24.5 23.5q12 6 17 10t11 10q11 9 16.5 18.5t9.5 27t6 43t2 69.5l4 951q0 37 -2.5 58.5t-9.5 46.5q-6 40 -28 56l-19 19q-33 21 -33 51l1 40h415v-40q0 -29 -34 -51q-7 -4 -11.5 -9.5t-8.5 -9.5q-18 -14 -26 -47t-8 -114v-951q0 -81 7 -110
q3 -17 9 -29t18 -21q5 -4 14 -9.5l14 -8.5q36 -22 36 -52v-44zM616 1805q0 -51 -32 -89q-18 -16 -37.5 -24.5t-45.5 -8.5q-45 0 -82 34q-16 19 -24.5 40.5t-8.5 47.5q0 42 34 81q34 31 81 31q26 0 44.5 -6t37.5 -24q16 -18 24.5 -38t8.5 -44zM235 1805q0 -51 -33 -89
q-17 -16 -36.5 -24.5t-43.5 -8.5q-49 0 -84 34q-17 19 -25.5 40t-8.5 48q0 43 35 81q18 17 37.5 24t45.5 7q25 0 43 -6t36 -24q34 -37 34 -82z" />
    <glyph glyph-name="Eth" unicode="&#xd0;" horiz-adv-x="1168" 
d="M1105 754q0 -380 -165 -564.5t-499 -184.5h-339v44q0 17 6.5 29t23.5 23l27 19q16 16 25.5 50t9.5 109l2 441h-192v119l192 2l2 389q0 32 -3.5 59.5t-9.5 45.5q-6 39 -26 56l-20 19q-31 22 -31 51l1 40h311q102 0 151 -2.5t93 -13.5q81 -17 155 -64q137 -86 211.5 -254.5
t74.5 -412.5zM846 754q0 364 -71.5 499.5t-254.5 135.5h-93v-548l200 -2v-119h-200v-601l93 -2q180 0 253 142q35 66 54 191t19 304z" />
    <glyph glyph-name="Ntilde" unicode="&#xd1;" horiz-adv-x="1140" 
d="M1053 1461q0 -16 -7.5 -27t-24.5 -24l-21 -20q-19 -13 -26 -47t-7 -113v-1225h-115l-530 1144l-17 -4v-866q0 -78 6 -111t26 -49l24 -18q38 -23 38 -52v-44h-309v44q0 33 29 52l16.5 10.5t12.5 9.5q17 16 24 48q3 15 5 42t2 68l5 951q0 39 -3.5 64.5t-9.5 45.5
q-7 35 -29 52q-4 3 -15 9.5l-18 10.5q-14 9 -24 22.5t-10 26.5l1 40h328l421 -905l21 5l2 629q0 32 -3 56.5t-9 48.5q-6 39 -26 56l-20 19q-30 22 -30 51l1 40h292v-40zM862 1957q-7 -54 -24 -95.5t-44 -76.5q-31 -34 -63 -51t-73 -17q-11 0 -24.5 2t-29.5 8l-114 31l-34 6
l-29 2q-37 0 -64 -24q-14 -11 -26 -37q-6 -13 -14 -33h-49q9 60 26 103t43 76q29 31 63.5 47t79.5 16q21 0 32 -2l29 -9l116 -27q3 -1 11 -3l12 -3l19 -1q21 0 37.5 5.5t29.5 18.5q23 20 41 64h49z" />
    <glyph glyph-name="Ograve" unicode="&#xd2;" horiz-adv-x="1140" 
d="M1082 754q0 -356 -141 -565t-373 -209q-228 0 -369 208q-70 106 -103.5 245.5t-33.5 320.5q0 185 32.5 323t104.5 246q69 103 161.5 153t207.5 50q117 0 209 -49.5t162 -154.5q143 -209 143 -568zM820 754q0 182 -15.5 312.5t-42.5 204.5q-55 143 -194 143
q-136 0 -192 -145q-26 -73 -40 -201.5t-14 -313.5q0 -183 14 -311.5t40 -201.5q56 -148 192 -148q137 0 194 148q27 74 42.5 203.5t15.5 309.5zM762 1641h-64l-338 172q-34 19 -48 28q-21 14 -30 25q-20 20 -20 51q0 36 26 59q23 25 60 25q29 0 60.5 -19.5t77.5 -64.5z" />
    <glyph glyph-name="Oacute" unicode="&#xd3;" horiz-adv-x="1140" 
d="M1082 754q0 -356 -141 -565t-373 -209q-228 0 -369 208q-70 106 -103.5 245.5t-33.5 320.5q0 185 32.5 323t104.5 246q69 103 161.5 153t207.5 50q117 0 209 -49.5t162 -154.5q143 -209 143 -568zM820 754q0 182 -15.5 312.5t-42.5 204.5q-55 143 -194 143
q-136 0 -192 -145q-26 -73 -40 -201.5t-14 -313.5q0 -183 14 -311.5t40 -201.5q56 -148 192 -148q137 0 194 148q27 74 42.5 203.5t15.5 309.5zM876 1917q0 -18 -8 -33q-4 -8 -13 -18q-7 -11 -25.5 -23t-51.5 -30l-335 -172h-67l277 276q20 20 41 38q17 14 35 27
q33 19 62 19q35 0 60 -25q25 -23 25 -59z" />
    <glyph glyph-name="Ocircumflex" unicode="&#xd4;" horiz-adv-x="1140" 
d="M1082 754q0 -356 -141 -565t-373 -209q-228 0 -369 208q-70 106 -103.5 245.5t-33.5 320.5q0 185 32.5 323t104.5 246q69 103 161.5 153t207.5 50q117 0 209 -49.5t162 -154.5q143 -209 143 -568zM820 754q0 182 -15.5 312.5t-42.5 204.5q-55 143 -194 143
q-136 0 -192 -145q-26 -73 -40 -201.5t-14 -313.5q0 -183 14 -311.5t40 -201.5q56 -148 192 -148q137 0 194 148q27 74 42.5 203.5t15.5 309.5zM870 1641h-63l-236 193l-239 -193h-64l226 343h151z" />
    <glyph glyph-name="Otilde" unicode="&#xd5;" horiz-adv-x="1140" 
d="M1082 754q0 -356 -141 -565t-373 -209q-228 0 -369 208q-70 106 -103.5 245.5t-33.5 320.5q0 185 32.5 323t104.5 246q69 103 161.5 153t207.5 50q117 0 209 -49.5t162 -154.5q143 -209 143 -568zM820 754q0 182 -15.5 312.5t-42.5 204.5q-55 143 -194 143
q-136 0 -192 -145q-26 -73 -40 -201.5t-14 -313.5q0 -183 14 -311.5t40 -201.5q56 -148 192 -148q137 0 194 148q27 74 42.5 203.5t15.5 309.5zM862 1957q-7 -54 -24 -95.5t-44 -76.5q-31 -34 -63 -51t-73 -17q-11 0 -24.5 2t-29.5 8l-114 31l-34 6l-29 2q-37 0 -64 -24
q-14 -11 -26 -37q-6 -13 -14 -33h-49q9 60 26 103t43 76q29 31 63.5 47t79.5 16q21 0 32 -2l29 -9l116 -27q3 -1 11 -3l12 -3l19 -1q21 0 37.5 5.5t29.5 18.5q23 20 41 64h49z" />
    <glyph glyph-name="Odieresis" unicode="&#xd6;" horiz-adv-x="1140" 
d="M1082 754q0 -356 -141 -565t-373 -209q-228 0 -369 208q-70 106 -103.5 245.5t-33.5 320.5q0 185 32.5 323t104.5 246q69 103 161.5 153t207.5 50q117 0 209 -49.5t162 -154.5q143 -209 143 -568zM820 754q0 182 -15.5 312.5t-42.5 204.5q-55 143 -194 143
q-136 0 -192 -145q-26 -73 -40 -201.5t-14 -313.5q0 -183 14 -311.5t40 -201.5q56 -148 192 -148q137 0 194 148q27 74 42.5 203.5t15.5 309.5zM874 1805q0 -51 -32 -89q-18 -16 -37.5 -24.5t-45.5 -8.5q-45 0 -82 34q-16 19 -24.5 40.5t-8.5 47.5q0 42 34 81q34 31 81 31
q26 0 44.5 -6t37.5 -24q16 -18 24.5 -38t8.5 -44zM493 1805q0 -51 -33 -89q-17 -16 -36.5 -24.5t-43.5 -8.5q-49 0 -84 34q-17 19 -25.5 40t-8.5 48q0 43 35 81q18 17 37.5 24t45.5 7q25 0 43 -6t36 -24q34 -37 34 -82z" />
    <glyph glyph-name="multiply" unicode="&#xd7;" horiz-adv-x="1740" 
d="M1465 148l-105 -106l-481 477l-478 -477l-104 106l475 474l-475 478l104 104l478 -472l481 472l105 -104l-475 -478z" />
    <glyph glyph-name="Oslash" unicode="&#xd8;" horiz-adv-x="1140" 
d="M1082 756q0 -359 -140.5 -567t-373.5 -208q-63 0 -121 16q-27 8 -55.5 21t-61.5 34l-71 -183h-101l103 246q-50 51 -87.5 115t-63.5 144.5t-37 176.5t-11 205q0 184 32.5 321.5t104.5 245.5q138 203 369 203h47q38 -2 75 -12q30 -10 54 -20.5t64 -32.5l52 128h101
l-80 -194q50 -52 87 -118t64 -148q50 -165 50 -373zM746 1308q-15 28 -32 46.5t-45 33.5q-44 26 -101 26q-69 0 -117 -36t-75 -110t-40.5 -215t-13.5 -341q0 -44 2.5 -110.5t2.5 -71.5q0 -43 10.5 -97.5l15.5 -81.5zM820 756q0 45 -4.5 118t-4.5 92q0 43 -5 90l-12 91l-17 2
l-386 -946q22 -30 42 -52t41.5 -33.5t43.5 -18t50 -6.5q137 0 194 148q27 75 42.5 204.5t15.5 310.5z" />
    <glyph glyph-name="Ugrave" unicode="&#xd9;" horiz-adv-x="1174" 
d="M1092 1461q0 -15 -7.5 -27t-23.5 -24l-22 -20q-18 -13 -25 -47t-7 -113v-723q0 -268 -107.5 -397.5t-327.5 -129.5q-108 0 -189 36.5t-132 108.5q-42 54 -61 134q-9 34 -12 97.5t-3 160.5v713q0 41 -2.5 63t-8.5 45q-3 21 -8.5 32.5t-16.5 19.5l-22 20q-27 19 -27 51v40
h402v-40q0 -28 -33 -51l-20 -19q-17 -14 -25 -53.5t-8 -107.5v-707q0 -229 46 -314q52 -86 176 -86q134 0 193 98q55 101 55 344l3 665q0 41 -2.5 63t-8.5 45q-6 38 -24 53l-20 19q-15 10 -23.5 23.5t-9.5 27.5l2 40h299v-40zM778 1641h-64l-338 172q-34 19 -48 28
q-21 14 -30 25q-20 20 -20 51q0 36 26 59q23 25 60 25q29 0 60.5 -19.5t77.5 -64.5z" />
    <glyph glyph-name="Uacute" unicode="&#xda;" horiz-adv-x="1174" 
d="M1092 1461q0 -15 -7.5 -27t-23.5 -24l-22 -20q-18 -13 -25 -47t-7 -113v-723q0 -268 -107.5 -397.5t-327.5 -129.5q-108 0 -189 36.5t-132 108.5q-42 54 -61 134q-9 34 -12 97.5t-3 160.5v713q0 41 -2.5 63t-8.5 45q-3 21 -8.5 32.5t-16.5 19.5l-22 20q-27 19 -27 51v40
h402v-40q0 -28 -33 -51l-20 -19q-17 -14 -25 -53.5t-8 -107.5v-707q0 -229 46 -314q52 -86 176 -86q134 0 193 98q55 101 55 344l3 665q0 41 -2.5 63t-8.5 45q-6 38 -24 53l-20 19q-15 10 -23.5 23.5t-9.5 27.5l2 40h299v-40zM892 1917q0 -18 -8 -33q-4 -8 -13 -18
q-7 -11 -25.5 -23t-51.5 -30l-335 -172h-67l277 276q20 20 41 38q17 14 35 27q33 19 62 19q35 0 60 -25q25 -23 25 -59z" />
    <glyph glyph-name="Ucircumflex" unicode="&#xdb;" horiz-adv-x="1174" 
d="M1092 1461q0 -15 -7.5 -27t-23.5 -24l-22 -20q-18 -13 -25 -47t-7 -113v-723q0 -268 -107.5 -397.5t-327.5 -129.5q-108 0 -189 36.5t-132 108.5q-42 54 -61 134q-9 34 -12 97.5t-3 160.5v713q0 41 -2.5 63t-8.5 45q-3 21 -8.5 32.5t-16.5 19.5l-22 20q-27 19 -27 51v40
h402v-40q0 -28 -33 -51l-20 -19q-17 -14 -25 -53.5t-8 -107.5v-707q0 -229 46 -314q52 -86 176 -86q134 0 193 98q55 101 55 344l3 665q0 41 -2.5 63t-8.5 45q-6 38 -24 53l-20 19q-15 10 -23.5 23.5t-9.5 27.5l2 40h299v-40zM886 1641h-63l-236 193l-239 -193h-64l226 343
h151z" />
    <glyph glyph-name="Udieresis" unicode="&#xdc;" horiz-adv-x="1174" 
d="M1092 1461q0 -15 -7.5 -27t-23.5 -24l-22 -20q-18 -13 -25 -47t-7 -113v-723q0 -268 -107.5 -397.5t-327.5 -129.5q-108 0 -189 36.5t-132 108.5q-42 54 -61 134q-9 34 -12 97.5t-3 160.5v713q0 41 -2.5 63t-8.5 45q-3 21 -8.5 32.5t-16.5 19.5l-22 20q-27 19 -27 51v40
h402v-40q0 -28 -33 -51l-20 -19q-17 -14 -25 -53.5t-8 -107.5v-707q0 -229 46 -314q52 -86 176 -86q134 0 193 98q55 101 55 344l3 665q0 41 -2.5 63t-8.5 45q-6 38 -24 53l-20 19q-15 10 -23.5 23.5t-9.5 27.5l2 40h299v-40zM890 1805q0 -51 -32 -89q-18 -16 -37.5 -24.5
t-45.5 -8.5q-45 0 -82 34q-16 19 -24.5 40.5t-8.5 47.5q0 42 34 81q34 31 81 31q26 0 44.5 -6t37.5 -24q16 -18 24.5 -38t8.5 -44zM509 1805q0 -51 -33 -89q-17 -16 -36.5 -24.5t-43.5 -8.5q-49 0 -84 34q-17 19 -25.5 40t-8.5 48q0 43 35 81q18 17 37.5 24t45.5 7
q25 0 43 -6t36 -24q34 -37 34 -82z" />
    <glyph glyph-name="Yacute" unicode="&#xdd;" horiz-adv-x="901" 
d="M917 1461q0 -28 -41 -58q-45 -36 -63 -79l-237 -585v-460q0 -78 5 -103.5t10 -36t17 -20.5l28 -18q35 -23 35 -52v-44h-420v44q0 16 7.5 29t24.5 23l26 20q17 15 25 48q3 15 5 42t2 68v435l-253 583l-6 15q-27 67 -74 96q-12 6 -17 11t-10.5 14t-7 14t-1.5 14l1 40h426
v-40q0 -29 -38 -57q-39 -33 -39 -74l3 -33q2 -12 4.5 -18.5t7.5 -16.5l175 -386l158 396l11 37q1 4 4 12t3 11q0 40 -44 75q-38 24 -38 54l1 40h310v-40zM759 1917q0 -18 -8 -33q-4 -8 -13 -18q-7 -11 -25.5 -23t-51.5 -30l-335 -172h-67l277 276q20 20 41 38q17 14 35 27
q33 19 62 19q35 0 60 -25q25 -23 25 -59z" />
    <glyph glyph-name="Thorn" unicode="&#xde;" horiz-adv-x="1005" 
d="M969 781q0 -197 -125 -307q-63 -54 -151.5 -80.5t-207.5 -26.5h-36l-35 4v-92q0 -81 7 -110q5 -32 27 -50l24 -18q36 -23 36 -52v-44h-420v44q0 33 29 52l16 10q9 6 13 10q17 16 24 48q3 15 5 42t2 68l4 951q0 41 -2.5 63t-8.5 45q-6 38 -24 53l-22 19q-30 22 -30 51
l1 40h403v-40q0 -29 -31 -51l-19 -19q-16 -14 -27 -53q-7 -27 -7 -108v-53l36 -2q5 0 18.5 2.5t20.5 2.5q223 0 351.5 -107t128.5 -292zM713 775q0 144 -63.5 217.5t-191.5 73.5q-15 0 -18 -1q-15 0 -26 -3v-575q9 0 16 -2t13 -4q2 0 12 -2t19 -2q64 0 108.5 18.5t74.5 55.5
q27 36 41.5 93t14.5 131z" />
    <glyph glyph-name="germandbls" unicode="&#xdf;" horiz-adv-x="895" 
d="M844 385q0 -192 -84 -298.5t-226 -106.5q-23 0 -41 3t-23.5 4.5t-14.5 5.5v110l20 -5l33 -4q60 0 87 67q12 34 18.5 92t6.5 144q0 92 -10 155.5t-30 113.5q-36 88 -120 88q-9 2 -14 -1q2 -4 7 -4l2 103q58 16 91 72q28 61 28 196q0 151 -27 223q-34 69 -102 69
q-63 0 -86.5 -48t-23.5 -221v-1138h-267v44q0 13 5.5 23.5t20.5 19.5l16 15q7 11 9.5 17t5.5 21l5 72l2 543h-90v59q0 16 5.5 27t20.5 20l25 13q12 9 19 17t12 21q12 31 12 71l4 73q0 99 15.5 174t42.5 125q38 70 100 105q34 19 69.5 29t77.5 10q78 0 136.5 -22.5
t100.5 -67.5q85 -89 85 -260q0 -119 -54.5 -203.5t-151.5 -114.5v-17q140 -21 210 -130q37 -57 55 -131t18 -173z" />
    <glyph glyph-name="agrave" unicode="&#xe0;" horiz-adv-x="783" 
d="M782 33q-14 -12 -28.5 -20.5t-35.5 -16.5q-35 -16 -76 -16q-53 0 -85 26q-17 11 -31.5 34t-34.5 68q-23 -36 -46.5 -58t-53.5 -40q-53 -28 -122 -28q-99 0 -159 66t-60 177q0 139 107 220q57 46 128 70q82 28 183 28l-4 85q0 53 -6.5 85.5t-19.5 50.5q-26 30 -82 30
l-26 -4l-14 -3.5t-14 -5.5q0 -16 2 -20.5t4 -10t2 -8.5q0 -61 -29 -96q-31 -33 -81 -33q-42 0 -70 31q-28 27 -28 73q0 71 72.5 121.5t187.5 50.5q153 0 229.5 -81t76.5 -245l2 -336q0 -137 72 -137l15 3zM476 314v129q-57 0 -96 -16t-73 -48q-54 -56 -54 -152
q-2 -14 -2 -20q0 -20 6 -37.5t17 -34.5q30 -38 77 -38q59 0 95 54q29 50 29 145zM574 1014h-64l-338 172q-34 19 -48 28q-21 14 -30 25q-20 20 -20 51q0 36 26 59q23 25 60 25q29 0 60.5 -19.5t77.5 -64.5z" />
    <glyph glyph-name="aacute" unicode="&#xe1;" horiz-adv-x="783" 
d="M782 33q-14 -12 -28.5 -20.5t-35.5 -16.5q-35 -16 -76 -16q-53 0 -85 26q-17 11 -31.5 34t-34.5 68q-23 -36 -46.5 -58t-53.5 -40q-53 -28 -122 -28q-99 0 -159 66t-60 177q0 139 107 220q57 46 128 70q82 28 183 28l-4 85q0 53 -6.5 85.5t-19.5 50.5q-26 30 -82 30
l-26 -4l-14 -3.5t-14 -5.5q0 -16 2 -20.5t4 -10t2 -8.5q0 -61 -29 -96q-31 -33 -81 -33q-42 0 -70 31q-28 27 -28 73q0 71 72.5 121.5t187.5 50.5q153 0 229.5 -81t76.5 -245l2 -336q0 -137 72 -137l15 3zM476 314v129q-57 0 -96 -16t-73 -48q-54 -56 -54 -152
q-2 -14 -2 -20q0 -20 6 -37.5t17 -34.5q30 -38 77 -38q59 0 95 54q29 50 29 145zM688 1290q0 -18 -8 -33q-4 -8 -13 -18q-7 -11 -25.5 -23t-51.5 -30l-335 -172h-67l277 276q20 20 41 38q17 14 35 27q33 19 62 19q35 0 60 -25q25 -23 25 -59z" />
    <glyph glyph-name="acircumflex" unicode="&#xe2;" horiz-adv-x="783" 
d="M782 33q-14 -12 -28.5 -20.5t-35.5 -16.5q-35 -16 -76 -16q-53 0 -85 26q-17 11 -31.5 34t-34.5 68q-23 -36 -46.5 -58t-53.5 -40q-53 -28 -122 -28q-99 0 -159 66t-60 177q0 139 107 220q57 46 128 70q82 28 183 28l-4 85q0 53 -6.5 85.5t-19.5 50.5q-26 30 -82 30
l-26 -4l-14 -3.5t-14 -5.5q0 -16 2 -20.5t4 -10t2 -8.5q0 -61 -29 -96q-31 -33 -81 -33q-42 0 -70 31q-28 27 -28 73q0 71 72.5 121.5t187.5 50.5q153 0 229.5 -81t76.5 -245l2 -336q0 -137 72 -137l15 3zM476 314v129q-57 0 -96 -16t-73 -48q-54 -56 -54 -152
q-2 -14 -2 -20q0 -20 6 -37.5t17 -34.5q30 -38 77 -38q59 0 95 54q29 50 29 145zM682 1014h-63l-236 193l-239 -193h-64l226 343h151z" />
    <glyph glyph-name="atilde" unicode="&#xe3;" horiz-adv-x="783" 
d="M782 33q-14 -12 -28.5 -20.5t-35.5 -16.5q-35 -16 -76 -16q-53 0 -85 26q-17 11 -31.5 34t-34.5 68q-23 -36 -46.5 -58t-53.5 -40q-53 -28 -122 -28q-99 0 -159 66t-60 177q0 139 107 220q57 46 128 70q82 28 183 28l-4 85q0 53 -6.5 85.5t-19.5 50.5q-26 30 -82 30
l-26 -4l-14 -3.5t-14 -5.5q0 -16 2 -20.5t4 -10t2 -8.5q0 -61 -29 -96q-31 -33 -81 -33q-42 0 -70 31q-28 27 -28 73q0 71 72.5 121.5t187.5 50.5q153 0 229.5 -81t76.5 -245l2 -336q0 -137 72 -137l15 3zM476 314v129q-57 0 -96 -16t-73 -48q-54 -56 -54 -152
q-2 -14 -2 -20q0 -20 6 -37.5t17 -34.5q30 -38 77 -38q59 0 95 54q29 50 29 145zM674 1330q-7 -54 -24 -95.5t-44 -76.5q-31 -34 -63 -51t-73 -17q-11 0 -24.5 2t-29.5 8l-114 31l-34 6l-29 2q-37 0 -64 -24q-14 -11 -26 -37q-6 -13 -14 -33h-49q9 60 26 103t43 76
q29 31 63.5 47t79.5 16q21 0 32 -2l29 -9l116 -27q3 -1 11 -3l12 -3l19 -1q21 0 37.5 5.5t29.5 18.5q23 20 41 64h49z" />
    <glyph glyph-name="adieresis" unicode="&#xe4;" horiz-adv-x="783" 
d="M782 33q-14 -12 -28.5 -20.5t-35.5 -16.5q-35 -16 -76 -16q-53 0 -85 26q-17 11 -31.5 34t-34.5 68q-23 -36 -46.5 -58t-53.5 -40q-53 -28 -122 -28q-99 0 -159 66t-60 177q0 139 107 220q57 46 128 70q82 28 183 28l-4 85q0 53 -6.5 85.5t-19.5 50.5q-26 30 -82 30
l-26 -4l-14 -3.5t-14 -5.5q0 -16 2 -20.5t4 -10t2 -8.5q0 -61 -29 -96q-31 -33 -81 -33q-42 0 -70 31q-28 27 -28 73q0 71 72.5 121.5t187.5 50.5q153 0 229.5 -81t76.5 -245l2 -336q0 -137 72 -137l15 3zM476 314v129q-57 0 -96 -16t-73 -48q-54 -56 -54 -152
q-2 -14 -2 -20q0 -20 6 -37.5t17 -34.5q30 -38 77 -38q59 0 95 54q29 50 29 145zM686 1178q0 -51 -32 -89q-18 -16 -37.5 -24.5t-45.5 -8.5q-45 0 -82 34q-16 19 -24.5 40.5t-8.5 47.5q0 42 34 81q34 31 81 31q26 0 44.5 -6t37.5 -24q16 -18 24.5 -38t8.5 -44zM305 1178
q0 -51 -33 -89q-17 -16 -36.5 -24.5t-43.5 -8.5q-49 0 -84 34q-17 19 -25.5 40t-8.5 48q0 43 35 81q18 17 37.5 24t45.5 7q25 0 43 -6t36 -24q34 -37 34 -82z" />
    <glyph glyph-name="aring" unicode="&#xe5;" horiz-adv-x="783" 
d="M614 1228q0 -103 -74 -176q-38 -37 -81.5 -55.5t-97.5 -18.5q-104 0 -178 74q-38 36 -56.5 79t-18.5 97q0 101 75 176q35 35 79 53.5t99 18.5q101 0 177 -72t76 -176zM781 32q-11 -9 -28 -19t-35 -17q-35 -16 -76 -16q-53 0 -85 26q-31 20 -68 102q-22 -37 -47 -61
q-20 -20 -52 -38q-55 -29 -121 -29q-100 0 -161.5 68.5t-61.5 174.5q0 140 103 221q55 44 128 69q82 28 182 28l-6 84q0 50 -8 83.5t-21 51.5q-25 29 -81 29l-26 -3l-14 -3.5t-14 -5.5q0 -16 1.5 -19.5t4 -10.5t2.5 -10q0 -62 -28 -93q-27 -33 -79 -33q-42 0 -72 31
q-24 24 -24 72q0 38 15 66.5t51 53.5q72 51 187 51q152 0 228 -80q40 -40 60.5 -100.5t20.5 -143.5l10 -336q0 -135 74 -135l15 3zM517 1228q0 30 -12.5 56t-36.5 49q-42 43 -107 43q-66 0 -108 -42q-44 -40 -44 -106q0 -32 10.5 -58.5t33.5 -48.5q45 -47 108 -47
q64 0 108 47q23 23 35.5 49t12.5 58zM471 294l-1 18l-5 129q-108 -10 -164 -63q-52 -55 -52 -153q0 -58 23 -91q14 -18 32 -27.5t45 -9.5q59 0 94 53q28 48 28 144z" />
    <glyph glyph-name="ae" unicode="&#xe6;" horiz-adv-x="1126" 
d="M1076 447h-410v-29v-29q0 -134 41 -203q24 -38 55.5 -57.5t74.5 -19.5q20 0 43 9t44 23.5t40 34.5q15 16 41 48l69 -55q-56 -92 -125 -137q-76 -52 -162 -52q-46 0 -82.5 7.5t-69 25t-60.5 43.5q-33 30 -59 71q-34 -44 -62.5 -70t-60.5 -45q-30 -16 -59 -24t-67 -8
q-98 0 -159.5 68t-61.5 177q0 142 103 221q56 44 127 69q81 28 181 28l-6 85q0 50 -8 84.5t-21 51.5q-26 30 -81 30l-24 -4l-30 -9q0 -16 2 -19q2 -7 4.5 -12.5t2.5 -7.5q0 -62 -28.5 -95.5t-79.5 -33.5q-39 0 -70 31q-26 26 -26 73q0 38 16 67t52 54q72 51 185 51
q71 0 127 -19q27 -10 50.5 -23t47.5 -34q26 21 49.5 34.5t46.5 22.5t51 12t58 3q70 0 122.5 -27t93.5 -86q85 -111 85 -314v-11zM880 547q0 74 -6 121t-18 77q-24 53 -81 53q-55 0 -79 -50q-12 -28 -21 -79t-9 -122h214zM469 296l-1 18l-5 129q-56 0 -94 -16t-69 -48
q-53 -53 -53 -152q0 -58 23 -93q29 -37 77 -37q61 0 94 54q28 48 28 145z" />
    <glyph glyph-name="ccedilla" unicode="&#xe7;" horiz-adv-x="702" 
d="M690 125q-52 -64 -128.5 -104.5t-170.5 -40.5q-154 0 -246.5 113.5t-92.5 313.5q0 117 24.5 201.5t76.5 150t122 97t157 31.5q53 0 90 -9.5t68 -33.5q62 -47 62 -113q0 -51 -30 -86q-17 -17 -35 -24.5t-46 -7.5q-42 0 -71 30q-11 14 -16 34t-5 48l-2 28q1 9 1.5 16.5
t4.5 26.5l-15 1q-5 2 -10.5 2.5t-11.5 0.5q-72 0 -106 -87t-34 -247q0 -175 43 -260q23 -46 57.5 -69.5t82.5 -23.5q21 0 42 7t50 20q37 18 78 60zM653 -282q0 -78 -62 -128.5t-166 -50.5q-76 0 -158 22q-43 14 -74 27q-43 18 -77 38l30 64q68 -33 127 -51q31 -9 62.5 -15.5
t55.5 -6.5q28 0 49 7t36.5 20t24 32.5t8.5 46.5q0 20 -9 39.5t-25 33.5q-35 22 -88 22q-6 1 -12 1q-9 0 -29 -6l-9 -1v181h48v-111h21q11 0 25 2l36 2q81 0 135 -46q26 -24 38.5 -53t12.5 -69z" />
    <glyph glyph-name="egrave" unicode="&#xe8;" horiz-adv-x="740" 
d="M690 449h-415v-15q0 -6 -2 -16v-29q0 -131 42 -202q22 -37 55 -57.5t76 -20.5q22 0 43.5 9t46.5 26q37 24 82 83l68 -56q-27 -45 -58.5 -79.5t-69.5 -58.5q-75 -53 -162 -53q-161 0 -252.5 119t-91.5 338q0 109 21 188.5t67.5 141t107.5 91t138 29.5q70 0 123.5 -26.5
t95.5 -86.5q85 -115 85 -314v-11zM489 549q0 76 -5 119.5t-17 77.5q-22 54 -81 54q-56 0 -81 -51q-14 -28 -23 -78.5t-9 -121.5h216zM584 1014h-64l-338 172q-34 19 -48 28q-21 14 -30 25q-20 20 -20 51q0 36 26 59q23 25 60 25q29 0 60.5 -19.5t77.5 -64.5z" />
    <glyph glyph-name="eacute" unicode="&#xe9;" horiz-adv-x="740" 
d="M690 449h-415v-15q0 -6 -2 -16v-29q0 -131 42 -202q22 -37 55 -57.5t76 -20.5q22 0 43.5 9t46.5 26q37 24 82 83l68 -56q-27 -45 -58.5 -79.5t-69.5 -58.5q-75 -53 -162 -53q-161 0 -252.5 119t-91.5 338q0 109 21 188.5t67.5 141t107.5 91t138 29.5q70 0 123.5 -26.5
t95.5 -86.5q85 -115 85 -314v-11zM489 549q0 76 -5 119.5t-17 77.5q-22 54 -81 54q-56 0 -81 -51q-14 -28 -23 -78.5t-9 -121.5h216zM698 1290q0 -18 -8 -33q-4 -8 -13 -18q-7 -11 -25.5 -23t-51.5 -30l-335 -172h-67l277 276q20 20 41 38q17 14 35 27q33 19 62 19
q35 0 60 -25q25 -23 25 -59z" />
    <glyph glyph-name="ecircumflex" unicode="&#xea;" horiz-adv-x="740" 
d="M690 449h-415v-15q0 -6 -2 -16v-29q0 -131 42 -202q22 -37 55 -57.5t76 -20.5q22 0 43.5 9t46.5 26q37 24 82 83l68 -56q-27 -45 -58.5 -79.5t-69.5 -58.5q-75 -53 -162 -53q-161 0 -252.5 119t-91.5 338q0 109 21 188.5t67.5 141t107.5 91t138 29.5q70 0 123.5 -26.5
t95.5 -86.5q85 -115 85 -314v-11zM489 549q0 76 -5 119.5t-17 77.5q-22 54 -81 54q-56 0 -81 -51q-14 -28 -23 -78.5t-9 -121.5h216zM692 1014h-63l-236 193l-239 -193h-64l226 343h151z" />
    <glyph glyph-name="edieresis" unicode="&#xeb;" horiz-adv-x="740" 
d="M690 449h-415v-15q0 -6 -2 -16v-29q0 -131 42 -202q22 -37 55 -57.5t76 -20.5q22 0 43.5 9t46.5 26q37 24 82 83l68 -56q-27 -45 -58.5 -79.5t-69.5 -58.5q-75 -53 -162 -53q-161 0 -252.5 119t-91.5 338q0 109 21 188.5t67.5 141t107.5 91t138 29.5q70 0 123.5 -26.5
t95.5 -86.5q85 -115 85 -314v-11zM489 549q0 76 -5 119.5t-17 77.5q-22 54 -81 54q-56 0 -81 -51q-14 -28 -23 -78.5t-9 -121.5h216zM696 1178q0 -51 -32 -89q-18 -16 -37.5 -24.5t-45.5 -8.5q-45 0 -82 34q-16 19 -24.5 40.5t-8.5 47.5q0 42 34 81q34 31 81 31
q26 0 44.5 -6t37.5 -24q16 -18 24.5 -38t8.5 -44zM315 1178q0 -51 -33 -89q-17 -16 -36.5 -24.5t-43.5 -8.5q-49 0 -84 34q-17 19 -25.5 40t-8.5 48q0 43 35 81q18 17 37.5 24t45.5 7q25 0 43 -6t36 -24q34 -37 34 -82z" />
    <glyph glyph-name="igrave" unicode="&#xec;" horiz-adv-x="470" 
d="M409 5h-339v44q0 14 5.5 24t20.5 19l16 15q7 11 9.5 17t7 27.5t4.5 66.5l5 434q0 19 -3 36t-8 36q-3 20 -15 39l-16 15q-30 21 -30 43l1 45l278 4v-652v-35t4 -35q3 -27 13 -42l19 -14q28 -19 28 -43v-44zM434 1014h-64l-338 172q-34 19 -48 28q-21 14 -30 25
q-20 20 -20 51q0 36 26 59q23 25 60 25q29 0 60.5 -19.5t77.5 -64.5z" />
    <glyph glyph-name="iacute" unicode="&#xed;" horiz-adv-x="470" 
d="M409 5h-339v44q0 14 5.5 24t20.5 19l16 15q7 11 9.5 17t7 27.5t4.5 66.5l5 434q0 19 -3 36t-8 36q-3 20 -15 39l-16 15q-30 21 -30 43l1 45l278 4v-652v-35t4 -35q3 -27 13 -42l19 -14q28 -19 28 -43v-44zM548 1290q0 -18 -8 -33q-4 -8 -13 -18q-7 -11 -25.5 -23
t-51.5 -30l-335 -172h-67l277 276q20 20 41 38q17 14 35 27q33 19 62 19q35 0 60 -25q25 -23 25 -59z" />
    <glyph glyph-name="icircumflex" unicode="&#xee;" horiz-adv-x="470" 
d="M409 5h-339v44q0 14 5.5 24t20.5 19l16 15q7 11 9.5 17t7 27.5t4.5 66.5l5 434q0 19 -3 36t-8 36q-3 20 -15 39l-16 15q-30 21 -30 43l1 45l278 4v-652v-35t4 -35q3 -27 13 -42l19 -14q28 -19 28 -43v-44zM542 1014h-63l-236 193l-239 -193h-64l226 343h151z" />
    <glyph glyph-name="idieresis" unicode="&#xef;" horiz-adv-x="470" 
d="M409 5h-339v44q0 14 5.5 24t20.5 19l16 15q7 11 9.5 17t7 27.5t4.5 66.5l5 434q0 19 -3 36t-8 36q-3 20 -15 39l-16 15q-30 21 -30 43l1 45l278 4v-652v-35t4 -35q3 -27 13 -42l19 -14q28 -19 28 -43v-44zM546 1178q0 -51 -32 -89q-18 -16 -37.5 -24.5t-45.5 -8.5
q-45 0 -82 34q-16 19 -24.5 40.5t-8.5 47.5q0 42 34 81q34 31 81 31q26 0 44.5 -6t37.5 -24q16 -18 24.5 -38t8.5 -44zM165 1178q0 -51 -33 -89q-17 -16 -36.5 -24.5t-43.5 -8.5q-49 0 -84 34q-17 19 -25.5 40t-8.5 48q0 43 35 81q18 17 37.5 24t45.5 7q25 0 43 -6t36 -24
q34 -37 34 -82z" />
    <glyph glyph-name="eth" unicode="&#xf0;" horiz-adv-x="769" 
d="M721 483q0 -242 -89.5 -372.5t-248.5 -130.5q-150 0 -242 123q-46 60 -67.5 141.5t-21.5 189.5q0 103 20.5 183.5t65.5 142.5t100.5 92t124.5 30q18 0 36 1q14 0 26.5 -1t40.5 -6l-25.5 73t-24 64.5t-28.5 62.5q-26 52 -31 64l-209 -80l-29 76l197 78q-27 54 -46 88
q-24 44 -44 74l-36 59q-20 32 -38 53l41 24l55 -52.5l58 -58.5q37 -36 62 -63q31 -34 69 -80l208 77l30 -75l-181 -74q59 -82 102.5 -167t69.5 -167q55 -171 55 -369zM492 434q0 228 -22 292q-10 37 -31 53.5t-56 16.5q-33 0 -54 -17.5t-33 -58.5q-20 -72 -20 -286
q0 -226 21.5 -295.5t85.5 -69.5t87 74q10 32 16 104t6 187z" />
    <glyph glyph-name="ntilde" unicode="&#xf1;" horiz-adv-x="871" 
d="M811 5h-331v44q0 12 5.5 23t19.5 19l17 16q11 13 14 38q5 22 5 73l4 379q0 44 -6 73.5t-16 44.5q-19 33 -74 33q-16 0 -31.5 -4.5t-30 -14t-25.5 -22t-25 -34.5v-455q0 -20 0.5 -35.5t3.5 -38.5t13 -38l18 -14q29 -18 29 -43v-44h-331v44q0 15 4.5 24t19.5 19l16 14
q6 7 10.5 16.5t8 27.5t3.5 68l4 434q0 20 -2.5 39t-6.5 32q-1 11 -5.5 21.5t-11.5 18.5l-16 14q-14 11 -21 21t-7 23l1 45l270 4l2 -109q26 37 56 63q23 20 50 35q47 25 105 25q98 0 147 -64.5t49 -203.5v-398q0 -46 4 -69q3 -28 15 -43l19 -15q27 -19 27 -42v-44zM731 1330
q-7 -54 -24 -95.5t-44 -76.5q-31 -34 -63 -51t-73 -17q-11 0 -24.5 2t-29.5 8l-114 31l-34 6l-29 2q-37 0 -64 -24q-14 -11 -26 -37q-6 -13 -14 -33h-49q9 60 26 103t43 76q29 31 63.5 47t79.5 16q21 0 32 -2l29 -9l116 -27q3 -1 11 -3l12 -3l19 -1q21 0 37.5 5.5t29.5 18.5
q23 20 41 64h49z" />
    <glyph glyph-name="ograve" unicode="&#xf2;" horiz-adv-x="769" 
d="M719 437q0 -213 -91.5 -335t-244.5 -122q-150 0 -242 123q-47 62 -68 143t-21 191q0 109 20.5 188.5t67 141.5t107 91t136.5 29q77 0 136.5 -28.5t105.5 -90.5q94 -122 94 -331zM492 437q0 230 -22 293q-10 37 -31 53.5t-56 16.5q-33 0 -54 -17.5t-33 -58.5
q-20 -72 -20 -287q0 -227 21 -297.5t86 -70.5t87 76q10 32 16 104t6 188zM580 1014h-64l-338 172q-34 19 -48 28q-21 14 -30 25q-20 20 -20 51q0 36 26 59q23 25 60 25q29 0 60.5 -19.5t77.5 -64.5z" />
    <glyph glyph-name="oacute" unicode="&#xf3;" horiz-adv-x="769" 
d="M719 437q0 -213 -91.5 -335t-244.5 -122q-150 0 -242 123q-47 62 -68 143t-21 191q0 109 20.5 188.5t67 141.5t107 91t136.5 29q77 0 136.5 -28.5t105.5 -90.5q94 -122 94 -331zM492 437q0 230 -22 293q-10 37 -31 53.5t-56 16.5q-33 0 -54 -17.5t-33 -58.5
q-20 -72 -20 -287q0 -227 21 -297.5t86 -70.5t87 76q10 32 16 104t6 188zM694 1290q0 -18 -8 -33q-4 -8 -13 -18q-7 -11 -25.5 -23t-51.5 -30l-335 -172h-67l277 276q20 20 41 38q17 14 35 27q33 19 62 19q35 0 60 -25q25 -23 25 -59z" />
    <glyph glyph-name="ocircumflex" unicode="&#xf4;" horiz-adv-x="769" 
d="M719 437q0 -213 -91.5 -335t-244.5 -122q-150 0 -242 123q-47 62 -68 143t-21 191q0 109 20.5 188.5t67 141.5t107 91t136.5 29q77 0 136.5 -28.5t105.5 -90.5q94 -122 94 -331zM492 437q0 230 -22 293q-10 37 -31 53.5t-56 16.5q-33 0 -54 -17.5t-33 -58.5
q-20 -72 -20 -287q0 -227 21 -297.5t86 -70.5t87 76q10 32 16 104t6 188zM688 1014h-63l-236 193l-239 -193h-64l226 343h151z" />
    <glyph glyph-name="otilde" unicode="&#xf5;" horiz-adv-x="769" 
d="M719 437q0 -213 -91.5 -335t-244.5 -122q-150 0 -242 123q-47 62 -68 143t-21 191q0 109 20.5 188.5t67 141.5t107 91t136.5 29q77 0 136.5 -28.5t105.5 -90.5q94 -122 94 -331zM492 437q0 230 -22 293q-10 37 -31 53.5t-56 16.5q-33 0 -54 -17.5t-33 -58.5
q-20 -72 -20 -287q0 -227 21 -297.5t86 -70.5t87 76q10 32 16 104t6 188zM680 1330q-7 -54 -24 -95.5t-44 -76.5q-31 -34 -63 -51t-73 -17q-11 0 -24.5 2t-29.5 8l-114 31l-34 6l-29 2q-37 0 -64 -24q-14 -11 -26 -37q-6 -13 -14 -33h-49q9 60 26 103t43 76q29 31 63.5 47
t79.5 16q21 0 32 -2l29 -9l116 -27q3 -1 11 -3l12 -3l19 -1q21 0 37.5 5.5t29.5 18.5q23 20 41 64h49z" />
    <glyph glyph-name="odieresis" unicode="&#xf6;" horiz-adv-x="769" 
d="M719 437q0 -213 -91.5 -335t-244.5 -122q-150 0 -242 123q-47 62 -68 143t-21 191q0 109 20.5 188.5t67 141.5t107 91t136.5 29q77 0 136.5 -28.5t105.5 -90.5q94 -122 94 -331zM492 437q0 230 -22 293q-10 37 -31 53.5t-56 16.5q-33 0 -54 -17.5t-33 -58.5
q-20 -72 -20 -287q0 -227 21 -297.5t86 -70.5t87 76q10 32 16 104t6 188zM692 1178q0 -51 -32 -89q-18 -16 -37.5 -24.5t-45.5 -8.5q-45 0 -82 34q-16 19 -24.5 40.5t-8.5 47.5q0 42 34 81q34 31 81 31q26 0 44.5 -6t37.5 -24q16 -18 24.5 -38t8.5 -44zM311 1178
q0 -51 -33 -89q-17 -16 -36.5 -24.5t-43.5 -8.5q-49 0 -84 34q-17 19 -25.5 40t-8.5 48q0 43 35 81q18 17 37.5 24t45.5 7q25 0 43 -6t36 -24q34 -37 34 -82z" />
    <glyph glyph-name="divide" unicode="&#xf7;" horiz-adv-x="1740" 
d="M1002 1013q0 -27 -9.5 -48.5t-29.5 -41t-42.5 -30t-49.5 -10.5q-28 0 -49.5 9.5t-44.5 29.5q-33 34 -33 91q0 30 7 50.5t27 42.5q21 20 42.5 29.5t50.5 9.5q52 0 91 -39q20 -22 30 -44t10 -49zM1479 548h-1216v147h1216v-147zM1002 230q0 -27 -10 -49t-30 -42
q-38 -38 -91 -38t-94 38q-33 33 -33 91q0 29 7.5 50.5t27.5 41.5t41 29.5t51 9.5q52 0 91 -40q19 -19 29.5 -41.5t10.5 -49.5z" />
    <glyph glyph-name="oslash" unicode="&#xf8;" horiz-adv-x="769" 
d="M719 437q0 -108 -22.5 -189t-70.5 -144q-90 -123 -241 -123q-22 0 -33 1t-34.5 6t-36.5 9t-32 13l-54 -134h-78l73 174q-35 38 -62 82t-45 91q-33 96 -33 214q0 208 93 329q45 61 105.5 90.5t136.5 29.5h26h20t28 -4t63 -19l40 97h76l-55 -139q33 -35 58 -74.5t44 -89.5
q34 -93 34 -220zM480 746q-9 15 -18 25.5t-19 16.5q-21 12 -58 12q-74 0 -100 -70t-26 -270q0 -11 2.5 -62.5t2.5 -80.5l4 -68l17 -5zM516 422l-6 96l-3 117l-16 3l-198 -508q6 -16 13.5 -25.5t19.5 -18.5q28 -10 59 -10q72 0 102 70q12 35 20.5 107t8.5 169z" />
    <glyph glyph-name="ugrave" unicode="&#xf9;" horiz-adv-x="863" 
d="M805 5l-268 -4l-3 114q-29 -41 -58 -67q-21 -19 -50 -36q-47 -25 -105 -25q-98 0 -149 64q-23 30 -34 81t-11 123v397q0 20 -2.5 39t-5.5 33q-3 26 -17 39l-15 13q-27 22 -27 45l1 45l270 6v-600q0 -89 15 -118q10 -17 27 -27t43 -10q14 0 27.5 4t35.5 18q28 19 55 61
l4 452q0 19 -2.5 35.5t-6.5 33.5q-1 11 -4 21.5t-12 20.5l-15 13q-13 10 -18.5 20.5t-5.5 24.5v45l266 6v-653q0 -49 4 -70q3 -28 15 -43l18 -14q28 -19 28 -42v-45zM627 1014h-64l-338 172q-34 19 -48 28q-21 14 -30 25q-20 20 -20 51q0 36 26 59q23 25 60 25
q29 0 60.5 -19.5t77.5 -64.5z" />
    <glyph glyph-name="uacute" unicode="&#xfa;" horiz-adv-x="863" 
d="M805 5l-268 -4l-3 114q-29 -41 -58 -67q-21 -19 -50 -36q-47 -25 -105 -25q-98 0 -149 64q-23 30 -34 81t-11 123v397q0 20 -2.5 39t-5.5 33q-3 26 -17 39l-15 13q-27 22 -27 45l1 45l270 6v-600q0 -89 15 -118q10 -17 27 -27t43 -10q14 0 27.5 4t35.5 18q28 19 55 61
l4 452q0 19 -2.5 35.5t-6.5 33.5q-1 11 -4 21.5t-12 20.5l-15 13q-13 10 -18.5 20.5t-5.5 24.5v45l266 6v-653q0 -49 4 -70q3 -28 15 -43l18 -14q28 -19 28 -42v-45zM741 1290q0 -18 -8 -33q-4 -8 -13 -18q-7 -11 -25.5 -23t-51.5 -30l-335 -172h-67l277 276q20 20 41 38
q17 14 35 27q33 19 62 19q35 0 60 -25q25 -23 25 -59z" />
    <glyph glyph-name="ucircumflex" unicode="&#xfb;" horiz-adv-x="863" 
d="M805 5l-268 -4l-3 114q-29 -41 -58 -67q-21 -19 -50 -36q-47 -25 -105 -25q-98 0 -149 64q-23 30 -34 81t-11 123v397q0 20 -2.5 39t-5.5 33q-3 26 -17 39l-15 13q-27 22 -27 45l1 45l270 6v-600q0 -89 15 -118q10 -17 27 -27t43 -10q14 0 27.5 4t35.5 18q28 19 55 61
l4 452q0 19 -2.5 35.5t-6.5 33.5q-1 11 -4 21.5t-12 20.5l-15 13q-13 10 -18.5 20.5t-5.5 24.5v45l266 6v-653q0 -49 4 -70q3 -28 15 -43l18 -14q28 -19 28 -42v-45zM735 1014h-63l-236 193l-239 -193h-64l226 343h151z" />
    <glyph glyph-name="udieresis" unicode="&#xfc;" horiz-adv-x="863" 
d="M805 5l-268 -4l-3 114q-29 -41 -58 -67q-21 -19 -50 -36q-47 -25 -105 -25q-98 0 -149 64q-23 30 -34 81t-11 123v397q0 20 -2.5 39t-5.5 33q-3 26 -17 39l-15 13q-27 22 -27 45l1 45l270 6v-600q0 -89 15 -118q10 -17 27 -27t43 -10q14 0 27.5 4t35.5 18q28 19 55 61
l4 452q0 19 -2.5 35.5t-6.5 33.5q-1 11 -4 21.5t-12 20.5l-15 13q-13 10 -18.5 20.5t-5.5 24.5v45l266 6v-653q0 -49 4 -70q3 -28 15 -43l18 -14q28 -19 28 -42v-45zM739 1178q0 -51 -32 -89q-18 -16 -37.5 -24.5t-45.5 -8.5q-45 0 -82 34q-16 19 -24.5 40.5t-8.5 47.5
q0 42 34 81q34 31 81 31q26 0 44.5 -6t37.5 -24q16 -18 24.5 -38t8.5 -44zM358 1178q0 -51 -33 -89q-17 -16 -36.5 -24.5t-43.5 -8.5q-49 0 -84 34q-17 19 -25.5 40t-8.5 48q0 43 35 81q18 17 37.5 24t45.5 7q25 0 43 -6t36 -24q34 -37 34 -82z" />
    <glyph glyph-name="yacute" unicode="&#xfd;" horiz-adv-x="710" 
d="M729 824q0 -22 -33 -42l-11 -6q-20 -11 -32 -25t-20 -43l-5 -13l-237 -690q-39 -111 -73 -182.5t-65 -110.5q-31 -35 -66 -52.5t-78 -17.5q-54 0 -92 30q-33 31 -33 77q0 44 27 77q32 32 71 32q27 0 50 -15t45 -54q9 8 18 15q14 13 20 25q11 16 21 50l54 168l-198 645
q2 4 -1 8q-8 29 -21.5 47t-31.5 29q-10 3 -12 5q-34 18 -34 43l1 40h369v-40q0 -11 -6.5 -20t-21.5 -23q-35 -29 -35 -54v-12q0 -6 2 -9l112 -358l115 360l1 7q2 3 3 6t1 6q0 24 -36 53q-27 24 -27 44l1 40h258v-40zM665 1290q0 -18 -8 -33q-4 -8 -13 -18q-7 -11 -25.5 -23
t-51.5 -30l-335 -172h-67l277 276q20 20 41 38q17 14 35 27q33 19 62 19q35 0 60 -25q25 -23 25 -59z" />
    <glyph glyph-name="thorn" unicode="&#xfe;" horiz-adv-x="851" 
d="M794 431q0 -204 -83 -326q-39 -58 -92 -88.5t-120 -30.5q-40 0 -73 13q-24 9 -39 16q-23 11 -54 32l-2 -193q0 -41 3 -67.5t13 -42.5l18 -17q28 -19 28 -41v-44h-329v44q0 14 4.5 23t18.5 19l15 14q13 9 17 40l4 72l4 1432q0 21 -2.5 39.5t-5.5 33.5q-3 27 -16 37l-16 18
q-27 22 -27 41l1 44l270 5l2 -719q22 27 47 45q17 13 43 26q38 20 93 20q59 0 108 -30.5t88 -90.5q82 -127 82 -324zM568 431q0 77 -9 135.5t-26 99.5q-32 81 -109 81q-22 0 -51 -10q-12 -6 -21.5 -13t-20.5 -19v-540l20 -21q13 -12 22 -17l25.5 -9.5t25.5 -4.5q72 0 109 83
q18 44 26.5 100t8.5 135z" />
    <glyph glyph-name="ydieresis" unicode="&#xff;" horiz-adv-x="710" 
d="M729 824q0 -22 -33 -42l-11 -6q-20 -11 -32 -25t-20 -43l-5 -13l-237 -690q-39 -111 -73 -182.5t-65 -110.5q-31 -35 -66 -52.5t-78 -17.5q-54 0 -92 30q-33 31 -33 77q0 44 27 77q32 32 71 32q27 0 50 -15t45 -54q9 8 18 15q14 13 20 25q11 16 21 50l54 168l-198 645
q2 4 -1 8q-8 29 -21.5 47t-31.5 29q-10 3 -12 5q-34 18 -34 43l1 40h369v-40q0 -11 -6.5 -20t-21.5 -23q-35 -29 -35 -54v-12q0 -6 2 -9l112 -358l115 360l1 7q2 3 3 6t1 6q0 24 -36 53q-27 24 -27 44l1 40h258v-40zM663 1178q0 -51 -32 -89q-18 -16 -37.5 -24.5t-45.5 -8.5
q-45 0 -82 34q-16 19 -24.5 40.5t-8.5 47.5q0 42 34 81q34 31 81 31q26 0 44.5 -6t37.5 -24q16 -18 24.5 -38t8.5 -44zM282 1178q0 -51 -33 -89q-17 -16 -36.5 -24.5t-43.5 -8.5q-49 0 -84 34q-17 19 -25.5 40t-8.5 48q0 43 35 81q18 17 37.5 24t45.5 7q25 0 43 -6t36 -24
q34 -37 34 -82z" />
    <glyph glyph-name="breve" unicode="&#x2d8;" 
d="M833 1326q-22 -128 -101 -206q-39 -38 -91.5 -57.5t-118.5 -19.5q-131 0 -209.5 76.5t-103.5 206.5h61q9 -32 27.5 -55.5t46.5 -40.5q59 -30 178 -30q59 0 103 7t74 23q28 17 46 40t27 56h61z" />
    <glyph glyph-name="dotaccent" unicode="&#x2d9;" 
d="M650 1176q0 -52 -37 -88t-93 -36q-51 0 -91 35q-18 18 -25 38.5t-7 50.5q0 27 7.5 47t26.5 40q20 19 41.5 28.5t47.5 9.5q51 0 91 -38q20 -19 29.5 -40t9.5 -47z" />
    <glyph glyph-name="dotlessi" unicode="&#x131;" horiz-adv-x="470" 
d="M409 5h-339v44q0 14 5.5 24t20.5 19l16 15q7 11 9.5 17t7 27.5t4.5 66.5l5 434q0 19 -3 36t-8 36q-3 20 -15 39l-16 15q-30 21 -30 43l1 45l278 4v-652v-35t4 -35q3 -27 13 -42l19 -14q28 -19 28 -43v-44z" />
    <glyph glyph-name="ring" unicode="&#x2da;" 
d="M779 1247q0 -105 -76 -179.5t-181 -74.5q-103 0 -179 74.5t-76 179.5q0 104 75 178t180 74q107 0 182 -73t75 -179zM678 1247q0 31 -11.5 57.5t-35.5 50.5q-44 43 -109 43q-33 0 -60 -10.5t-50 -32.5q-42 -45 -42 -108q0 -62 42 -109q24 -23 50.5 -34.5t59.5 -11.5
q32 0 59 11.5t51 34.5q22 23 34 50t12 59z" />
    <glyph glyph-name="ogonek" unicode="&#x2db;" 
d="M708 -305q-22 -42 -43 -66q-24 -28 -55 -46q-27 -22 -61 -33t-73 -11q-69 0 -114 40t-45 103q0 82 72 171q33 44 83 85.5t125 87.5l18 -1q-46 -39 -69 -62q-30 -30 -48 -59q-44 -65 -44 -142q0 -32 5.5 -53.5t21 -40.5t34.5 -28.5t49 -9.5q21 0 38.5 5.5t33.5 15t31 23.5
q11 10 28 29z" />
    <glyph glyph-name="caron" unicode="&#x2c7;" 
d="M822 1357l-228 -343h-143l-229 343l63 1l237 -188l237 188z" />
    <glyph glyph-name="Lslash" unicode="&#x141;" horiz-adv-x="967" 
d="M934 5h-830v44q0 19 6.5 31t25.5 24q13 7 25 19q20 16 26 52q3 17 5 42.5t2 61.5l1 368l-185 -118v125l186 125l2 451q0 38 -2.5 60t-8.5 46q-6 40 -26 55l-19 16q-28 20 -28 54v40h400v-40q0 -16 -7.5 -29.5t-23.5 -27.5l-21 -13q-9 -8 -15.5 -21.5t-10 -31.5t-6 -49.5
t-2.5 -58.5l2 -331l270 172v-127l-272 -180v-644l90 -2q64 0 105.5 5.5t73.5 16.5q47 18 89 68q19 27 37 100q15 52 38 52h73v-355z" />
    <glyph glyph-name="lslash" unicode="&#x142;" horiz-adv-x="480" 
d="M478 839l-131 -85v-537v-35t4 -34q3 -27 13 -42l19 -14q27 -20 27 -43v-44h-337v44q0 13 5.5 23.5t19.5 19.5l16 15q7 10 10 16.5t6 21.5l4 72l3 446l-133 -86v95l133 88l2 526q0 23 -3 43q-5 23 -6 30q-4 25 -15 37q-3 3 -8 9.5t-9 9.5q-29 21 -29 40l1 44l277 5l2 -654
l129 83v-94z" />
    <glyph glyph-name="fraction" unicode="&#x2215;" horiz-adv-x="349" 
d="M690 1478l-922 -1498h-113l921 1498h114z" />
    <glyph glyph-name="fi" unicode="&#xf001;" horiz-adv-x="938" 
d="M879 5h-330v44q0 14 4.5 23t18.5 20l17 14q11 12 15 39l4 72l2 543h-275v-543v-35t4 -34q3 -27 13 -42l20 -14q27 -22 27 -43v-44h-331v44q0 13 5.5 23.5t20.5 19.5l16 15q7 11 9.5 17t5.5 21l5 72l2 543h-90v59q0 16 5.5 27t20.5 20l25 13q12 9 19 18.5t11.5 22.5
t8.5 31t6 37l6 62q10 108 32 183t58 125q23 36 54.5 63t71.5 47q77 36 183 36q113 0 177.5 -44.5t64.5 -118.5q0 -46 -27 -75.5t-71 -29.5q-38 0 -65 24q-21 20 -21 58q-1 12 -1 17q0 4 2.5 14.5t5 16.5t11.5 23l-27 14t-22 7t-40 4q-104 0 -149.5 -87.5t-45.5 -297.5v-169
l480 -2v-641v-35t4 -34q3 -27 14 -41l20 -16q26 -23 26 -42v-44z" />
    <glyph glyph-name="fl" unicode="&#xf002;" horiz-adv-x="938" 
d="M879 5h-330v44q0 14 4.5 23t18.5 20l17 14q11 12 15 39l4 72l2 543h-275v-543v-35t4 -34q3 -27 13 -42l20 -14q27 -22 27 -43v-44h-331v44q0 13 5.5 23.5t20.5 19.5l16 15q7 11 9.5 17t5.5 21l5 72l2 543h-90v59q0 16 5.5 27t20.5 20l25 13q12 9 19 18.5t11.5 22.5
t8.5 31t6 37l6 62q10 108 32 183t58 125q22 33 55 62q29 25 68 46q74 38 169 38q22 0 55 -5q14 -1 33.5 -4t39.5 -7l161 16v-1287v-35t4 -34q3 -27 14 -41l20 -16q26 -23 26 -42v-44zM610 860v380q-12 7 -20 16q-4 5 -12 18q-8 18 -8 50q0 14 3.5 28.5t17.5 40.5l-21 10
q-11 5 -19 7l-35 4q-94 0 -137.5 -93t-43.5 -292v-169h275z" />
    <glyph glyph-name="Zcaron" unicode="&#x17d;" horiz-adv-x="885" 
d="M833 5h-797l-2 104l532 1278l-98 2q-99 0 -148 -17.5t-83 -60.5q-13 -22 -27 -60q-9 -26 -21.5 -40t-31.5 -14h-6h-47v328l67 -14q53 -5 124 -5l31 -1l507 -3v-63l-556 -1318l149 -3q54 0 94 6.5t79 20.5q55 22 101 89q13 20 28 67q19 53 53 53l52 -1v-348zM744 1984
l-228 -343h-143l-229 343l63 1l237 -188l237 188z" />
    <glyph glyph-name="zcaron" unicode="&#x17e;" horiz-adv-x="696" 
d="M646 5h-611l-1 84l350 683l-63 2q-76 0 -110 -14q-17 -6 -31 -20.5t-27 -37.5q-5 -10 -12 -40q-10 -35 -43 -35h-40v237h575v-37l-368 -720l58 -3q47 0 81.5 5.5t59.5 16t41.5 26t35.5 45.5q4 7 8.5 18t9.5 29q8 22 19 34t26 12l42 -1v-284zM652 1357l-228 -343h-143
l-229 343l63 1l237 -188l237 188z" />
    <glyph glyph-name="Cacute" unicode="&#x106;" horiz-adv-x="986" 
d="M971 261q-77 -146 -171 -211q-98 -70 -230 -70q-226 0 -369 204q-71 100 -106 235.5t-35 305.5q0 182 35.5 324.5t110.5 257.5q145 219 364 219q42 0 77.5 -7.5t71.5 -26.5q79 -40 87 -40q5 0 13.5 4.5t18.5 10.5q16 9 33 11l44 -1v-360h-44q-22 0 -36 14.5t-25 45.5
l-12 42q-32 100 -85.5 147.5t-130.5 47.5q-70 0 -118.5 -37.5t-79.5 -116.5q-62 -158 -62 -471q0 -160 18.5 -283.5t54.5 -210.5q76 -170 225 -170q85 0 151 48q59 49 108 145zM876 1917q0 -18 -8 -33q-4 -8 -13 -18q-7 -11 -25.5 -23t-51.5 -30l-335 -172h-67l277 276
q20 20 41 38q17 14 35 27q33 19 62 19q35 0 60 -25q25 -23 25 -59z" />
    <glyph glyph-name="cacute" unicode="&#x107;" horiz-adv-x="702" 
d="M690 125q-52 -64 -128.5 -104.5t-170.5 -40.5q-154 0 -246.5 113.5t-92.5 313.5q0 117 24.5 201.5t76.5 150t122 97t157 31.5q53 0 90 -9.5t68 -33.5q62 -47 62 -113q0 -51 -30 -86q-17 -17 -35 -24.5t-46 -7.5q-42 0 -71 30q-11 14 -16 34t-5 48l-2 28q1 9 1.5 16.5
t4.5 26.5l-15 1q-5 2 -10.5 2.5t-11.5 0.5q-72 0 -106 -87t-34 -247q0 -175 43 -260q23 -46 57.5 -69.5t82.5 -23.5q21 0 42 7t50 20q37 18 78 60zM725 1290q0 -18 -8 -33q-4 -8 -13 -18q-7 -11 -25.5 -23t-51.5 -30l-335 -172h-67l277 276q20 20 41 38q17 14 35 27
q33 19 62 19q35 0 60 -25q25 -23 25 -59z" />
    <glyph glyph-name="Ccaron" unicode="&#x10c;" horiz-adv-x="986" 
d="M971 261q-77 -146 -171 -211q-98 -70 -230 -70q-226 0 -369 204q-71 100 -106 235.5t-35 305.5q0 182 35.5 324.5t110.5 257.5q145 219 364 219q42 0 77.5 -7.5t71.5 -26.5q79 -40 87 -40q5 0 13.5 4.5t18.5 10.5q16 9 33 11l44 -1v-360h-44q-22 0 -36 14.5t-25 45.5
l-12 42q-32 100 -85.5 147.5t-130.5 47.5q-70 0 -118.5 -37.5t-79.5 -116.5q-62 -158 -62 -471q0 -160 18.5 -283.5t54.5 -210.5q76 -170 225 -170q85 0 151 48q59 49 108 145zM869 1984l-228 -343h-143l-229 343l63 1l237 -188l237 188z" />
    <glyph glyph-name="ccaron" unicode="&#x10d;" horiz-adv-x="702" 
d="M690 125q-52 -64 -128.5 -104.5t-170.5 -40.5q-154 0 -246.5 113.5t-92.5 313.5q0 117 24.5 201.5t76.5 150t122 97t157 31.5q53 0 90 -9.5t68 -33.5q62 -47 62 -113q0 -51 -30 -86q-17 -17 -35 -24.5t-46 -7.5q-42 0 -71 30q-11 14 -16 34t-5 48l-2 28q1 9 1.5 16.5
t4.5 26.5l-15 1q-5 2 -10.5 2.5t-11.5 0.5q-72 0 -106 -87t-34 -247q0 -175 43 -260q23 -46 57.5 -69.5t82.5 -23.5q21 0 42 7t50 20q37 18 78 60zM718 1357l-228 -343h-143l-229 343l63 1l237 -188l237 188z" />
    <glyph glyph-name="dcroat" unicode="&#x111;" horiz-adv-x="861" 
d="M859 1101h-132v-884q0 -49 7 -79t25 -46q9 -9 16 -18q12 -15 12 -25v-44l-266 -10l-3 70q-32 -26 -56 -41.5t-44 -23.5q-29 -15 -73 -15q-126 0 -208 119q-41 59 -60 137.5t-19 180.5q0 109 17.5 188t59.5 143q38 60 88 91.5t110 31.5q52 0 89 -19q24 -10 43 -24
q24 -18 53 -49l2 317h-215v87l215 2l2 96q0 19 -2.5 36.5t-6.5 35.5q-4 28 -18 40q-6 6 -10 8.5t-17 9.5q-31 18 -34 39l2 44l291 5v-314l132 -2v-87zM518 163v541q-19 21 -43 32q-26 10 -49 10q-74 0 -111 -79q-16 -41 -24 -98t-8 -139q0 -156 32 -236q36 -79 111 -79
q21 0 48 10q8 4 20.5 14.5t23.5 23.5z" />
    <glyph glyph-name="Scedilla" unicode="&#x15e;" horiz-adv-x="938" 
d="M873 429q0 -189 -112 -319q-55 -64 -121.5 -97t-144.5 -33q-69 0 -155 27q-32 13 -52 19q-29 9 -41 9q-26 0 -58 -23q-15 -12 -21.5 -16.5t-10.5 -4.5h-47v447h36q50 0 66 -62q8 -36 9 -41q5 -19 12 -34q43 -107 98 -156q28 -25 64.5 -38.5t80.5 -13.5q90 0 142 64.5
t52 179.5q0 94 -45 161q-40 70 -162 164l-58 43q-144 104 -211 180q-45 54 -70 121q-10 31 -16 65.5t-6 70.5q0 164 101 276q98 108 250 108q30 0 49.5 -2.5t51.5 -12.5q28 -12 47 -17.5t27 -5.5q10 0 26 7t24 10q20 12 31 13l41 -1v-364h-36q-39 0 -59 58q-4 16 -7.5 27
t-7.5 20q-29 79 -74.5 117.5t-107.5 38.5q-76 0 -114 -47q-43 -46 -43 -129q0 -73 39 -131q18 -30 58 -67q35 -32 102 -84q19 -18 62 -49q69 -50 119.5 -93t85.5 -79q27 -30 45.5 -60t33.5 -70q27 -80 27 -176zM743 -282q0 -78 -62 -128.5t-166 -50.5q-76 0 -158 22
q-43 14 -74 27q-43 18 -77 38l30 64q68 -33 127 -51q31 -9 62.5 -15.5t55.5 -6.5q28 0 49 7t36.5 20t24 32.5t8.5 46.5q0 20 -9 39.5t-25 33.5q-35 22 -88 22q-6 1 -12 1q-9 0 -29 -6l-9 -1v181h48v-111h21q11 0 25 2l36 2q81 0 135 -46q26 -24 38.5 -53t12.5 -69z" />
    <glyph glyph-name="scedilla" unicode="&#x15f;" horiz-adv-x="618" 
d="M576 253q0 -116 -83 -194.5t-210 -78.5q-106 0 -174.5 54.5t-68.5 135.5q0 26 5.5 45t18.5 34q29 29 78 29q23 0 39.5 -5.5t29.5 -19.5q29 -27 29 -68q0 -13 -6 -34q-2 -11 -5.5 -20t-13.5 -26q27 -20 44 -27q10 -4 21.5 -7.5t20.5 -3.5q23 0 42 8t43 24q33 26 33 67
q0 70 -133 168l-3 3q-145 97 -185 158q-19 30 -29.5 63.5t-10.5 71.5q0 58 19 103.5t56 82.5q70 73 186 73q95 0 154 -50q64 -47 64 -112q0 -21 -7 -37.5t-19.5 -29.5t-30.5 -20.5t-39 -7.5q-16 0 -29.5 4t-31.5 19q-23 23 -23 60q0 12 3 24.5t7 20.5t12 21q-22 6 -30.5 9
t-16.5 7l-29 3q-41 0 -71 -24q-25 -24 -25 -65q0 -54 109 -134l35 -24q70 -47 114.5 -86.5t66.5 -72t33 -67t11 -74.5zM585 -282q0 -78 -62 -128.5t-166 -50.5q-76 0 -158 22q-43 14 -74 27q-43 18 -77 38l30 64q68 -33 127 -51q31 -9 62.5 -15.5t55.5 -6.5q28 0 49 7
t36.5 20t24 32.5t8.5 46.5q0 20 -9 39.5t-25 33.5q-35 22 -88 22q-6 1 -12 1q-9 0 -29 -6l-9 -1v181h48v-111h21q11 0 25 2l36 2q81 0 135 -46q26 -24 38.5 -53t12.5 -69z" />
    <glyph glyph-name="franc" unicode="&#x20a3;" horiz-adv-x="1575" 
d="M907 1180h-55q-37 0 -56 54q-14 47 -31 73.5t-31 41.5t-31 23q-40 16 -121 16h-26h-140v-558l106 -2q28 0 49 5t37 14q31 15 48 55l8 22q13 37 50 37l36 -1v-373h-36q-36 0 -50 37q-4 16 -8 23q-7 19 -18.5 31.5t-28.5 23.5q-26 14 -87 14h-106v-438q0 -77 6 -109.5
t26 -49.5l24 -18q18 -11 28 -24t10 -28v-44h-422v44q0 33 29 52l16 10q9 6 13 10q17 16 24 49.5t7 107.5l4 952q0 40 -2.5 62t-8.5 45q-6 38 -24 53l-22 19q-30 22 -30 51l1 40h529q24 0 80 5.5t71 5.5q32 3 54.5 5.5t77.5 10.5v-347zM1555 769q0 -52 -30 -84.5t-76 -32.5
q-25 0 -44 11q-25 11 -59 44q-29 -36 -48 -72t-30 -79q-20 -85 -20 -208v-130q0 -21 1 -39t5 -40t15.5 -32.5t24.5 -16.5q31 -19 31 -41v-44h-346v44q0 15 4.5 24t19.5 19l18 15q7 11 9.5 17t6.5 25t4 69l4 434q0 20 -2.5 39t-6.5 32q-3 21 -15 40l-18 15q-14 11 -21 21
t-7 22l1 45l240 4v-186l19 -4q25 59 49.5 99t48.5 66q46 44 102 44q54 0 88 -32q15 -17 23.5 -38.5t8.5 -49.5z" />
    <glyph glyph-name="Gbreve" unicode="&#x11e;" horiz-adv-x="1103" 
d="M1051 80q-115 -51 -212 -75q-50 -11 -106.5 -18t-106.5 -7q-261 0 -415.5 183.5t-154.5 504.5q0 116 14.5 215.5t47.5 189.5t81 170t110 146q38 37 71 61.5t73 42.5q70 35 155 35q40 0 77.5 -9t73.5 -29l64 -31l23 -10q5 0 13 5q13 8 19 11q13 11 31 11l46 -1v-360h-46
q-21 0 -35.5 14.5t-23.5 44.5l-13 44q-16 52 -36.5 88t-48.5 60q-54 46 -136 46q-145 0 -224 -195q-37 -102 -55.5 -241.5t-18.5 -328.5q0 -139 17 -245t49 -173q66 -136 214 -136q104 0 151 62q21 30 35 97.5t14 136.5q0 36 -6 78t-14 56q-7 17 -22 31t-38 27l-32 13
q-20 8 -22 12q-6 11 -8 32l1 40h350l-18 -85q-5 -47 -5 -80v-211q0 -56 7 -92.5t27 -53.5q8 -8 20.5 -14t12.5 -21v-41zM862 1953q-22 -128 -101 -206q-39 -38 -91.5 -57.5t-118.5 -19.5q-131 0 -209.5 76.5t-103.5 206.5h61q9 -32 27.5 -55.5t46.5 -40.5q59 -30 178 -30
q59 0 103 7t74 23q28 17 46 40t27 56h61z" />
    <glyph glyph-name="gbreve" unicode="&#x11f;" horiz-adv-x="769" 
d="M798 808q0 -28 -21 -51q-11 -11 -22 -16.5t-26 -5.5q-11 0 -20.5 4t-25.5 20q-11 15 -25 24q-2 1 -6 4q-14 0 -21 -6.5t-10 -21.5q8 -12 17.5 -34t23.5 -62q13 -57 13 -121q0 -121 -82 -201q-42 -39 -93 -59.5t-115 -20.5q-18 0 -35.5 3.5t-29.5 7.5t-27 12l-64 -137h23
q7 0 10 1h59q12 -1 24 -1q92 0 157.5 -14.5t112.5 -48.5q97 -64 97 -176q0 -125 -95 -195.5t-266 -70.5q-130 0 -210 43q-71 36 -71 108q0 24 5.5 39.5t20.5 30.5t32 22t41 7q43 0 68.5 -26.5t25.5 -68.5l-1 -19q-3 -11 -3 -26q16 -4 33.5 -9.5t25.5 -6.5q28 -5 60 -5
q80 0 125.5 28.5t45.5 83.5q0 66 -80 98q-73 25 -235 25q-14 0 -43.5 -1t-43.5 -1l-48 -2q-28 0 -38.5 5.5t-12.5 16.5q0 10 10 26l4 9l145 302q-32 19 -53.5 45t-38.5 62q-31 59 -31 146q0 68 20.5 125t61.5 102q79 86 206 86q39 0 65.5 -3.5t50.5 -13t49 -26.5t52 -41
q21 26 42 45q16 14 30 23.5t28 12.5t29 3q20 0 33 -4.5t24 -15.5q23 -21 23 -59zM478 574q0 65 -5 105t-16 70q-21 51 -74 51q-56 0 -78 -51q-18 -51 -18 -175q0 -118 18 -171q22 -54 78 -54q53 0 74 52q10 27 15.5 69.5t5.5 103.5zM698 1326q-22 -128 -101 -206
q-39 -38 -91.5 -57.5t-118.5 -19.5q-131 0 -209.5 76.5t-103.5 206.5h61q9 -32 27.5 -55.5t46.5 -40.5q59 -30 178 -30q59 0 103 7t74 23q28 17 46 40t27 56h61z" />
    <glyph glyph-name="Idotaccent" unicode="&#x130;" horiz-adv-x="614" 
d="M524 5h-432v44q0 16 7.5 28.5t24.5 23.5q12 6 17 10t11 10q11 9 16.5 18.5t9.5 27t6 43t2 69.5l4 951q0 37 -2.5 58.5t-9.5 46.5q-6 40 -28 56l-19 19q-33 21 -33 51l1 40h415v-40q0 -29 -34 -51q-7 -4 -11.5 -9.5t-8.5 -9.5q-18 -14 -26 -47t-8 -114v-951q0 -81 7 -110
q3 -17 9 -29t18 -21q5 -4 14 -9.5l14 -8.5q36 -22 36 -52v-44zM439 1803q0 -52 -37 -88t-93 -36q-51 0 -91 35q-18 18 -25 38.5t-7 50.5q0 27 7.5 47t26.5 40q20 19 41.5 28.5t47.5 9.5q51 0 91 -38q20 -19 29.5 -40t9.5 -47z" />
    <glyph glyph-name="c274" unicode="&#x112;" horiz-adv-x="1097" 
d="M1007 770q0 -339 -157 -567q-77 -112 -171 -167.5t-209 -55.5q-162 0 -269 113q-103 106 -103 285q0 99 26.5 178t84.5 145q114 127 282 127q53 0 91.5 -9t75.5 -33q33 -21 62 -59t61 -104q23 140 33 220l8.5 81t4.5 71q0 60 -8.5 108t-24.5 77q-32 60 -107 60
q-70 0 -157.5 -59.5t-122.5 -59.5q-30 0 -60 24q-22 21 -22 53t18.5 58.5t56.5 50.5q43 25 91.5 37.5t110.5 12.5q173 0 289 -162q58 -81 87 -185.5t29 -239.5zM732 513q0 125 -43 191.5t-131 66.5q-58 0 -106.5 -34.5t-85.5 -102.5t-55 -158t-18 -198q0 -125 41 -188
q24 -34 56 -50.5t78 -16.5q117 0 190.5 138.5t73.5 351.5z" />
    <glyph glyph-name="c275" unicode="&#x113;" horiz-adv-x="1706" 
d="M1650 -396h-639v55l187 2v1779h-694v-1779l192 -2v-55h-640v55l193 2v1779h-193v55h1594v-55h-195v-1779l195 -2v-55z" />
    <glyph glyph-name="c276" unicode="&#x114;" horiz-adv-x="1529" 
d="M1491 115l-156 -511h-1313v44l908 810l-910 994l1 43h1222l117 -380h-64l-80 237q-15 52 -58 70q-36 18 -141 18l-670 -2l781 -842v-32l-828 -746l952 -4q23 0 43 5.5t31 15t19.5 22t14.5 35.5l66 223h65z" />
    <glyph glyph-name="c277" unicode="&#x115;" horiz-adv-x="1740" 
d="M1479 542h-1216v161h1216v-161z" />
    <glyph glyph-name="c278" unicode="&#x116;" horiz-adv-x="1142" 
d="M1092 1429q0 -54 -32 -89q-15 -15 -39 -23.5t-52 -8.5q-41 0 -70 22q-14 9 -23 23.5t-16 35.5l-6 44q0 25 -10 38t-27 15q-134 0 -134 -641l-8 -257q0 -127 -8.5 -235.5t-21.5 -193t-28.5 -146.5t-35.5 -109q-27 -69 -61.5 -119.5t-80.5 -88.5q-84 -69 -192 -69
q-84 0 -139.5 43.5t-55.5 106.5q0 59 34.5 91t95.5 32q33 0 63 -18q11 -7 21 -21q7 -9 17 -30q4 -9 6.5 -21t2.5 -33q0 -55 34 -55q60 0 98.5 186t38.5 535l3 125q0 268 31 463t86 318q102 227 313 227q49 0 80.5 -8.5t60.5 -32.5q55 -46 55 -106z" />
    <glyph glyph-name="c279" unicode="&#x117;" horiz-adv-x="1740" 
d="M1479 336h-729l-252 -318l-107 86l177 230l-305 2v142l397 2l223 279l-620 2v144l714 2l257 321l109 -87l-181 -232l317 -4v-144h-415l-219 -279l634 -4v-142z" />
    <glyph glyph-name="c280" unicode="&#x118;" horiz-adv-x="1740" 
d="M1473 314l-1204 394v137l1204 395v-158l-937 -305l937 -303v-160zM1473 17h-1204v146h1204v-146z" />
    <glyph glyph-name="c281" unicode="&#x119;" horiz-adv-x="1740" 
d="M1473 711l-1204 -394v159l938 302l-938 303v158l1204 -395v-133zM1475 17h-1206v146h1206v-146z" />
    <glyph glyph-name="c282" unicode="&#x11a;" horiz-adv-x="1032" 
d="M1024 604l-508 -1076l-508 1076l508 1069zM929 606l-413 866l-411 -866l413 -879z" />
    <glyph glyph-name="c283" unicode="&#x11b;" horiz-adv-x="435" 
d="M353 729q0 -51 -42 -93q-20 -19 -43.5 -29t-52.5 -10q-51 0 -94 40q-41 43 -41 92q0 53 40.5 94t94.5 41q57 0 97.5 -39t40.5 -96z" />
    </font>
</defs>
</svg>
